<svg xmlns="http://www.w3.org/2000/svg" xmlns:xlink="http://www.w3.org/1999/xlink" viewBox="0 0 1577.36 878.49"><defs><style>.cls-1,.cls-15,.cls-18,.cls-20,.cls-23,.cls-28,.cls-34,.cls-35,.cls-38,.cls-40,.cls-41,.cls-44,.cls-9{isolation:isolate;}.cls-15,.cls-2,.cls-40{opacity:0.3;}.cls-3{fill:#c6dcfd;}.cls-18,.cls-20,.cls-23,.cls-34,.cls-35,.cls-38,.cls-4,.cls-51,.cls-9{opacity:0.5;}.cls-39,.cls-46,.cls-5,.cls-6{fill:none;}.cls-5,.cls-6{stroke:#9d9dce;}.cls-46,.cls-5{stroke-miterlimit:10;}.cls-36,.cls-39,.cls-6{stroke-linecap:round;stroke-linejoin:round;}.cls-7{fill:#9d9dce;}.cls-8{fill:#4b48b5;}.cls-33,.cls-9{fill:#605aca;}.cls-10,.cls-36{fill:#fff;}.cls-11{opacity:0.66;}.cls-12,.cls-18{fill:#8fc2ff;}.cls-13{fill:#ffb437;}.cls-14,.cls-15,.cls-34{fill:#f9714e;}.cls-16,.cls-20{fill:#5c51d3;}.cls-17{fill:#4a84d8;}.cls-19,.cls-35{fill:#4ca1ff;}.cls-21{fill:#29236b;}.cls-22,.cls-23{fill:#001f64;}.cls-24,.cls-40{fill:#8988e5;}.cls-25{opacity:0.35;}.cls-26{fill:#7c4dff;}.cls-27{fill:#d3caff;}.cls-28{fill:#15ccbe;opacity:0.75;}.cls-29{fill:#9499ff;}.cls-30{fill:#f2efe3;}.cls-31{fill:#e2a349;}.cls-32{fill:#d1543b;}.cls-36,.cls-39{stroke:#000;}.cls-37,.cls-38{fill:#ffb044;}.cls-41,.cls-44{fill:#5a4fd1;}.cls-41{opacity:0.1;}.cls-42{fill:#332a80;}.cls-43{opacity:0.54;}.cls-44{opacity:0.37;}.cls-45{fill:#ffd4c2;}.cls-46{stroke:#276acf;stroke-width:3px;}.cls-47{fill:#00dff7;}.cls-48{fill:#ccdff7;}.cls-49{fill:#f77f00;}.cls-50{fill:#f95790;}.cls-51,.cls-53{mix-blend-mode:multiply;}.cls-51{fill:url(#radial-gradient);}.cls-52{fill:url(#linear-gradient);}.cls-53{fill:url(#linear-gradient-2);}</style><radialGradient id="radial-gradient" cx="1222.58" cy="412.44" r="43.56" gradientTransform="translate(0 15.15) scale(1 0.79)" gradientUnits="userSpaceOnUse"><stop offset="0" stop-color="#00243f"/><stop offset="0.16" stop-color="#3e5a6e"/><stop offset="0.32" stop-color="#788b9a"/><stop offset="0.49" stop-color="#a9b5be"/><stop offset="0.64" stop-color="#ced5da"/><stop offset="0.78" stop-color="#e9ecee"/><stop offset="0.9" stop-color="#f9fafb"/><stop offset="0.99" stop-color="#fff"/></radialGradient><linearGradient id="linear-gradient" x1="1180.52" y1="314.86" x2="1266.97" y2="314.86" gradientUnits="userSpaceOnUse"><stop offset="0" stop-color="#fef819"/><stop offset="1" stop-color="#fbaf17"/></linearGradient><linearGradient id="linear-gradient-2" x1="1200.15" y1="314.86" x2="1247.34" y2="314.86" gradientUnits="userSpaceOnUse"><stop offset="0" stop-color="#fed919"/><stop offset="1" stop-color="#fb8b17"/></linearGradient></defs><title>sec 2-3</title><g class="cls-1"><g id="Layer_2" data-name="Layer 2"><g id="Layer_1-2" data-name="Layer 1"><g class="cls-2"><path class="cls-3" d="M586.2,162.83h0c0-13.41-10.34-24.34-23.08-24.34H178.47c-12.75,0-23.07,10.9-23.07,24.34h0c0,13.42,10.32,24.34,23.07,24.34h57.38c7.37,0,13.41,6.31,13.41,14.09h0c0,7.82-6,14.09-13.41,14.09H99.06C86.31,215.35,76,226.24,76,239.69h0C76,253.1,86.31,264,99.06,264H517.62c12.75,0,23.09-10.9,23.09-24.34h0c0-13.41-10.34-24.34-23.09-24.34H483c-7.38,0-13.41-6.32-13.41-14.09h0c0-7.83,6-14.09,13.41-14.09h80.2C575.86,187.17,586.2,176.27,586.2,162.83Z"/><path class="cls-3" d="M0,636.51H0c0-13.41,10.34-24.34,23.09-24.34H407.73c12.75,0,23.09,10.89,23.09,24.34h0c0,13.41-10.34,24.34-23.09,24.34H350.36c-7.38,0-13.41,6.3-13.41,14.09h0c0,7.82,6,14.08,13.41,14.08H487.15c12.74,0,23.08,10.9,23.08,24.34h0c0,13.41-10.34,24.34-23.08,24.34H68.58c-12.75,0-23.07-10.89-23.07-24.34h0C45.51,700,55.83,689,68.58,689h34.7c7.38,0,13.36-6.3,13.36-14.08h0c0-7.82-6-14.09-13.36-14.09H23.09C10.34,660.85,0,650,0,636.51Z"/><path class="cls-3" d="M1467.37,138.13h0c0-13.42-10.33-24.34-23.08-24.34h-593c-12.75,0-23.08,10.89-23.08,24.34h0c0,13.41,10.33,24.34,23.08,24.34H1117c7.38,0,13.41,6.3,13.41,14.08h0c0,7.82-6,14.09-13.41,14.09H980.18c-12.75,0-23.07,10.9-23.07,24.34h0c0,13.41,10.32,24.34,23.07,24.34h574.09c12.75,0,23.09-10.9,23.09-24.34h0c0-13.41-10.34-24.34-23.09-24.34H1364.1c-7.38,0-13.41-6.32-13.41-14.09h0c0-7.83,6-14.08,13.41-14.08h80.19C1457,162.47,1467.37,151.56,1467.37,138.13Z"/><path class="cls-3" d="M896.15,562.34h0c0-13.41,10.34-24.33,23.08-24.33h593c12.74,0,23.08,10.89,23.08,24.33h0c0,13.41-10.34,24.34-23.08,24.34H1246.51c-7.38,0-13.41,6.31-13.41,14.09h0c0,7.82,6,14.09,13.41,14.09h136.75c12.75,0,23.09,10.9,23.09,24.34h0c0,13.41-10.34,24.33-23.09,24.33h-574c-12.74,0-23.08-10.89-23.08-24.33h0c0-13.41,10.34-24.34,23.08-24.34H999.44c7.37,0,13.41-6.31,13.41-14.09h0c0-7.82-6-14.09-13.41-14.09H919.23C906.49,586.72,896.15,575.83,896.15,562.34Z"/><path class="cls-3" d="M359.28,350.85h0c0-13.41,10.34-24.33,23.09-24.33h798.46c12.74,0,23.08,10.9,23.08,24.33h0c0,13.41-10.34,24.34-23.08,24.34H887.38c-7.37,0-13.41,6.32-13.41,14.09h0c0,7.83,6,14.1,13.41,14.1h164.56c12.75,0,23.09,10.89,23.09,24.34h0c0,13.41-10.34,24.33-23.09,24.33H272.34c-12.74,0-23.08-10.9-23.08-24.33h0c0-13.41,10.34-24.34,23.08-24.34H462.57c7.37,0,13.41-6.32,13.41-14.1h0c0-7.82-6-14.09-13.41-14.09h-80.2C369.64,375.19,359.28,364.3,359.28,350.85Z"/></g><g class="cls-4"><ellipse class="cls-5" cx="504.78" cy="101.01" rx="5.67" ry="5.98"/><path class="cls-5" d="M64.08,173.76a5.68,5.68,0,1,1-5.67-5.92A5.83,5.83,0,0,1,64.08,173.76Z"/><ellipse class="cls-5" cx="1271.45" cy="360.54" rx="5.67" ry="5.98"/><ellipse class="cls-5" cx="1454.62" cy="493.22" rx="5.67" ry="5.98"/><ellipse class="cls-5" cx="28.34" cy="469.89" rx="5.67" ry="5.98"/><ellipse class="cls-5" cx="1430.66" cy="180.32" rx="5.67" ry="5.98"/><ellipse class="cls-5" cx="152.84" cy="643.18" rx="5.67" ry="5.98"/><path class="cls-5" d="M164.18,355.59a5.68,5.68,0,1,1-5.68-6A5.84,5.84,0,0,1,164.18,355.59Z"/><ellipse class="cls-5" cx="1368.2" cy="663.58" rx="5.67" ry="5.98"/><ellipse class="cls-5" cx="1219.74" cy="95.03" rx="5.67" ry="5.98"/></g><g class="cls-4"><path class="cls-6" d="M214.3,287.55h0a1.62,1.62,0,0,1,1.59,1.66h0v6.55h-3.15v-6.55A1.62,1.62,0,0,1,214.3,287.55Z"/><polygon class="cls-6" points="208.4 290.76 190.5 295.51 174.14 290.76 174.14 273.32 208.4 273.32 208.4 290.76"/><path class="cls-6" d="M214.3,273.32H166.71a3.08,3.08,0,0,1-3-3.14h0a3.08,3.08,0,0,1,3-3.16H214.3a3.08,3.08,0,0,1,3,3.14v0h0a3.08,3.08,0,0,1-3,3.14Z"/><line class="cls-6" x1="214.29" y1="273.32" x2="214.29" y2="283.3"/><ellipse class="cls-6" cx="214.31" cy="285.42" rx="2.01" ry="2.12"/><path class="cls-6" d="M1387.92,341.51c-8.51-3.05-17-2.58-25.4,0a39.19,39.19,0,0,0-25.4,0V309.2c7.46-3.25,15.79-3.71,25.4,0,7.6-3.6,16.13-3.35,25.4,0Z"/><line class="cls-6" x1="1362.52" y1="309.2" x2="1362.52" y2="341.51"/><path class="cls-7" d="M563.26,100.55A14.88,14.88,0,0,0,552.4,112a16,16,0,0,0,2.33,12.37l-11.52,13.26a3,3,0,0,0,.17,4.15h0a2.68,2.68,0,0,0,3.79,0l.14-.15,11.46-13.17a13.77,13.77,0,0,0,11.36,1.93A14.81,14.81,0,0,0,580.7,118.9C583,107.81,573.79,98.11,563.26,100.55Zm3.28,24.38a9.23,9.23,0,0,1-8.94-9.45,8.94,8.94,0,0,1,17.88,0A9.22,9.22,0,0,1,566.54,124.93Z"/><path class="cls-7" d="M1177.42,262.75a14.84,14.84,0,0,0-10.85,11.43,15.87,15.87,0,0,0,2.33,12.37l-11.52,13.24a3,3,0,0,0,.17,4.15h0a2.68,2.68,0,0,0,3.78,0l.14-.16,11.47-13.17a13.89,13.89,0,0,0,11.36,1.94,14.9,14.9,0,0,0,10.58-11.42C1197.18,270,1188,260.3,1177.42,262.75Zm3.35,24.37a9.45,9.45,0,1,1,8.93-10c0,.17,0,.34,0,.51a9.23,9.23,0,0,1-9,9.45h0Z"/><polygon class="cls-6" points="339.68 123.97 346.46 127.58 336.56 148.14 329.78 144.53 339.68 123.97"/><polygon class="cls-6" points="329.78 144.53 336.56 148.14 332.92 150.84 329.97 153.02 329.88 149.22 329.78 144.53"/><polygon class="cls-6" points="329.88 149.22 332.92 150.84 329.97 153.02 329.88 149.22"/><polygon class="cls-6" points="136.52 478.69 143.3 482.3 133.4 502.86 126.62 499.25 136.52 478.69"/><polygon class="cls-6" points="126.62 499.25 133.4 502.86 129.76 505.57 126.81 507.75 126.72 503.94 126.62 499.25"/><polygon class="cls-6" points="126.72 503.94 129.76 505.57 126.81 507.75 126.72 503.94"/><polygon class="cls-6" points="1380.58 562.33 1387.35 565.94 1377.46 586.5 1370.67 582.88 1380.58 562.33"/><polygon class="cls-6" points="1370.68 582.89 1377.46 586.5 1373.81 589.2 1370.87 591.38 1370.78 587.58 1370.68 582.89"/><polygon class="cls-6" points="1370.78 587.58 1373.81 589.2 1370.87 591.38 1370.78 587.58"/></g><rect class="cls-8" x="703.18" y="679.43" width="169.86" height="91.69"/><rect class="cls-9" x="703.18" y="679.43" width="169.86" height="58.71"/><path class="cls-8" d="M960.5,769.18H615.72c-10.91,0-19.71,9.32-19.71,20.8s8.83,20.84,19.71,20.84H960.5c10.91,0,19.71-9.31,19.71-20.78h0C980.21,778.5,971.39,769.18,960.5,769.18Z"/><path class="cls-9" d="M980.22,790c0,11.45-8.83,20.76-19.72,20.76H615.72c-10.91,0-19.72-9.31-19.72-20.76a18.7,18.7,0,0,1,.63-5,19.85,19.85,0,0,0,19.09,15.75H960.5A19.87,19.87,0,0,0,979.6,785,19.09,19.09,0,0,1,980.22,790Z"/><path class="cls-8" d="M1150,727.21H426.18c-22.68,0-41.07-19.38-41.07-43.31V214.25c0-23.92,18.39-43.31,41.07-43.31H1150c22.69,0,41.07,19.39,41.07,43.31V684C1191.11,707.83,1172.73,727.21,1150,727.21Z"/><path class="cls-10" d="M430.41,705.47c-12.69,0-23-10.91-23-24.25V216.94c0-13.37,10.31-24.25,23-24.25h715.46c12.68,0,23,10.91,23,24.25v464.3c0,13.37-10.32,24.26-23,24.26Z"/><g class="cls-11"><rect class="cls-3" x="439.32" y="225.25" width="422.58" height="38.75" rx="5.5" ry="5.5"/><rect class="cls-3" x="439.32" y="298.96" width="422.58" height="38.75" rx="5.5" ry="5.5"/><rect class="cls-3" x="439.32" y="372.65" width="422.58" height="38.75" rx="5.5" ry="5.5"/><rect class="cls-3" x="445.13" y="457.64" width="416.78" height="211.61" rx="5.5" ry="5.5"/><rect class="cls-3" x="900.16" y="268.25" width="38.77" height="141.43" rx="5.5" ry="5.5"/><rect class="cls-3" x="966.16" y="321.49" width="38.77" height="88.2" rx="5.5" ry="5.5"/><rect class="cls-3" x="1032.15" y="225.25" width="38.77" height="184.44" rx="5.5" ry="5.5"/><rect class="cls-3" x="1098.14" y="272.6" width="38.77" height="137.08" rx="5.5" ry="5.5"/><ellipse class="cls-3" cx="1029.15" cy="565.99" rx="101.39" ry="106.91"/><path class="cls-12" d="M1119,516.38c-15.32-30.77-44.44-52.72-78.71-56.65-13.12,20.83-34.59,11.14-39.8,35.93-.67,3.19,31.21,32.94,31.7,36.17,1.3,8.54-6.94,22.47.92,24.95s16.65,4.34,21.72,11.14c6.4,8.58,4,20.85,4.1,31.76,0,3.79,1.09,8.36,4.51,9.45,3,1,6.17-1.57,7.46-4.6s1.37-6.45,1.87-9.71c1.54-9.25,7.15-17.08,12.81-24.32,9.64-12.36-11.62-29.72-4.41-43.81C1083.74,521.74,1117.47,521.83,1119,516.38Z"/><path class="cls-12" d="M986.68,599.69c-5.77-8.87-12.91-16.89-17-26.75-2-4.8-3.22-9.94-5.37-14.67s-5.54-9.18-10.23-10.92c-2.84-1-14.46-7.76-23.37-7a113.53,113.53,0,0,0-3,25.64c0,45.42,26.87,84.2,64.75,99.7a20.4,20.4,0,0,0,7.82-8.76c3.24-7.06,2.42-15.44.69-23.08A105.7,105.7,0,0,0,986.68,599.69Z"/></g><path class="cls-13" d="M935.35,436l-7.22.71s-.43-3.9-.6-5c0-.38-.64-.94-1.36-1.85-7.23-12.69,3.72-20.12,5.62-10.82.87,3.6,2.34,4.61,2.34,4.61s1-4.18,2.26-4.09c2,.08-.13,12.21-1.37,11.68Z"/><path class="cls-8" d="M979.84,524.38c3.29-3.38,6.74-6.5,10.22-9.68l5.2-4.76-2.11-1.36c-17.17-5.38-53.65-50.25-56.27-78l-11.79,1.08c-1.66,35.46,30.51,94.8,47.58,99.28A59,59,0,0,0,979.84,524.38Z"/><path class="cls-13" d="M949.3,453.25c2.16-14,10.26-23.64,24.55-21.34,17.65,2.83,24.94,15.84,22.8,29.83a26.72,26.72,0,0,1-7,13.64,39.75,39.75,0,0,0-9.11,15.67l-1.61,5.45-15.49-2.9v-3.14a6.82,6.82,0,0,0-3.89-6.2c-7.19-3.26-10.1-10-10.78-17.74-.12-1.29-1.7-1.57-1.7-2.9s1.61-4.09,1.74-5.61S949.06,454.82,949.3,453.25Z"/><path class="cls-14" d="M1002.47,462.84a1,1,0,0,1-.08.3,43.24,43.24,0,0,1-6.82,15.73c-3.32,4.79-6.43,7.49-9.66,8.74a11,11,0,0,1-2.3.72h0a23.42,23.42,0,0,1-10.92-1.11c-7-2-8.49-10.83-8.18-18.9.14-5.7-2.52-11.9-8.1-14.22-.78-.33-1.49-.64-2.14-.94l-1.83-.92a5.07,5.07,0,0,1-.64-.37l-.52-.27a16.06,16.06,0,0,1-3-2.19h0c-7.09-2.73-10-14.29-5.63-21.3,2.05-3.23,5.66-5.45,11.17-5.45a10.07,10.07,0,0,1,5.87,2.56,8.88,8.88,0,0,0,6.82,1.5,38.37,38.37,0,0,1,7.72-.61c9.91.37,25.5,7.2,28.49,22.71A36.54,36.54,0,0,1,1002.47,462.84Z"/><path class="cls-14" d="M1022,480.26v.08a.33.33,0,0,0,0,.14c-2.73,10.43-9.92,17.14-22.37,14.52-19.1-4-2.06-53.19-8.39-51.5a10.92,10.92,0,0,1-6.05-.08,12,12,0,0,1-8.35-8.72,14.19,14.19,0,0,1,.33-6.91c1.44-5.46,5.31-10.75,9.8-11C1012.74,415.51,1028.05,457,1022,480.26Z"/><path class="cls-15" d="M1021.94,480.48c-2.73,10.43-9.92,17.14-22.37,14.52-19.1-4-2.06-53.19-8.39-51.5a11,11,0,0,1-6.06-.08,12,12,0,0,1-8.35-8.72c-.49-2,1.53-.6,4.4,1.61,6.42,5,8.18,2.91,10.42,2.09s6.19,5.45,5.37,21.13-.71,18.91.82,22.52C1001.53,490.91,1018,493.75,1021.94,480.48Z"/><path class="cls-16" d="M975.37,435.07a13.32,13.32,0,0,0,16,10l.22-.05a1.55,1.55,0,0,0,1.07-1.87V443h0a23.36,23.36,0,0,1-6.55-.94.45.45,0,0,0-.23,0,9.43,9.43,0,0,1-2-.77l-.75-.37a1.58,1.58,0,0,1-.39-.24,14.2,14.2,0,0,1-6.24-7.39A1.49,1.49,0,0,0,975.37,435.07Z"/><path class="cls-14" d="M958.17,796.54v1.9a2.43,2.43,0,0,1-1.67,2.17c-1.36.52-3.65,1.36-6.16,2.32-9.55,3.75-8,7.61-4.46,7.64l19,.2a1.85,1.85,0,0,0,1.78-1.21,7.81,7.81,0,0,0-1.37-8.34,2.64,2.64,0,0,1-.65-2.4l.3-1.94Z"/><path class="cls-14" d="M1003.13,806.23c10.09-4.67,15-7,17.3-8a2,2,0,0,0,1.1-1.9,7.68,7.68,0,0,0-4.72-6.94,2.41,2.41,0,0,1-1.37-1.36,2.41,2.41,0,0,0-.12-.48v-.22l-.33-1.79-1,.44-3.57,1.47-2,.85.62,1.36.13.32a2.37,2.37,0,0,1-.46,2.66c-1.09,1.06-2.73,2.79-4.65,4.76C996.89,804.91,999.92,807.71,1003.13,806.23Z"/><path class="cls-17" d="M1017.8,788.11l-10.27,4.41-31-58.47-10.91-25.32a59.77,59.77,0,0,1-3.84-10.29c-1.53-14.15.88-24.93,1.68-39.48.93-16.13,1.12-38.88,1.15-53.85A10.57,10.57,0,0,1,975,594.34a10.28,10.28,0,0,1,3.84.65,71,71,0,0,0,10.62,2.72c8.39,1.65,17.35,2.95,18.36,5.06,12.66,26.48-15,87.59-15,87.59a11,11,0,0,0,.59,12.09,121.51,121.51,0,0,1,13.34,22.89C1014.05,742.13,1017.8,788.11,1017.8,788.11Z"/><path class="cls-18" d="M989,639.74c-2.73,9.16-16.85,37.3-12.16,60,1.07,5,1.61,18.12,1.51,33.19l-12.83-24.21a59.73,59.73,0,0,1-3.83-10.29c-1.53-14.15.87-24.93,1.68-39.48.93-16.13,1.12-38.88,1.14-53.85C964.58,597.56,994.55,621.05,989,639.74Z"/><path class="cls-19" d="M936.86,610.93h0c.22-10.43,2.5-16.22,2.5-16.22,34.1-2.89,41.26-2.38,41.26-2.38.79,1.28,16.09,21.27,8.43,47.41-2.73,9.16-22.29,37.29-17.57,60,3.11,15,1.21,91.65-.31,99.75h-14l-15.61-94.94,1.37-.17-1.37.12A502.43,502.43,0,0,1,936.86,610.93Z"/><path class="cls-13" d="M878.22,456.33l-2-4.32c1.36,0-1.14-12-3-11.29-1.11.43-.56,4.73-.56,4.73s-2.47.31-5.53-6.17c-1.36-2.9-8.93.1-5.45,8,3.08,7.09,7.3,7.4,7.84,8.32s2.36,4.33,2.36,4.33Z"/><path class="cls-16" d="M866.15,454.49s13.07,26.31,30.23,40.17C907.9,504,929.26,519,945,523.53c.85,5.23-10.54,72.51-10,82.9,14.83,22.61,72.16,10.47,78.62,5.7,0,0-3.53-55.39-7.39-84.4-3.4-25.58-11.89-37-32.86-36.2v-.07l-.26.07H972c-.83,0-2.42.17-3.85.34a53.91,53.91,0,0,1-11.5.12c-3-.29-6.82-.79-11.62-1.62-19.2-4.18-47.66-12.8-67.87-40.92-.18-.21-.35-.45-.55-.7L874,450.11Z"/><path class="cls-20" d="M1008.87,551.56c-.68-6.82-1.37-13.13-2.13-18.57-3.4-25.59-11.89-37-32.84-36.21h-1.41c-.82,0-2.4.17-3.83.34a55.26,55.26,0,0,1-11.5.12c-3-.29-6.82-.8-11.62-1.61-63.69-16.3-68.91-46.92-68.91-46.92.16.26.35.48.52.71,20.21,28.17,48.69,36.83,67.87,40.92,4.86.82,8.58,1.36,11.62,1.62a54.86,54.86,0,0,0,11.53-.11c1.36-.17,3-.28,3.83-.34h1.13l.25-.09v.09c21-.78,29.47,10.6,32.87,36.18C1007.15,534.56,1008.1,542.84,1008.87,551.56Z"/><path class="cls-9" d="M1013.64,612.12c-6.46,4.78-63.79,16.92-78.62-5.7-.57-10.37,10.82-77.64,10-82.88-15.72-4.56-37.09-19.6-48.61-28.88-17.16-13.84-30.23-40.17-30.23-40.17s20.46,25.43,35.25,37.43c10.46,8.43,30.69,19.23,46.1,24.55a6.56,6.56,0,0,1,4.28,6.95c-1.81,17.4-4.09,61.94-1.36,70.42,7.05,21.55,45.6,20.61,63.09,15.58C1013.56,611.15,1013.64,612.12,1013.64,612.12Z"/><path class="cls-15" d="M983.55,488.33a23.39,23.39,0,0,1-10.91-1.11c-7-2-8.5-10.83-8.18-18.9.13-5.7-2.53-11.9-8.11-14.22-.77-.33-1.48-.64-2.14-.94l-1.83-.92a5.89,5.89,0,0,1-.64-.37l-.51-.27a15.74,15.74,0,0,1-3-2.19h0c-7.09-2.73-10-14.29-5.63-21.3.54,1.93,1.74,5.92,4.26,8,12.39,10.3,21.83,13.11,22.07,22.55s-1.25,11.15-1.36,14.47,2.22,10,4.46,11.29S976.39,488.16,983.55,488.33Z"/><path class="cls-13" d="M445,273.41c-2.9,22.59-21,17.46-21,17.46l-.49,15-9.06-6.82.58-13.18s-19.37-30.74,3.36-41.79,22.76-3.14,22.76-3.14c1.24,2.84,3.95,11.2,3.32,18.06C448.14,270.38,448.44,272.47,445,273.41Z"/><path class="cls-13" d="M507.23,309.72a5.57,5.57,0,0,0-4.09-2.54c.39-3.26,3.56-6.64,3.09-7.73-.67-1.56-2.72,1.36-3.72,2.59a75.44,75.44,0,0,0-6.55,9.42h0a10.58,10.58,0,0,0-1.18,2.23,8,8,0,0,0,.86,7.7,5.44,5.44,0,0,0,5.19,2.05,12.5,12.5,0,0,0,7.48-5.84A7.17,7.17,0,0,0,507.23,309.72Z"/><path class="cls-21" d="M432.81,604.56v2a2.52,2.52,0,0,0,1.54,2.27c1.36.54,3.41,1.43,5.74,2.48,8.92,4,7.38,7.94,4.09,7.92l-17.81-.07a1.75,1.75,0,0,1-1.66-1.28,8.67,8.67,0,0,1,1.46-8.55,2.91,2.91,0,0,0,.64-2.47l-.26-2Z"/><path class="cls-21" d="M406.39,604.56v2a2.5,2.5,0,0,0,1.53,2.27c1.36.54,3.41,1.43,5.74,2.48,8.92,4,7.38,7.94,4.09,7.92l-17.81-.07a1.73,1.73,0,0,1-1.65-1.28,8.61,8.61,0,0,1,1.44-8.55,2.91,2.91,0,0,0,.64-2.47l-.26-2Z"/><path class="cls-17" d="M422.17,507.83l-1.28-.13,1.28.15-9.08,69.39L409.31,606H397.45s-8.34-51.43-6.69-70.29c1.12-13,6.82-22,6.64-27.21-.86-20.88-16.76-40.92-20.32-68.13-3.91-29.45,3.38-41.74,4.09-43.09,0,0,1.36,3.3,19,1.27.68-.09,1.37-.18,2.18-.26,5.23-.69,11.71-1.81,19.78-3.5a29.81,29.81,0,0,1,.94,3.32,71.22,71.22,0,0,1,1.71,13.33A570.1,570.1,0,0,1,422.17,507.83Z"/><path class="cls-18" d="M422.17,507.83l-1.28-.13,1.28.15-9.08,69.39c-1.87-15.15-3.5-32.34-2.73-41.58,1.14-13,6.82-22,6.64-27.21-.87-20.88-10.5-36.69-14.06-63.85-3.32-25.27,2.37-39.78,4.28-43.71.31-.66,2.73-1.05,15.81-2.83a70.39,70.39,0,0,1,1.7,13.33A569,569,0,0,1,422.17,507.83Z"/><path class="cls-19" d="M450.05,411.38h0c-.41-10.74-2.65-16.64-2.65-16.64-38.73,8.18-40.92,2.49-40.92,2.49-.72,1.37-8,13.64-4.09,43.1,3.58,27.16,17.3,48.19,18.14,69.06.22,5.2-3.31,13.29-4.46,26.29-1.63,18.85,6.82,70.93,6.82,70.93l11.76-.71C444.48,539.78,453.68,497.62,450.05,411.38Z"/><path class="cls-12" d="M374.35,405.55c-9.8,17,80.47,20.63,77.23,4.29-7.25-36.11,0-105.59-19.56-111.36-.73-.22-17.28-1.91-28.48,1.27-6.11,1.73-12.09,5.19-15.66,11-2.73,4.37-3.9,9.63-4.82,14.83-3,17.34-.65,33-2.29,50.59S379.83,396,374.35,405.55Z"/><path class="cls-18" d="M451.59,411.17c-1.62,14.84-86.83,10.91-77.28-5.59,5.45-9.55,4.76-11.8,6.41-29.37S380,343,383,325.62c.91-5.18,2.11-10.46,4.81-14.81,3.56-5.81,9.55-9.28,15.65-11a39.84,39.84,0,0,1,4.85-1,22.81,22.81,0,0,0-3,3.81c-2.73,4.36-3.89,9.63-4.82,14.81-3.05,17.36-.65,33-2.29,50.59s-.94,19.86-6.44,29.39C385.06,409.15,426.79,414.51,451.59,411.17Z"/><path class="cls-12" d="M493.47,313.93c.72-1,1.95-.82,3-.39,4,1.51,8.19,6.45,8.19,8.51a7.06,7.06,0,0,1-1.2,3.16c-10.21,17.56-25.16,44.17-39.56,44-19.53-.29-37.81-28.64-37.39-37.73.29-6.27,2-20.46,1.9-26.75,0-2-3.6-7.17-1-7,14,.79,20.69,22.45,25.66,32.4A57.77,57.77,0,0,0,462,343.18C467.39,349.07,481.93,329.56,493.47,313.93Z"/><path class="cls-18" d="M461.25,348.73a59.2,59.2,0,0,1-8.94-13.12c-4.77-9.55-11.11-30-24.07-32.21-.81-2.34-2.86-5.86-.74-5.75,14,.77,20.69,22.43,25.66,32.4a57.24,57.24,0,0,0,8.93,13.13c5.3,5.89,19.82-13.64,31.38-29.26.73-1,1.93-.81,3-.37C487.66,326.93,466.6,354.61,461.25,348.73Z"/><path class="cls-18" d="M504.69,322.06a6.54,6.54,0,0,1-1.2,3.15c-10.2,17.56-25.14,44.18-39.49,44-15.26-.23-29.77-17.64-35.17-29.54,13.73,17.48,22.58,24.45,35.16,24.85,13.89.45,38.19-40.46,39.72-44.86A4.59,4.59,0,0,1,504.69,322.06Z"/><path class="cls-22" d="M432,271a28.92,28.92,0,0,0-2.73,21.4c1.37,5.46,4.44,10.23,5.62,15.7a24.46,24.46,0,0,1-4.09,19.25c-3.15,4.18-7.56,6.82-11.38,10.31s-7.29,8.18-7.09,13.76c.15,4.61,2.73,8.83,2.65,13.37A12.28,12.28,0,0,1,404.06,376a15.69,15.69,0,0,1-4.22-.15c-3.87-.69-8.58,3.69-12,1.36-4.91-3.26-14.41-.14-20.57-14-1.83-4.09-2.89-9.13-1.77-13.23a9.05,9.05,0,0,1,2.36-4.29c11.6-11.9,3.82-14.56,7.48-34.55,3.95-21.47,13.36-24,13.09-38-1.26-62.54,49.66-57.73,56.76-29.33a26.56,26.56,0,0,1,.66,3.94c.41,4.1-4.8,10.23-7,13.56S434,267.52,432,271Z"/><path class="cls-23" d="M414.59,361.25a14.36,14.36,0,0,1,.35,3.52A12.28,12.28,0,0,1,404,376a15.69,15.69,0,0,1-4.22-.15c-3.87-.69-8.58,3.69-12,1.36-4.91-3.26-14.4-.14-20.57-14-1.83-4.09-2.89-9.13-1.77-13.23a9.14,9.14,0,0,1,2.36-4.29c11.61-11.9,3.82-14.56,7.49-34.55,3.94-21.47,13.35-24,13.08-38-.49-24,6.71-38.1,16.2-44.71-3.18,7.47-11.44,16.1-11.18,28.64.28,14-.1,24.1-8.08,41.9-8.18,18.24,2.88,27.75-5,37.14-19,22.78-8.85,25.59,9.55,31.49C399.84,370.77,413.47,361.33,414.59,361.25Z"/><path class="cls-8" d="M248.24,838.85l-5.09,36.66a2.14,2.14,0,0,1-2.09,1.91H204.22a2.15,2.15,0,0,1-2.1-1.91L197,838.85Z"/><path class="cls-24" d="M200.82,784.12c-2-7.53.42-13.4,3-20.08a41.47,41.47,0,0,0,2-20.79c-1.34-9.54-4.34-18.74-.88-28,3.24-8.73,6.38-20.23,15.33-23.91,8.7-3.91,15.29,5.13,15.14,13.47s-4.63,15.85-2.4,24.09c1.71,6.77,4,14.72.61,21.18-4,8-11.43,13.63-8.64,23.33,1.09,3.49,2.89,6.44,3.26,10,.45,5.27-2.08,6.58-4.36,10.8-9.58,17.76,8,24.92,1.09,44.41a1.27,1.27,0,0,1-1.25.87h0a1.27,1.27,0,0,1-1.18-1.15c-2.19-21.83-16.93-14.3-17.08-32,0-3.29.93-6.6.56-9.87C205.65,791.46,202,788.84,200.82,784.12Z"/><g class="cls-25"><path class="cls-26" d="M223.55,694.39c-4,7.43-7.62,15-6.29,23.65.69,4.51,2.26,8.93,2.42,13.54a22.48,22.48,0,0,1-1.36,7.53,11.67,11.67,0,0,0-.65,5.4c.31,1.8,1.21,3.42,1.67,5.18a19.64,19.64,0,0,1,.17,7.6c-.58,4.11-1.81,8.13-2,12.3a20.15,20.15,0,0,0,.38,5.08c.62,3,.9,5.42-.27,8.35-1.56,3.92-3.45,7.37-3.89,11.65-1.05,10,3.23,19.44,7.4,28.28.21.45.55.07.38-.29-4-8.46-8.16-17.43-7.39-27,.36-4.52,2.26-8,3.92-12.16a12,12,0,0,0,1-5c-.08-2.14-.9-4.16-1.05-6.3-.56-7.7,3.85-15.25,1.71-22.93-.61-2.2-1.81-4.22-1.64-6.6.15-2.21,1.2-4.26,1.69-6.4.85-3.71.25-7.53-.54-11.15-1.12-5.18-2.43-10.21-1.37-15.54s3.58-10,6.08-14.58c.13-.24-.18-.91-.35-.6Z"/></g><path class="cls-27" d="M178.29,780.22c4.3-8.32,4.29-13.83,3.83-22.7-.48-9.08,2.15-21.19,12.67-23.21,7.9-1.51,14.3,1.86,17.25,8.44,4.84,10.83,1,18.17-3.13,26.34C205.5,775.78,207.71,782,207,789s-6.69,10.34-1.67,17.66c2.15,3,5,3.53,7.18,6.06,2.15,2.77,2.1,7.12,2.86,10.33,1.93,8.14,9.48,7,9.79,15.22,0,.62-.45,1.23-.86,1.21s-.75.06-1-.49c-1.78-3.31-4.7-2.8-8-4.33-2.44-1.14-3.19-4.3-9-5-7.63-1-14.59,4.28-18.41-6.57-1.44-3.76-1-7.06-1.68-10.84-.72-5.05-3.83-8.07-6.94-11.6C173.75,794.09,174.46,787.53,178.29,780.22Z"/><path class="cls-28" d="M238.8,679.68c0,.92-.66,1.82-1.28,1.8h-.08c-1.92-1.51.5-3.68-2.4-10.83A12.57,12.57,0,0,1,238.8,679.68Z"/><g class="cls-25"><path class="cls-26" d="M194,737.77c3.8,6.35,4.7,13.89,3.93,21.15-.71,6.77-3.82,13.49-3,20.32.5,3.92,2.26,7.38,1.86,11.42-.33,3.34-1.51,6.57-1.57,9.94a12.73,12.73,0,0,0,2.11,7.26c.81,1.29,1.75,2.49,2.55,3.76.92,1.51,1.44,3.16,2.26,4.72,1.55,3.09,4.84,4.87,7.28,7.18a54.46,54.46,0,0,1,7.94,9.53c.27.42.47-.19.3-.45a56.9,56.9,0,0,0-6-7.63c-2.33-2.46-5.13-4.33-7.53-6.69-1.47-1.46-2.06-3.31-2.9-5.14a23.88,23.88,0,0,0-2.26-3.76A24.4,24.4,0,0,1,196.4,805a12.54,12.54,0,0,1-.49-6.65c.46-3.15,1.45-6.24,1.44-9.45,0-3.6-1.74-6.87-2-10.44-.34-4.18.88-8.27,1.82-12.32a54.92,54.92,0,0,0,1.42-9.54c.35-6.74-.8-13.55-4.3-19.39-.25-.42-.46.18-.29.46Z"/></g><path class="cls-29" d="M223.71,818.35c2.37-5.37.14-12.29,2.47-16.21,2.85-4.91,7.63-1.18,13.18-7.92,4.65-5.66,1.3-13.5,11.89-19.34,3.24-1.79,7-.91,8.28,2.94,1.51,3.61-.88,8.79-2,12.27-1.1,3-2.38,5.16-1.84,8.44v.11c.61,2.52,2.2,3.87,1.35,6.83-1.73,7.25-11.51,6.58-16.39,11.1-3.45,3.17-.34,7-3.72,11.78s-5.08-.41-11.12,10.87a.76.76,0,0,1-1,.37l-.09-.05h0a.86.86,0,0,1-.4-.8C225.22,826.53,220.23,826.27,223.71,818.35Z"/><g class="cls-25"><path class="cls-26" d="M226.09,832.07c2.08-5.16.52-11.77,4.13-16.31,1.51-1.91,4.14-2.45,5.57-4.41s1.1-4.59,2.47-6.52,4-2.44,5.35-4.52a16.76,16.76,0,0,0,1.93-5.58c1.26-5.75,3.17-10.72,7.75-14.67.22-.19,0-.89-.26-.68a23.11,23.11,0,0,0-7.48,12.85c-.52,2.36-.86,4.9-2.06,7a7.67,7.67,0,0,1-2.86,2.85,8.19,8.19,0,0,0-2.75,2.13c-1.46,2.1-1,5-2.82,6.9s-4.09,2.39-5.54,4.46c-3.24,4.66-1.82,10.93-3.87,16-.11.27.24.87.42.46Z"/></g><polygon class="cls-9" points="197.84 844.69 247.44 844.69 248.24 838.85 197.04 838.85 197.84 844.69"/><rect class="cls-8" x="194.11" y="835.51" width="57.06" height="6.01" rx="1.65" ry="1.65"/><path class="cls-30" d="M1367.48,796.26H1062c-13.1,0-23.71-11.87-23.71-26.52V741.42c0-14.64,10.61-26.51,23.71-26.51h305.44c13.08,0-15.37,11.06-15.37,40.67S1380.56,796.26,1367.48,796.26Z"/><path class="cls-30" d="M1357.29,734.77l-61.38,72.9-11.68-72.9H1061.9c-13.07,0-23.69,11.88-23.69,26.54V741.42c0-14.63,10.62-26.51,23.69-26.51h305.46C1376.86,714.91,1364.85,720.6,1357.29,734.77Z"/><path class="cls-19" d="M1368.57,810.82H1069.48c-25.09,0-45.51-24.27-45.51-54.11s20.46-54.09,45.51-54.09h299.14c4.93,0,8.92,4.75,8.92,10.6s-4,10.6-8.92,10.6H1069.48c-15.26,0-27.67,14.75-27.67,32.89s12.41,32.92,27.67,32.92h299.14c4.93,0,8.92,4.75,8.92,10.6S1373.49,810.82,1368.57,810.82Z"/><path class="cls-18" d="M1377,796.58a11.88,11.88,0,0,1,.54,3.59c0,5.84-4,10.6-8.94,10.6H1069.48c-25.09,0-45.5-24.27-45.5-54.12,0-1.2,0-2.38.11-3.55,1.54,28.17,21.29,50.47,45.39,50.47h299.13C1372.44,803.61,1375.73,800.69,1377,796.58Zm-307.48-72.82h299.13c5,0,9-4.76,9-10.6a11.9,11.9,0,0,0-.55-3.59c-1.23,4.1-4.51,7-8.4,7H1069.48c-15.26,0-27.67,14.76-27.67,32.91a28.5,28.5,0,0,0,.15,3.59C1043.4,736.62,1055.16,723.76,1069.48,723.76Z"/><polygon class="cls-30" points="1235.54 780.72 1222.02 770.7 1208.5 780.72 1208.5 748.3 1235.54 748.3 1235.54 780.72"/><polygon class="cls-12" points="1235.54 777.86 1222.02 767.83 1208.5 777.86 1208.5 745.43 1235.54 745.43 1235.54 777.86"/><path class="cls-30" d="M585.92,702.05H280.49a23.62,23.62,0,0,1-23.71-23.52h0V653.39a23.62,23.62,0,0,1,23.7-23.53H585.92c13.09,0-15.36,9.82-15.36,36.09S599,702.05,585.92,702.05Z"/><path class="cls-30" d="M576.06,647.14H283a23.6,23.6,0,0,0-23.69,23.47V689a23.37,23.37,0,0,1-2.47-10.44V653.39a23.61,23.61,0,0,1,23.69-23.53H585.92C595.21,629.86,583.59,634.87,576.06,647.14Z"/><path class="cls-19" d="M587,714.91H287.91c-25.1,0-45.52-21.53-45.52-48s20.46-48,45.52-48H587a9.43,9.43,0,0,1,0,18.81H287.91c-15.26,0-27.69,13.09-27.69,29.19s12.43,29.2,27.69,29.2H587a9.41,9.41,0,0,1,0,18.8Z"/><path class="cls-18" d="M595.48,702.55a9.34,9.34,0,0,1,.46,3,9.18,9.18,0,0,1-8.93,9.4H287.91c-25.11,0-45.52-21.53-45.52-48,0-1,0-2,.09-2.95,1.47,25.1,21.27,45,45.43,45H587A8.94,8.94,0,0,0,595.48,702.55ZM287.91,637.72H587a9.18,9.18,0,0,0,8.93-9.4,10,10,0,0,0-.46-3,9,9,0,0,1-8.47,6.44H287.91c-15.28,0-27.69,13.09-27.69,29.2a20.68,20.68,0,0,0,.14,3C261.78,649.23,273.56,637.72,287.91,637.72Z"/><polygon class="cls-30" points="560.47 689.95 546.96 679.74 533.45 689.95 533.45 656.95 560.47 656.95 560.47 689.95"/><polygon class="cls-13" points="560.47 685.72 546.96 676.81 533.45 685.72 533.45 656.95 560.47 656.95 560.47 685.72"/><path class="cls-30" d="M260.22,797.89H565.66a23.61,23.61,0,0,0,23.7-23.52h0V749.25a23.62,23.62,0,0,0-23.7-23.53H260.22c-13.08,0,15.36,9.81,15.36,36.08S247.14,797.89,260.22,797.89Z"/><path class="cls-30" d="M579,749.24v15.51a23.2,23.2,0,0,0-22.89-23.49H268.61c-7.26-11-17.08-15.49-8.5-15.49H556A23.25,23.25,0,0,1,579,749.24Z"/><path class="cls-8" d="M251.29,810.82H550.41c25.1,0,45.52-21.53,45.52-48s-20.46-48-45.52-48H251.29a9.41,9.41,0,0,0,0,18.81H550.41c15.27,0,27.69,13.09,27.69,29.19S565.68,792,550.41,792H251.29a9.41,9.41,0,0,0,0,18.8Z"/><path class="cls-9" d="M242.37,724.18a9.28,9.28,0,0,1,.65-3.49,8.91,8.91,0,0,0,8.27,5.91H550.41c15.27,0,27.69,13.08,27.69,29.16a27.61,27.61,0,0,1-.22,3.52c-1.63-14.47-13.31-25.7-27.47-25.7H251.29A9.17,9.17,0,0,1,242.37,724.18Zm353.44,35.1c-1.71,24.84-21.4,44.49-45.4,44.49H251.29a8.9,8.9,0,0,1-8.27-5.9,9.29,9.29,0,0,0-.65,3.5,9.17,9.17,0,0,0,8.92,9.39H550.41c25.1,0,45.53-21.51,45.53-48,0-1.17,0-2.35-.13-3.49Z"/><polygon class="cls-30" points="402.25 784.45 388.74 775.54 375.23 784.45 375.23 755.68 402.25 755.68 402.25 784.45"/><polygon class="cls-19" points="402.25 781.58 388.74 772.67 375.23 781.58 375.23 752.81 402.25 752.81 402.25 781.58"/><path class="cls-21" d="M233.27,702.84c-3.33,11.1-19.18,24.19-14,26,8.31,2.92,20.76-7,25.92-11.61s8.56-1.61,4.16-13.24C243.64,689,233.27,702.84,233.27,702.84Z"/><path class="cls-8" d="M347.23,587.13s-7.42,29.5-30.48,29.77c-14,.17-61.93,3.17-80.68,1.08,7.55,10.66,7.61,50.27,9.54,80.23l-15,5.68s-19.9-73.74-21.81-81.75c-6.47-27.82,6.08-26.46,20.85-32.82l70.54-17.93,36.2,10.28Z"/><path class="cls-21" d="M290.4,663.9c-2.72,9.09-13.19,26.56-8.94,28.06,6.8,2.39,12.46-8.3,16.62-12.11s7.34-9.91,5.46-15C299,652.49,290.4,663.9,290.4,663.9Z"/><path class="cls-21" d="M277.63,579.53l-.21-.26a5.62,5.62,0,0,0-5.59-2.09l-49.9,10.37-30.7-55.24c-2-3.57-6.41-2.73-4.09,2s30.36,58.16,30.36,58.16a2,2,0,0,0,2.29,1.08Z"/><path class="cls-13" d="M276.52,467.85c9.41,15.22,24.17,9.22,24.17,9.22l5.29,14,10.21-11.13L311.59,467s11.59-37.49-16.22-40.45S266.44,433,266.44,433c-.49,3.35-.31,10.58,3.77,22.11-.32,7.49,1,13.46,2,14.13C273.82,470.25,276.52,467.85,276.52,467.85Z"/><path class="cls-31" d="M270.94,559.85l-7.58,1.36a13.56,13.56,0,0,1-3.6-.07c-15.85-1.07-24.88,11.07-24.88,11.07s-1.16,1.36-.34,2.45,2.73-.37,2.73-.37l7.63-4.39a2.72,2.72,0,0,0,2.73,1.43c2.81-.06,6.43-2.29,7.89-2.48h.32l2.54.81a16,16,0,0,0,7.87.5l5.77-1Z"/><path class="cls-32" d="M315.26,558.2c-14.81,18.34-49.1,18.62-49.1,18.62l-5.75-15.92c4.61-1.49,10.06-1,38.84-12.48,6.35-11.6,6.9-47.37,7-53.1.25-13.15,18.08-16,20.3-1.8C330.45,518.51,325,546.09,315.26,558.2Z"/><path class="cls-16" d="M347.08,589s-7.42,29.5-30.52,29.77c-14,.18-70.93,2-71.47,7.64-.08,41.13-3.92,69.05-12.42,99.15l-18.21-2.92s1.36-87.76,1.36-96c0-15.1-1.1-29.09,13.64-35.46l70.47-17.94,36.21,10.28Z"/><path class="cls-31" d="M258,570.21l-7.92,5.65a2.64,2.64,0,0,0,3.19,1.93l.11,0c2.73-.52,6-3.29,7.45-3.7a26.87,26.87,0,0,1,5.45-.29c.89,0-1.36-4.37-1.36-4.37l-5.09-.79Z"/><path class="cls-13" d="M274.79,562.69l-7.34,2.61a14.29,14.29,0,0,1-3.56.5c-15.84,1.36-23,14.84-23,14.84s-.94,1.54,0,2.48,2.73-.81,2.73-.81l8.36-6.67a9,9,0,0,1,7-2l4.82.75a16.11,16.11,0,0,0,7.85-.74l5.57-1.94Z"/><path class="cls-33" d="M318.63,460.62c-2.07,3.26-4.54,7.27-7.14,7-2.85-.31-6.47-8-6.82-12.05,2.73-4.1,1.23-17.53-5.77-13.45-2,1.14-1.28,6.37-1.28,6.37s-2.52-6.39-6.59-8.73c-2.44-1.43-7-1.12-16.77,4.92-10,6.21-23-1.85-20-15.36,1.77-8.1,14-10.25,18.81-13.12,6.82-4.09,14.87-7.34,25.15-6.18C320.81,412.54,334.71,435.34,318.63,460.62Z"/><path class="cls-14" d="M345.87,607.72c-14.13,5.88-53.29-13.73-63-25.71a10.36,10.36,0,0,1-2.05-3.42c3.85-4.41,6.74-10.48,9-17.46,8.18-25.27,8.18-62.92,13.94-80.2,2.44-7.4,9.82-10.07,12.83-8.32C372.87,505,345.87,607.72,345.87,607.72Z"/><path class="cls-15" d="M345.87,607.72c-9.37,3.89-29.75-3.39-45.22-12.27,8.8,4.31,18.26,7.76,26.05,8.91a12.28,12.28,0,0,0,13.64-10.26c4.87-25.18,13.64-93.26-25.91-122a4.49,4.49,0,0,1,2.13.48C372.87,505,345.87,607.72,345.87,607.72Z"/><path class="cls-15" d="M324.59,563.94c-10.53,13-30.85,16.93-41.74,18.09a10.41,10.41,0,0,1-2.05-3.43c3.85-4.4,6.74-10.47,9-17.46,4.83-1.63,10.91-3.86,18.78-7,6.37-11.58.34-49.91.46-55.65.24-13.15,16.18-14.29,18.4-.14C331.37,523.35,334.36,551.8,324.59,563.94Z"/><path class="cls-14" d="M322,561.21c-14.8,18.33-49.1,18.61-49.1,18.61l-5.72-15.88c4.6-1.5,10.05-1,38.82-12.49,6.36-11.6.34-49.91.45-55.66.25-13.13,18.07-16,20.28-1.8C330.66,518.93,331.79,549.09,322,561.21Z"/><path class="cls-34" d="M306.9,553.22c-5.94,4.58-29.48,12.1-38.29,14.19l4.49,12.41h-.19l-5.72-15.88c4.58-1.5,10.05-1,38.82-12.48,6.37-11.59.34-49.92.47-55.67C306.48,495.74,315.49,546.59,306.9,553.22Z"/><path class="cls-9" d="M318.63,460.6c-2.07,3.26-4.54,7.29-7.12,7-2.87-.32-6.51-8-6.82-12.07,2.73-4.09,1.24-17.52-5.76-13.43-1.83,1.05-1.36,5.56-1.36,6.27-.29-.71-2.73-6.44-6.59-8.65-2.41-1.44-7-1.11-16.76,4.93a13.22,13.22,0,0,1-19.69-6.75c7,1,17.8-1.44,24.08-4.55,8.69-4.26,14.08,2.27,18.93,1.45s12.92-.41,16.37,3.67c2.39,2.81,8.55,1.64,11.58-1.24C325.93,444.33,323.89,452.34,318.63,460.6Z"/><polygon class="cls-16" points="653.93 705.62 619.42 708.51 609.28 573.94 643.78 571.05 653.93 705.62"/><polygon class="cls-16" points="653.93 705.62 619.42 708.51 609.28 573.94 643.78 571.05 653.93 705.62"/><polygon class="cls-9" points="627.38 707.84 619.42 708.51 609.28 573.94 617.25 573.28 627.38 707.84"/><polygon class="cls-20" points="653.93 705.62 645.18 706.36 635.05 571.78 643.78 571.05 653.93 705.62"/><polygon class="cls-30" points="643.77 571.05 609.26 573.94 617.39 554.31 623.95 538.49 632.81 553.01 643.77 571.05"/><polygon class="cls-22" points="632.81 553.01 617.39 554.31 623.95 538.49 632.81 553.01"/><path class="cls-19" d="M738.63,453.14,737.19,465l-1.37,10.91L728,540l-19.1,155.4-2.55,20.7-.22,1.75L705,726.79a5.36,5.36,0,0,1-5.85,4.82h-.07L651,725a5.56,5.56,0,0,1-4.57-6.27l6.69-54.49,14.35-117L680,445.14a5.34,5.34,0,0,1,5.82-4.83H686l48,6.53a5.47,5.47,0,0,1,4.66,6.16A.59.59,0,0,1,738.63,453.14Z"/><path class="cls-3" d="M716.59,620.42l-18.51-2.52a1.26,1.26,0,0,0-1.36,1.12,1.34,1.34,0,0,0,1.06,1.44L716.29,623h.16a1.24,1.24,0,0,0,1.22-1.12A1.39,1.39,0,0,0,716.59,620.42Z"/><path class="cls-3" d="M712.65,652.6l-18.53-2.52a1.23,1.23,0,0,0-1.36,1.08v0a1.28,1.28,0,0,0,1,1.44l18.52,2.52h.15A1.24,1.24,0,0,0,713.7,654,1.27,1.27,0,0,0,712.65,652.6Z"/><path class="cls-3" d="M708.69,684.79l-18.51-2.54a1.26,1.26,0,0,0-1.36,1.12,1.37,1.37,0,0,0,1.06,1.45l18.53,2.52h.15a1.25,1.25,0,0,0,1.21-1.12A1.27,1.27,0,0,0,708.69,684.79Z"/><path class="cls-3" d="M704.75,717l-18.55-2.53a1.24,1.24,0,0,0-1.36,1.08v0a1.27,1.27,0,0,0,1,1.45l18.52,2.53h.16a1.22,1.22,0,0,0,1.2-1.12A1.25,1.25,0,0,0,704.75,717Z"/><path class="cls-3" d="M724.49,556.06,706,553.53a1.24,1.24,0,0,0-1.36,1.11h0a1.29,1.29,0,0,0,1,1.45l18.52,2.52h.22a1.27,1.27,0,0,0,1.22-1.13A1.37,1.37,0,0,0,724.49,556.06Z"/><path class="cls-3" d="M736.33,459.53,717.82,457a1.26,1.26,0,0,0-1.37,1.12,1.36,1.36,0,0,0,1.07,1.44L736,462.08h.16A1.25,1.25,0,0,0,737.4,461,1.27,1.27,0,0,0,736.33,459.53Z"/><path class="cls-3" d="M720.55,588.25,702,585.76a1.24,1.24,0,0,0-1.36,1.08v0a1.27,1.27,0,0,0,1.05,1.45l18.59,2.48h.15a1.23,1.23,0,0,0,1.21-1.12,1.28,1.28,0,0,0-1.11-1.43Z"/><path class="cls-3" d="M732.38,491.65l-18.52-2.53a1.24,1.24,0,0,0-1.36,1.08v0a1.28,1.28,0,0,0,1,1.45l18.52,2.52h.16a1.23,1.23,0,0,0,1.21-1.12A1.27,1.27,0,0,0,732.38,491.65Z"/><path class="cls-3" d="M728.48,523.88,710,521.36a1.23,1.23,0,0,0-1.36,1.1,1.29,1.29,0,0,0,1.06,1.45l18.53,2.53h.15a1.23,1.23,0,0,0,1.21-1.11A1.28,1.28,0,0,0,728.48,523.88Z"/><path class="cls-35" d="M726.38,539.8a11.82,11.82,0,0,0-12.84,10.73c0,.06,0,.12,0,.18l-6,57.7a7.14,7.14,0,0,0,3,6.67l-8.88,85.26-.13,1.36,4.65,16.18.22-1.74,2.55-20.71L728,540Z"/><polygon class="cls-14" points="745.75 611.75 736.18 703.7 707.08 700.33 716.66 608.37 745.75 611.75"/><polygon class="cls-34" points="745.75 611.74 745.53 613.86 723.21 611.24 713.85 701.09 707.08 700.31 716.64 608.38 745.75 611.74"/><polygon class="cls-34" points="745.75 611.74 736.19 703.7 707.08 700.31 707.19 699.37 727.9 701.79 737.35 610.77 745.75 611.74"/><polygon class="cls-36" points="736.18 703.7 736.04 705.03 717.74 739.19 706.95 701.66 707.08 700.33 736.18 703.7"/><path class="cls-37" d="M740.28,618.71l-19.72-2.3a8.74,8.74,0,0,1-7.43-9.76l5.45-52.95a14.73,14.73,0,0,1,15.81-13.57l.23,0,7.53.88c8,.91,13.74,8.48,12.85,16.9l-5.46,52.93a8.53,8.53,0,0,1-9.17,7.85Z"/><path class="cls-38" d="M742.82,619H742l-23-2.73a7,7,0,0,1-5.95-7.85l6-57.7a11.8,11.8,0,0,1,12.58-10.94l.27,0,7,.8a11.92,11.92,0,0,0-11.58,10.91l-6,57.7a7,7,0,0,0,5.91,8h0Z"/><path class="cls-38" d="M755.4,554.9l-6,57.72a6.82,6.82,0,0,1-7.32,6.28H742l-23-2.73a3.5,3.5,0,0,1-.63-.12l13.18,1.52a6.81,6.81,0,0,0,7.41-6.17.34.34,0,0,1,0-.1l6-57.67a12.27,12.27,0,0,0-9.12-13.34l9.31,1.05A12.16,12.16,0,0,1,755.4,554.9Z"/><path class="cls-37" d="M755.87,615.66a7.17,7.17,0,0,1-6.33-4.54c-2.72-6.71,3.36-16.93,13.37-33,2.14-3.44,4.09-8.27,1.08-11.69-2.36-2.73-6.14-2.91-7.13-2a3,3,0,0,1-4.17,0,2.67,2.67,0,0,1-.43-.57,4.35,4.35,0,0,1,.64-5.45c4-3.68,11.35-2.55,15.71,2.43,1.79,2,7.08,9.68-.45,21.82-4.74,7.64-13.64,21.82-12.67,25.12a6.43,6.43,0,0,0,1.15.28h.47a3.92,3.92,0,0,1-.45,7.73Z"/><line class="cls-39" x1="721.09" y1="707.12" x2="717.74" y2="739.17"/><path class="cls-35" d="M710.59,701.1l-2.5,17-1.7-1.92L697,705.52l-28.53-97.75-1.09.16v102.3l-7.1,15.41-7.12-15.41V664.29l14.35-117h1a5,5,0,0,1,4.83,5.1v17.74a19.8,19.8,0,0,1,11.14,18,20.27,20.27,0,0,1-3.4,11.35L709,695.35Z"/><rect class="cls-14" x="663.52" y="547.33" width="15.18" height="33.31" rx="6.18" ry="6.18"/><polygon class="cls-8" points="672.86 710.22 665.77 725.62 658.66 710.22 658.66 591.89 672.86 591.89 672.86 710.22"/><polygon class="cls-16" points="716.03 701.09 713.53 718.02 702.45 705.5 669.46 592.39 683.05 587.99 716.03 701.09"/><ellipse class="cls-14" cx="671.1" cy="588.26" rx="18.74" ry="19.76"/><path class="cls-15" d="M678.34,588.26a7.24,7.24,0,1,1-7.24-7.62A7.44,7.44,0,0,1,678.34,588.26Z"/><path class="cls-24" d="M721.88,810.82H629.39c-6.6,0-12.51-5.7-13.19-12.88L602.72,656.08c-.2-2.16,1-3.92,2.61-3.92H745.94c1.64,0,2.81,1.76,2.61,3.92L735.07,797.94C734.39,805.06,728.48,810.82,721.88,810.82Z"/><path class="cls-40" d="M602.72,656,616.2,797.83c.68,7.18,6.57,12.89,13.2,12.89h92.48c6.6,0,12.5-5.71,13.18-12.89l1.09-11.41C641.5,797.46,605.33,652,605.33,652,603.68,652.06,602.53,653.83,602.72,656Z"/><path class="cls-41" d="M776.05,210.47c-9.77,0-17.74,8.38-17.74,18.69A19.34,19.34,0,0,0,761.62,240l-9.33,10.74,5,4.83,9.24-10.64a17,17,0,0,0,9.55,2.94c9.78,0,17.73-8.39,17.73-18.69S785.77,210.47,776.05,210.47Zm0,30.22a11.54,11.54,0,1,1,10.89-12.15c0,.2,0,.41,0,.62a11.26,11.26,0,0,1-10.91,11.51Zm52.29-16.77c-.54-.88-1.06-1.77-1.55-2.64-5.06,1.69-10.83,1.55-12.69-2.9s1.37-9.54,5.74-12.27l-.5-1.28c12.73-4,35.82-14.76,23.72-22-3.29-2-10.41-3.08-19.26-3.7-24.92.77-65.47.3-69.14,0a27.4,27.4,0,0,0-6.06,3.64c-2.73,1.95-28.07,15.55-24.73,38.2,2.12,14.33,10.11,23.43,21.92,29.35,6.22,1,15.93,8.51,12.84,15-2.73,5.83-12.56,5-17.2.36-.36,1.14-.71,2.37-1.07,3.75-10-4-43.45-22.33-37.76-61.07,4.56-31.08,37.63-54.67,78.48-54.56,56.29.26,79.59,13.16,87.54,27.42C875.14,193,864.32,213.39,828.34,223.92Z"/><path class="cls-13" d="M750.51,246.77c6.13.38,16.93,8.32,13.64,15.15s-16.23,4.48-19.09-2.37S750.51,246.77,750.51,246.77Z"/><path class="cls-13" d="M839.36,213c-4.18,4.72-16.88,8.4-19.8,1.36s7.13-16,14-13.93S839.36,213,839.36,213Z"/><path class="cls-22" d="M842.58,105.72c-2.19,4.68-5.81,8.48-9.48,10-8.77,3.65-22.08-1.37-44-6.48-1.64-.41-2.89,10-5.15,11.65-.92.62-2.17-3.74-2.87-4,0,0-7.41,2.39-2.15,13.89-.7-.3-11.35-5.68-11.84-20.46a36.58,36.58,0,0,1,1.16-10.57c3.42-14,14.88-13,28.16-19,14.61-6.56,26.14-6.19,34.1-2.91C846,84.23,846.89,96.67,842.58,105.72Z"/><path class="cls-14" d="M877.42,175.58c-8-14.25-31.56-27.16-88.43-27.41-41.29-.18-74.68,23.4-79.29,54.47-5.74,38.75,28.09,57.06,38.19,61.08,2.25-8.59,4.3-12.27,9.05-17.5-13.89-5.85-23.35-15.27-25.7-31-3.37-22.63,22.25-36.21,25-38.19a27,27,0,0,1,6.12-3.64c3.73.31,44.67.77,69.85,0,8.94.61,16.13,1.73,19.45,3.69,12.28,7.23-11.1,18-23.95,22a111.76,111.76,0,0,0,9.09,19.1C873.07,207.59,884,187.28,877.42,175.58Z"/><path class="cls-34" d="M756.9,246.22c-13.3-3.52-26.68-12-29-27.73-1.9-12.78,5.46-22.67,12.66-29.2-5.95,6.4-10.91,15.13-9.35,25.92C733.53,231,743,240.37,756.9,246.22Z"/><path class="cls-34" d="M868.64,202c7.52-8.34,9-17,5.45-23.19-8-14.27-31.53-27.2-88.43-27.42-24.55-.12-46.37,8.19-60.94,21.51C739.18,157.71,762.46,148,789,148.14c56.89.23,80.47,13.15,88.43,27.41C881.37,182.62,879,192.73,868.64,202Z"/><path class="cls-23" d="M842.58,105.72c-2.19,4.68-5.81,8.48-9.48,10-8.77,3.65-22.08-1.37-44-6.48-1.64-.41-2.89,10-5.15,11.65-.92.62-2.17-3.74-2.87-4,0,0-7.41,2.39-2.15,13.89-.7-.3-11.35-5.68-11.84-20.46,1.84-5.17,4.92-8.44,8.9-7.82,9.28,1.45,15.46-1.06,18.1-6.13s15.51-4.1,28,2.52C830.55,103.4,837.71,106,842.58,105.72Z"/><path class="cls-15" d="M749.07,259.56c-.41,1.26-.82,2.64-1.23,4.16-10.05-4.09-43.88-22.33-38.19-61.09,1.87-12.54,8.44-23.88,18.33-32.94a54.78,54.78,0,0,0-15,29.68C707.63,235.72,737.12,254.09,749.07,259.56Z"/><path class="cls-13" d="M829.27,116.92c-7,.72-14.29-2.73-20.12-9.29-9.08-10.14-22.19-3.48-27.7,6.34-1.86-9.55-14.17-1.28-5.46,9.74-.83,10.68,2.5,20.68,9.39,25-5.2,18.06,13.87,19.67,13.08,5.1C812,156,819.84,144.89,823,137.13,824.86,132.29,827.85,121.89,829.27,116.92Z"/><path class="cls-22" d="M801.08,134.28A10.51,10.51,0,1,1,811,123.22c0,.18,0,.37,0,.56A10.24,10.24,0,0,1,801.08,134.28Zm0-18.14a7.65,7.65,0,1,0,7.23,8c0-.14,0-.28,0-.41a7.46,7.46,0,0,0-7.24-7.68h0Z"/><path class="cls-22" d="M822.15,140.92a10.51,10.51,0,1,1,9.94-11.06c0,.19,0,.37,0,.56A10.24,10.24,0,0,1,822.15,140.92Zm0-18.14a7.65,7.65,0,1,0,7.23,8.05c0-.14,0-.27,0-.41A7.46,7.46,0,0,0,822.15,122.78Z"/><path class="cls-22" d="M781.49,210.47c-9.78,0-17.73,8.38-17.73,18.69a19.25,19.25,0,0,0,3.3,10.82l-9.33,10.74,5,4.83L772,244.91a17,17,0,0,0,9.55,2.94c9.77,0,17.73-8.39,17.73-18.69S791.23,210.47,781.49,210.47Zm0,30.22a11.54,11.54,0,1,1,10.89-12.15c0,.2,0,.41,0,.62a11.25,11.25,0,0,1-10.91,11.51Z"/><path class="cls-42" d="M1192.41,810.67c5.06.2,7.75.3,10.06-2.1,1.46-1.51-3.91-11.51-4-12.19a4.17,4.17,0,0,1,0-.5v-2.12l-1.11.25-3.8.75-2.12.43.34,1.54.08.35C1190.55,804.81,1189.94,810.59,1192.41,810.67Z"/><path class="cls-42" d="M1228.76,810.73c5-.12,7.5-.57,9.78-2.92,1.36-1.49-3.93-10.64-4.09-11.31v-2.59l-1.12.22-3.77.7-2.11.4.34,1.55.1.34C1226.71,804.76,1226.34,810.82,1228.76,810.73Z"/><path class="cls-22" d="M1236.7,534.45c-.4,11.79-2,22,2.18,27.28,9,11.57-7.28,21.43-16.49,21.67-12.17.33-39.48-1.06-40.92-1.11-8.83-.4-18.24-21-6.19-23.71,14.86-3.3,7.31-29.37,4.32-33-10-12.18,16.45-41.76,38.74-20.46C1228.58,515,1237.26,516.57,1236.7,534.45Z"/><path class="cls-23" d="M1215.43,577.27c-2.58,3.87-8.39,6.24-12.1,5.64-10.31-1.65-25.37-5.17-18.11-.42-2.07-.07-3.42-.18-3.74-.18-8.82-.35-18.25-21-6.19-23.66,14.85-3.32,7.31-29.38,4.34-33-4.37-5.3,13-2,25.1-7,11.85-4.84,22.49,5.28,25.15,18.73C1233.3,554.88,1223.89,564.55,1215.43,577.27Z"/><path class="cls-12" d="M1248.17,630.56c0-34.73-18.93-62.88-42.29-62.88s-42.28,28.15-42.28,62.88l-.12,59.91,71.29.88c8.56,0,18.6,17.73,15.14-16.48Z"/><path class="cls-20" d="M1247.2,695.91c.87-2.92,1-8.45,0-18.23l-1.76-44.28c0-34.72-18.93-62.89-42.28-62.89-8.5,0-16.37,3.76-23.07,10.21,7.15-8.19,16.06-13,25.75-13,23.37,0,42.29,28.16,42.29,62.88l1.73,44.33C1251.55,691.27,1250.11,695.74,1247.2,695.91Z"/><path class="cls-20" d="M1184,597c0-3-9.64,62.18-5.89,95.48l2.72-.55S1183.88,611,1184,597Z"/><path class="cls-20" d="M1227.89,597c0-3,9.64,62.18,5.89,95.48l-2.73-.55S1228,611,1227.89,597Z"/><path class="cls-13" d="M1223.52,538.5c-1.36-9.55-9.4-19.09-19.22-14.1-6.3,3.18-12.82,3.53-18,.64-.15,1.83-.37,4.5-.56,7.3-1.09-2.1-2.91-2.42-3.45.2s.13,8.05,3,9v1.36c.13,7.11,2.88,18.43,13.83,21.13.59,2.51.39,3.33-.3,6.69.62,2.23,9.12,3.67,11.94,1a53.78,53.78,0,0,1-.23-7.4c6.48-1.09,11.88-7.82,14.32-16.47C1234.67,542.12,1227.71,531.64,1223.52,538.5Z"/><path class="cls-32" d="M1214.14,700.23c-2.34,8.74-22.74,2.5-21.83,6.17,3.34,13.84,4.09,29.16,4.63,45.46.43,14.78.62,30.4,2.19,46.38l-8,2.26c-15.36-31.26-26.77-56.52-31.38-86.87-2.11-8.6-3.75-23.29,8.19-29.25s31.21-10.77,41.1-4.94C1214.55,682.61,1217.15,689,1214.14,700.23Z"/><path class="cls-14" d="M1235.65,798.44c-3.33-33.28,1.18-64.5-6.56-90.49-1.75-5.88,16.69.67,20.35-10.73,7.7-24-23.33-27.71-44.14-13.89-7.53,5-11.42,15.54-9.69,24.25a380.22,380.22,0,0,0,31.74,92.86Z"/><path class="cls-15" d="M1214.14,700.23c-2.34,8.74-22.74,2.5-21.83,6.17,3.34,13.84,4.09,29.16,4.63,45.46a362.43,362.43,0,0,1-11.07-42c-1.7-8.7,2.19-19.22,9.7-24.24a49.3,49.3,0,0,1,13.53-6.22C1214.55,682.61,1217.15,689,1214.14,700.23Z"/><path class="cls-14" d="M1235.65,798.44c-3.33-33.28,1.18-64.5-6.56-90.49-1.75-5.88,16.69.67,20.35-10.73,7.7-24-23.33-27.71-44.14-13.89-7.53,5-11.42,15.54-9.69,24.25a380.22,380.22,0,0,0,31.74,92.86Z"/><path class="cls-17" d="M1250.08,678.05H1159.3a2.38,2.38,0,0,0,0,4.74h90.78a2.38,2.38,0,0,0,0-4.74Z"/><path class="cls-19" d="M1248.89,609.23h-88.4a3.49,3.49,0,0,0-3.42,3.58v61.61a3.51,3.51,0,0,0,3.4,3.61h88.42a3.51,3.51,0,0,0,3.37-3.61V612.83A3.51,3.51,0,0,0,1248.89,609.23Z"/><path class="cls-17" d="M1218,643.64a13.31,13.31,0,1,1-13.28-14,13.63,13.63,0,0,1,13.28,14Z"/><g class="cls-43"><rect class="cls-29" x="179.15" y="325.02" width="114.18" height="68.53" rx="32.4" ry="32.4"/><polyline class="cls-29" points="273.43 387.13 288.5 394.05 281.92 378.98"/><path class="cls-27" d="M215.28,359.34a4.88,4.88,0,1,1-4.89-5.14A5,5,0,0,1,215.28,359.34Zm12.27-5.14a5.16,5.16,0,1,0,4.88,5.42c0-.09,0-.19,0-.28a5,5,0,0,0-4.82-5.2Zm17.23,0a5.15,5.15,0,1,0,4.93,5.37,1.77,1.77,0,0,0,0-.23,5,5,0,0,0-4.84-5.2h0Zm17.23,0a5.16,5.16,0,1,0,4.87,5.42,2.62,2.62,0,0,0,0-.28,5,5,0,0,0-4.81-5.2Z"/></g><g class="cls-43"><rect class="cls-29" x="651.98" y="19.02" width="114.18" height="68.53" rx="32.4" ry="32.4"/><polyline class="cls-29" points="746.26 81.13 761.32 88.05 754.75 72.98"/><path class="cls-3" d="M688.11,53.29a4.88,4.88,0,1,1-4.88-5.15A5,5,0,0,1,688.11,53.29Zm12.34-5.15a5.16,5.16,0,1,0,4.84,5.46c0-.1,0-.21,0-.31A5,5,0,0,0,700.45,48.14Zm17.23,0a5.16,5.16,0,1,0,4.88,5.42v-.27a5,5,0,0,0-4.86-5.15Zm17.23,0a5.16,5.16,0,1,0,4.87,5.42,2.44,2.44,0,0,0,0-.27,5,5,0,0,0-4.86-5.15Z"/></g><path class="cls-8" d="M1227.58,825.64l7,50.23a3,3,0,0,0,2.87,2.62h50.48a3,3,0,0,0,2.88-2.62l7-50.23Z"/><path class="cls-24" d="M1284.65,761.49a14.44,14.44,0,0,1-1.11,2.77c-2.11,4.1-5.67,7.11-6.2,12.09-.43,3.22.38,6.51.63,9.77a16.56,16.56,0,0,1,.1,2.11c-.12,8.74-3.61,12.35-7.88,15.39-1.75,1.25-3.65,2.4-5.48,3.77a22.59,22.59,0,0,0-7.5,9,33.25,33.25,0,0,0-2.69,10.26,1.67,1.67,0,0,1-1.62,1.39,1.78,1.78,0,0,1-1.7-1.06,27.51,27.51,0,0,1-1.71-15.9c2.46-13,13-21.75,3.44-37.58-2.06-3.36-4.28-5.22-5.38-7.93a10.61,10.61,0,0,1-.55-5.09c.53-4.23,3-7.78,4.52-12,3.86-11.69-6.29-18.52-11.73-28.17-4.53-7.81-1.43-17.41.94-25.5,3.11-9.9-3-19-3.15-29s8.92-20.88,20.83-16.12c12.24,4.49,16.48,18.35,20.88,28.89a27.81,27.81,0,0,1,2,8.23c.75,8.4-2,16.8-3.36,25.46a46.68,46.68,0,0,0-.06,16,39.6,39.6,0,0,0,2.76,9.09c.31.67.6,1.38.89,2.08C1284.67,746.59,1287.15,753.27,1284.65,761.49Z"/><g class="cls-4"><path class="cls-19" d="M1253.24,653.92c2.89,4.71,5.82,9.46,7.55,14.72,1.9,5.77,1.48,11.32,0,17.13-1.13,4.57-2.61,9.19-2.43,14,.2,5.38,4.24,10.24,2.21,15.61a31.14,31.14,0,0,0-2.17,6.49,22.81,22.81,0,0,0,.08,6.6c.67,4.84,2.3,9.5,2.78,14.36a22.68,22.68,0,0,1-.73,8.28,12.65,12.65,0,0,0-.39,6.14c1.09,4.92,4.61,8.88,5.83,13.8,3.2,13-3.52,25.61-9.47,36.68-.11.22.16.81.32.52,5.09-9.46,10.44-19.48,10.35-30.52a29.64,29.64,0,0,0-3.78-14.06c-1.39-2.57-2.94-5.23-3.09-8.22s1.31-5.78,1.48-8.74c.27-4.76-1.1-9.41-2.11-14a37.47,37.47,0,0,1-1.07-7.82,20.09,20.09,0,0,1,1.93-8.06,11.24,11.24,0,0,0,1-6.14c-.42-2.64-1.76-5-2.37-7.62-1.34-5.74.67-11.58,2.06-17.11s1.83-10.81.23-16.32c-1.68-5.78-4.86-11-8-16.06-.23-.37-.41.17-.26.41Z"/></g><path class="cls-44" d="M1264.71,807.41a22.54,22.54,0,0,0-7.5,9c-3.44-4.49-5.59-4.35-7.75-5.31,2.47-13,13-21.75,3.44-37.58-2.06-3.36-4.28-5.22-5.37-7.93,5.51,3.26,10.17,1.3,13.22,6.55,3.2,5.37.13,14.85,3.36,22.21C1266.83,800.39,1265.87,803.17,1264.71,807.41Z"/><path class="cls-44" d="M1278,786.13a16.63,16.63,0,0,1,.1,2.12c-.12,8.73-3.6,12.35-7.88,15.39,0-.15.08-.27.11-.41,1-4.34,1-10.21,3.87-13.93A17.51,17.51,0,0,1,1278,786.13Zm-.06-73.88c1.41-8.66,4.13-17.07,3.36-25.46a19.8,19.8,0,0,0-6.5,8.16c-6.08,13.57-2,23.1,3.07,33.25A46.68,46.68,0,0,1,1277.91,712.25Zm3.59,27.11c.54,5.84-.56,11.64.08,18a23.13,23.13,0,0,0,2,6.92,14.44,14.44,0,0,0,1.11-2.77C1287.15,753.27,1284.67,746.59,1281.5,739.36Z"/><path class="cls-27" d="M1322.94,745.47c-5.8-11.21-5.79-18.63-5.15-30.59.67-12.23-2.91-28.55-17.09-31.27-10.63-2-19.29,2.51-23.24,11.36-6.53,14.6-1.39,24.5,4.23,35.54,4.57,9,1.6,17.34,2.57,26.88s9,13.94,2.26,23.8c-2.9,4.07-6.77,4.75-9.67,8.15-2.9,3.74-2.84,9.6-3.87,13.94-2.59,11-12.77,9.41-13.19,20.5,0,.83.6,1.65,1.16,1.63s1,.08,1.38-.67c2.38-4.47,6.32-3.79,10.75-5.85,3.28-1.53,4.29-5.79,12.16-6.79,10.29-1.35,19.66,5.77,24.83-8.84,1.92-5.1,1.28-9.52,2.25-14.62,1-6.8,5.16-10.87,9.34-15.63C1329.07,764.14,1328.1,755.3,1322.94,745.47Z"/><g class="cls-4"><path class="cls-19" d="M1301.42,687.68c-4.41,7.28-6,15.8-5.79,24.23a69.72,69.72,0,0,0,1.68,13.19c1.14,5.12,2.73,10.22,2.81,15.5s-2.25,9.75-2.73,14.78c-.4,4.28.8,8.49,1.57,12.66a25.54,25.54,0,0,1,.53,7.08,16.28,16.28,0,0,1-2.79,7.28c-1,1.61-2.22,3.15-3.24,4.79a55.14,55.14,0,0,0-2.75,5.82,15.91,15.91,0,0,1-5.12,5.93,70.1,70.1,0,0,0-6,5.37,74.47,74.47,0,0,0-9.6,11.8c-.13.21.14.81.33.53a72.49,72.49,0,0,1,9.31-11.51,65.47,65.47,0,0,1,4.92-4.49,33.92,33.92,0,0,0,4.83-4.2,20,20,0,0,0,2.61-5,34.3,34.3,0,0,1,3.57-6.33c2.33-3.36,4.29-6.63,4.43-10.81s-1.16-8.4-1.84-12.56a23,23,0,0,1-.17-7.27c.43-2.75,1.44-5.38,2-8.07,2-9.41-2.29-18.73-3.46-28-1.34-10.31-.27-21.21,5.2-30.24.13-.2-.14-.81-.31-.52Z"/></g><path class="cls-17" d="M1261.19,797.55c-3.25-7.39-.18-16.84-3.36-22.22-3.91-6.72-10.45-1.6-18-10.84-6.38-7.76-1.79-18.51-16.3-26.52-4.44-2.44-9.58-1.24-11.31,4-2.06,5,1.21,12,2.74,16.8,1.49,4,3.26,7.07,2.51,11.57v.14c-.84,3.46-3,5.31-1.85,9.37,2.42,9.91,15.74,9,22.45,15.2,4.75,4.36.47,9.56,5.11,16.13s7-.57,15.23,14.89a1.07,1.07,0,0,0,1.43.47l.07,0h0a1.18,1.18,0,0,0,.55-1.09C1259.15,808.76,1266,808.39,1261.19,797.55Z"/><path class="cls-29" d="M1261.19,797.55c-3.25-7.39-.18-16.84-3.36-22.22-3.91-6.72-10.45-1.6-18-10.84-6.38-7.76-1.79-18.51-16.3-26.52-4.44-2.44-9.58-1.24-11.31,4-2.06,5,1.21,12,2.74,16.8,1.49,4,3.26,7.07,2.51,11.57v.14c-.84,3.46-3,5.31-1.85,9.37,2.42,9.91,15.74,9,22.45,15.2,4.75,4.36.47,9.56,5.11,16.13s7-.57,15.23,14.89a1.07,1.07,0,0,0,1.43.47l.07,0h0a1.18,1.18,0,0,0,.55-1.09C1259.15,808.76,1266,808.39,1261.19,797.55Z"/><g class="cls-4"><path class="cls-19" d="M1258.41,815.91c-2.38-5.72-1.52-12.1-3.42-17.93a13.14,13.14,0,0,0-3.71-6.05c-2.19-1.9-5.27-2.69-6.72-5.38-1.23-2.22-1.23-4.91-2.34-7.19s-3.25-3.09-5.28-4.49c-4.84-3.36-4.93-10.08-6.34-15.25a30.57,30.57,0,0,0-9.68-15.26c-.3-.27-.37.35-.17.52a29.85,29.85,0,0,1,9.58,15.33c1.12,4.34,1.43,9.3,4.18,13,1.64,2.21,4.21,2.87,6.14,4.7s2.11,4.95,3,7.45a8.85,8.85,0,0,0,4.16,4.88c2.73,1.67,4.94,3.25,6.27,6.28,2.74,6.22,1.44,13.35,4,19.61.16.42.46.07.33-.25Z"/></g><polygon class="cls-9" points="1228.68 833.54 1296.66 833.54 1297.76 825.63 1227.58 825.63 1228.68 833.54"/><rect class="cls-8" x="1223.58" y="821.06" width="78.18" height="8.24" rx="1.47" ry="1.47"/><g class="cls-43"><path class="cls-29" d="M1056.73,432.07h49.2c18,0,32.49-15.33,32.49-34.25h0c0-18.93-14.54-34.27-32.49-34.27h-49.2c-17.94,0-32.49,15.34-32.49,34.27h0C1024.24,416.74,1038.79,432.07,1056.73,432.07Z"/><polyline class="cls-29" points="1044.14 425.66 1029.08 432.57 1035.64 417.51"/><path class="cls-3" d="M1107.17,392.66a5.16,5.16,0,1,1-4.87,5.42,2.17,2.17,0,0,1,0-.26,5,5,0,0,1,4.88-5.16Zm-22.11,5.16a4.9,4.9,0,1,0,4.88-5.16,5,5,0,0,0-4.88,5.15Zm-17.23,0a4.9,4.9,0,1,0,4.89-5.16,5,5,0,0,0-4.89,5.15Zm-17.22,0a4.9,4.9,0,1,0,4.88-5.16,5,5,0,0,0-4.88,5.15Z"/></g><rect class="cls-45" x="1031.41" width="275.66" height="367.61"/><rect class="cls-46" x="1052.05" y="17.93" width="234.39" height="331.74"/><rect class="cls-47" x="1072.33" y="114.7" width="193.81" height="17.55"/><rect class="cls-47" x="1072.33" y="146.61" width="193.81" height="17.55"/><rect class="cls-47" x="1072.33" y="178.51" width="193.81" height="17.55"/><rect class="cls-47" x="1072.33" y="210.41" width="193.81" height="17.55"/><rect class="cls-47" x="1072.33" y="242.32" width="193.81" height="17.55"/><rect class="cls-48" x="1072.33" y="272.73" width="96.91" height="17.54"/><polygon class="cls-49" points="1169.24 40.24 1174.85 54.46 1189.47 49.98 1181.85 63.23 1194.46 71.87 1179.35 74.18 1180.46 89.43 1169.24 79.05 1158.01 89.43 1159.12 74.18 1144.01 71.87 1156.62 63.23 1149.01 49.98 1163.62 54.46 1169.24 40.24"/><polygon class="cls-50" points="1208.71 394.05 1200.16 374.49 1180.52 382.87 1205.5 319.94 1233.69 331.12 1208.71 394.05"/><polygon class="cls-50" points="1238.79 394.05 1247.33 374.49 1266.97 382.87 1241.99 319.94 1213.8 331.12 1238.79 394.05"/><path id="_Path_" data-name="&lt;Path&gt;" class="cls-51" d="M1266.14,341.39c0,19-19.5,34.45-43.56,34.45S1179,360.41,1179,341.39s19.5-34.45,43.56-34.45S1266.14,322.36,1266.14,341.39Z"/><polygon class="cls-52" points="1223.74 276.95 1242.99 272.72 1251.67 290.4 1266.97 302.8 1258.56 320.61 1258.4 340.3 1239.24 344.84 1223.74 357 1208.25 344.84 1189.09 340.3 1188.93 320.61 1180.52 302.8 1195.83 290.4 1204.51 272.72 1223.74 276.95"/><polygon class="cls-53" points="1223.74 294.16 1234.25 291.85 1238.99 301.5 1247.34 308.27 1242.76 318 1242.67 328.75 1232.21 331.22 1223.74 337.86 1215.29 331.22 1204.82 328.75 1204.74 318 1200.15 308.27 1208.5 301.5 1213.24 291.85 1223.74 294.16"/></g></g></g></svg>