<svg xmlns="http://www.w3.org/2000/svg" viewBox="0 0 1099.1 611.37"><defs><style>.cls-1{fill:#ffd24c;}.cls-2{fill:#fe9126;}.cls-3{fill:#e1f5fe;}.cls-4{fill:#2e5bbf;}.cls-5{fill:#2a53ad;}.cls-6{fill:#ffc3a8;}.cls-7{fill:#fffffd;}.cls-8{fill:#99e7ff;}.cls-9{fill:#bf3426;}.cls-10{fill:#ebebeb;}.cls-11,.cls-33{fill:#fff;}.cls-12{fill:#ffae84;}.cls-13{fill:#ffa995;}.cls-14{fill:#ff9566;}.cls-15{fill:#00bffb;}.cls-16{fill:#002169;}.cls-17{fill:#fffbff;}.cls-18{fill:#203f85;}.cls-19{fill:#99e6fd;}.cls-20{fill:#21428a;}.cls-21{fill:#59d9fd;}.cls-22{fill:#0a81d1;}.cls-23{fill:#58d7fc;}.cls-24{fill:#ff8570;}.cls-25{fill:#fdc242;}.cls-26{fill:#a66e6e;}.cls-27{fill:#ffe8e8;}.cls-28{fill:#fd7d42;}.cls-29{fill:#7964ff;}.cls-30{fill:#0057c2;}.cls-31{fill:#9e9e9e;}.cls-32,.cls-33{isolation:isolate;}.cls-33{font-size:56.45px;font-family:MyriadPro-Bold, Myriad Pro;font-weight:700;}.cls-34{fill:#ff5478;}</style></defs><title>slid 2</title><g id="Layer_2" data-name="Layer 2"><g id="Layer_1-2" data-name="Layer 1"><rect class="cls-1" x="519.76" y="8.67" width="184" height="67" rx="11.84" ry="11.84"/><rect class="cls-2" x="513.09" y="6.67" width="184" height="65" rx="11.67" ry="11.67"/><path class="cls-3" d="M1098.62,565c4.28-80.32-20.53-162.64-64.49-214.06-51.8-60.57-124.28-75.52-191-63.42s-129.9,48.23-193.27,80.19-129.41,60.37-196.61,56C372,418.49,295.31,365.87,214.08,359c-52.33-4.41-106.77,11.67-149,55.56S-5,532.49.75,606c.09,1.12.19,2.25.28,3.36H1093.27A338.69,338.69,0,0,0,1098.62,565Z"/><path class="cls-4" d="M676.71,301.39a38.74,38.74,0,0,1-18.25-34.57L662,267a35.05,35.05,0,0,0,16.58,31.3Z"/><path class="cls-5" d="M631.86,506.57l-16.63-.08c1.07,7.21,5.61,99.42,6.41,104.83h16.58C637.45,605.86,632.92,513.69,631.86,506.57Z"/><path class="cls-6" d="M711,308.63a87.18,87.18,0,0,1-12.23-5.52A69.51,69.51,0,0,1,681,289.35a11,11,0,0,0,7.17-1.32,12.12,12.12,0,0,0,5.13-7.56,27.28,27.28,0,0,0,.29-9.32c-.58-5.62-1.82-11.27-4.62-16.18s-7.33-9-12.82-10.37c-4.74-1.17-9.48.89-12.81,4.13a143.47,143.47,0,0,1-1.41-17.2c-.27-10.36.27-20.72.54-31.08.16-6,.24-12,0-18a48.9,48.9,0,0,0,5.26-.58c12.63-2.08,24.07-8.29,34.11-16.33a30.23,30.23,0,0,0,5.46,5.14c8.52,6.21,19.54,8.21,30.08,7.68a72.35,72.35,0,0,0,41.52-16,48.72,48.72,0,0,0,4.69,23.52,38.89,38.89,0,0,0,12.13,14.21c2.29,1.62,4.15,2.93,4.91,5.74a56.07,56.07,0,0,0,3.27,9.07,50.86,50.86,0,0,0,5,8.4l.46.13a60.69,60.69,0,0,0-2.18,13.18c-.47,7.56.08,15.4,3.32,22.25,2.71,5.7,7.54,10.63,13.43,12.67h0a108.89,108.89,0,0,1-13.43,16.83,90.33,90.33,0,0,1-27,19.35c-.62.3-1.23.56-1.86.84q-3.12,1.33-6.37,2.41a91.88,91.88,0,0,1-37.89,3.68c-3.21-.32-6.39-.77-9.54-1.37A103.45,103.45,0,0,1,711,308.63Zm90.24-34.28c3.71-4.48,5.84-10.49,4.78-16.21s-5.52-11.71-12-12.41c-5.61-.61-11.28,1.69-15.6,5.34s-7.42,8.51-9.9,13.59a27.5,27.5,0,0,0-2.93,8.9,12.08,12.08,0,0,0,2.22,8.86,11.91,11.91,0,0,0,9.14,4,25.58,25.58,0,0,0,10-2.28c5.44-2.18,10.59-5.28,14.31-9.79Zm-47.51,1.33a20.54,20.54,0,0,0,7.35-19.25c-11.54,2.12-39.84,6.13-39.84,6.13A24.73,24.73,0,0,0,724,270a20,20,0,0,0,27.29,7.33,19.35,19.35,0,0,0,2.46-1.67ZM715,227.07a8.17,8.17,0,1,0-8.18,8.16h0a8.18,8.18,0,0,0,8.16-8.16Z"/><path class="cls-7" d="M278.15,307.92a47,47,0,0,0-18.29,10c-7.43,6.71-12.25,15.92-15.22,25.48-2.69,8.69-3.95,17.68-5.1,26.69l-32.23.15a5.3,5.3,0,0,0-.07-1.05l-1.44-24.35L204,315.06l-1.92-32.75-2-33.22-1.85-31.22q-.79-13.37-1.58-26.72c-.22-3.68-1.4-8.44,1.85-11.14,2.9-2.41,7.34-2,10.83-2H221c4.29,0,8.58,0,12.86,0h13.92l14.8-.06q7.77,0,15.54-.06l16.12-.06,16.58-.06,16.81-.06,16.92-.06,16.92-.11h16.69l16.31-.07,15.79-.06,15.13-.06h14.3l13.31-.17h12.18l10.89-.13c3.16,0,6.32.11,9.43,0,1.78-.07,2.93,1.65,3.16,3.22.36,2.24.3,4.62.45,6.89l.89,14.38c0,.43.06.86.08,1.29.27,4.65.55,9.29.79,13.93q.45,7.62.91,15.23.47,8.1,1,16.19l1,16.76q.51,8.55,1,17.11t1,17.06c.34,5.57.66,11.14,1,16.7l1,16q.43,7.47.88,14.93.4,6.78.79,13.56c.18,2.89.35,5.79.52,8.68l-101.36.46q2.37-8.49,4.35-17.06,2.11-9,3.9-18c.52-2.66,1-5.34,1.5-8,.06-.34.13-.69.19-1,.52-3,.83-6,1.5-9a4,4,0,0,1,1.42-2,11.48,11.48,0,0,0,1.81-2.06,12.07,12.07,0,0,0,2-5.13,6.62,6.62,0,0,0,4.74-4.88,6.38,6.38,0,0,0-2.51-6.42,7,7,0,0,0,2-6.23,5.51,5.51,0,0,0-4.79-4.05,6,6,0,0,0,.52-5.74A5.21,5.21,0,0,0,410.4,277c3.71-4.18,6.94-8.11,10-12.16,1.18-1.58,2.37-3.7,1.27-5.32a3.23,3.23,0,0,0-3.29-1.14,8.57,8.57,0,0,0-3.27,1.65c-6.27,4.42-11.73,9.87-17.05,15.42a24.13,24.13,0,0,0-11.93,30.3c.34.71.65,1.43.92,2.17.38,1.47-.36,3.16-.79,4.49-.55,1.71-1.12,3.4-1.68,5.11l-.34,1-3,9.19-6.75,20.45c-1.11,3.37-2.22,6.71-3.32,10.07l-37.17-43a42.92,42.92,0,0,0-13.9-7.51,41.33,41.33,0,0,0-8-1.79h-.16a4.88,4.88,0,0,0-.12-.55c0-.64-.07-1.34-.12-2.07l-.07-1.15h6.31c4.74,0,9.18.31,13.7-1.58A21.05,21.05,0,0,0,344.35,283a19.61,19.61,0,0,0-6.05-15.15,25.7,25.7,0,0,1-2-1.68,5,5,0,0,1-1-2.77,4.82,4.82,0,0,1,.59-2.26,17,17,0,0,0,.75-2.8,14.81,14.81,0,0,1,.22-2.1c.51-1.46,2.88-2.22,4.09-2.91a26.29,26.29,0,0,0,4.47-3.15,22.55,22.55,0,0,0,6.24-8.79c2.71-7,1-15.85-4.79-20.65-3.91-3.23-9.2-4.43-14.26-4.17a19.4,19.4,0,0,0-5.08.71,11.66,11.66,0,0,1-3.68.84,14.14,14.14,0,0,1-8-2.23,37.87,37.87,0,0,0-11-5.33,42.71,42.71,0,0,0-20.29,0,50.83,50.83,0,0,0-31.51,21.72,44.71,44.71,0,0,0-6.81,21c-.37,5.86.42,12.12-2.37,17.54s-6.73,9-7.28,15.39c-.69,7.82,3.64,16,10.69,19.4a18.3,18.3,0,0,0,20.62-3.51h20.92l.36,3.72h-.09c-1.58.13-3.22.33-4.82.61A53.43,53.43,0,0,0,278.15,307.92Z"/><polygon class="cls-8" points="495.83 295.57 371.49 295.49 360.61 177.37 345.75 177.16 357.77 308.77 496.46 309.08 495.83 295.57"/><path class="cls-9" d="M845.5,459.41a12.23,12.23,0,0,1-4.09-10.09c.11-1.2.23-2.37.37-3.59,7.62,5.43,15.38,10.8,23.81,14.75a22,22,0,0,1-5.12,2.12,17.83,17.83,0,0,1-6.38.6A14.68,14.68,0,0,1,845.5,459.41Z"/><path class="cls-10" d="M641.34,486.73V494l-135.1.27V474.82l.5.05c10.36-11.53,27.28-16.58,42.32-13q8.33,3.79,16.88,7.1c13.1,5.07,26.51,9.33,40,13.17,3.51,1,7,2,10.55,2.91,7.8,2.1,16,4.1,23.85,2C640.66,486.93,641,486.83,641.34,486.73Z"/><path class="cls-11" d="M310.93,274.2c.94.86.75,2.42.2,3.57a8.23,8.23,0,0,1-14.61.56,4.33,4.33,0,0,1-.65-2.18,2.26,2.26,0,0,1,1.05-1.93c1.13-.64,3-.14,4.21,0a21.89,21.89,0,0,0,6.41-.33C308.7,273.56,310.06,273.4,310.93,274.2Z"/><path class="cls-12" d="M287.9,295.28a61.54,61.54,0,0,1-15.14-5.21,28.34,28.34,0,0,0-.07-5.75,44.89,44.89,0,0,0-2.14-9.29c-.49-1.49-1.17-2.94-1.58-4.44a7.22,7.22,0,0,1,.11-4.48,25,25,0,0,1,1.46-2.08c.49-.79.95-1.52,1.36-2.32a30.43,30.43,0,0,0,3.27-9.91v-.1c1.42-.31,2.84-.65,4.24-1,.13,3.74,0,7.75,1.22,11.47,1.28,4,4.38,7.54,8.47,8.18s8.23-2,10.31-5.53,2.37-7.9,1.93-12a8.09,8.09,0,0,1,6.93-.25c-.47,4.11-.13,8.43,1.93,12s6.22,6.17,10.32,5.53,7.19-4.25,8.47-8.17a1.82,1.82,0,0,1,.11-.38c0,.86,0,1.72.07,2.59,5.05,7.28,2.58,18-3.82,24.1a30,30,0,0,1-14.29,7.25,47.94,47.94,0,0,1-10.27,1.12A62.05,62.05,0,0,1,287.9,295.28Zm23.23-17.51c.55-1.15.74-2.71-.2-3.57s-2.24-.61-3.39-.36a21.89,21.89,0,0,1-6.41.33c-1.21-.09-3.08-.59-4.21,0a2.26,2.26,0,0,0-1.05,1.93,4.33,4.33,0,0,0,.65,2.18,8.21,8.21,0,0,0,14.61-.56Z"/><path class="cls-13" d="M806,258.16c1.06,5.72-1.07,11.73-4.78,16.22S792.35,282,787,284.17a24.86,24.86,0,0,1-10,2.29A11,11,0,0,1,765.46,276a10.85,10.85,0,0,1,.15-2.48,27.76,27.76,0,0,1,2.93-8.86c2.48-5.08,5.58-10,9.9-13.59s10-6,15.6-5.34C800.48,246.49,805,252.49,806,258.16Z"/><path class="cls-6" d="M505.48,452.18c-.38.16-.79.3-1.17.42a8.37,8.37,0,0,1-7.05-.79,4.88,4.88,0,0,1-1.45-1.58,5.14,5.14,0,0,1-.66-2.45,5.38,5.38,0,0,1-6.32,1.33c-2.51-1.2-3.89-4.09-3.95-6.87a15.81,15.81,0,0,1,2.42-7.9,34.76,34.76,0,0,1,42.07-15.66,138.18,138.18,0,0,0,18.78,5.69c3.68.79,7.89.38,11.67.53q6,.25,12,.53c15.91.75,31.82,1.66,47.73,2.58,1.11.05,2.22.12,3.33.19,4.85-6.32,8.69-11.36,12-15.79L674.47,462l-16.22,13.81c-5.14,4.38-10.52,8.89-16.94,10.88-.33.11-.67.21-1,.29-7.8,2.07-16,.08-23.85-2q-5.28-1.41-10.55-2.92c-13.51-3.83-26.92-8.1-40-13.16q-8.55-3.29-16.89-7.1l-2.45-1.14q-4.74-2.24-9.43-4.64a21,21,0,0,0-8.68-2.58,30.74,30.74,0,0,1-5.42-.37,27.11,27.11,0,0,1-3.54-.93,24,24,0,0,1-6.52-3.36C510.35,449.55,508,451.2,505.48,452.18Z"/><path class="cls-8" d="M312,305.93a41.26,41.26,0,0,1,8,1.76,14.18,14.18,0,0,1-.74,7.76,8.57,8.57,0,0,1-6.5,5.28c-3.86.49-7.63-2.61-8.52-6.4h0a10,10,0,0,0,5.81-2.91A6.6,6.6,0,0,0,311.8,306Z"/><path class="cls-14" d="M311.5,302.21l.07,1.16a34.51,34.51,0,0,1-23.44-5.7c-.08-.79-.15-1.58-.23-2.37a61.15,61.15,0,0,0,12.87,1.28A46.31,46.31,0,0,0,311,295.49C311.07,296.3,311.3,299.31,311.5,302.21Z"/><path class="cls-2" d="M509.77,364.7l.24,4.18-10.16.05c-.16-2.89-.34-5.79-.51-8.69q-.4-6.76-.79-13.55-.45-7.49-.88-14.94l-.95-16-1-16.7q-.5-8.52-1-17.06t-1-17.13l-1-16.83q-.5-8.09-1-16.18-.45-7.62-.91-15.23c-.26-4.64-.55-9.29-.78-13.93,0-.43-.06-.86-.08-1.29q-.43-7.18-.85-14.37c-.14-2.27-.09-4.65-.45-6.9-.25-1.57-1.4-3.29-3.16-3.21-3.15.14-6.31,0-9.42,0H425.43L410.3,177l-15.79.06-16.31.06-16.69.06-16.88.07-17,.16-16.82.06-16.58.06-16.12.06q-7.77,0-15.54.06l-14.8.06h-38.4c-3.49,0-7.9-.4-10.84,2-3.24,2.7-2.07,7.46-1.84,11.14q.78,13.36,1.58,26.72l1.87,31.26,2,33.22,1.93,32.75,1.77,29.79,1.44,24.35c0,.35.05.7.06,1.05H196.88q-.8-14-1.63-28.1l-1.87-31.38q-1-16.58-1.94-33.16-.93-16.27-1.88-32.54-.88-15-1.75-29.92-.75-12.65-1.47-25.27c-.13-2.15-.71-4.63-.42-6.71a16.53,16.53,0,0,1,5-9.62c5.68-5.25,13.17-4.24,20.3-4.26l18.8-.08,21.39-.08,23.43-.08,24.89-.1q12.88,0,25.77-.09l26.05-.1,25.83-.09,25-.1,23.62-.06,21.59-.09,19-.07,15.9-.06c1.47,0,3-.16,4.46-.07a13.21,13.21,0,0,1,8.49,4.55c3.21,3.68,3.54,8.57,3.81,13.22l.5,8.54,1.18,20.24,1.37,23.41q.79,12.78,1.51,25.55.78,13.28,1.58,26.57L507,316.49q.75,12.63,1.48,25.26Q509.1,353.23,509.77,364.7Z"/><path class="cls-11" d="M308.23,252.49v-.09a16.11,16.11,0,0,1,10.62-5.53,17.06,17.06,0,0,1,9.59,1.88c.25,4.2.47,8.42.59,12.73a2.4,2.4,0,0,1-.12.38c-1.27,4-4.39,7.54-8.46,8.17s-8.24-1.95-10.32-5.53S307.76,256.61,308.23,252.49Z"/><path class="cls-15" d="M268.54,370l-29,.13c1.13-9,2.41-18,5.1-26.69,3-9.56,7.79-18.77,15.22-25.48a47,47,0,0,1,18.29-10c-1.81,2.81-1.63,6.73-.19,9.83,1.63,3.48,4.53,6.18,7.79,8.59a163.77,163.77,0,0,1,5.78,43.54Z"/><path class="cls-11" d="M301.31,252.76c.46,4.1.14,8.45-1.94,12s-6.22,6.19-10.31,5.52-7.19-4.24-8.47-8.17c-1.21-3.73-1.09-7.74-1.22-11.47A60.17,60.17,0,0,0,289.64,247a8.39,8.39,0,0,1,1,.06,16.11,16.11,0,0,1,10.62,5.53A1.09,1.09,0,0,1,301.31,252.76Z"/><path class="cls-12" d="M328.34,246.55c.05.74.09,1.48.13,2.22a17,17,0,0,0-9.61-1.91,16.11,16.11,0,0,0-10.62,5.53v.1a8,8,0,0,0-6.92.26v-.07a16.14,16.14,0,0,0-10.62-5.52c-.34,0-.69-.06-1-.07.64-.3,1.26-.61,1.89-.94,7.37-3.9,13.79-10.46,15.45-18.62h0a18.7,18.7,0,0,1,14.81,4.61A21,21,0,0,1,328.34,246.55Z"/><path class="cls-11" d="M279.35,250.1a16.83,16.83,0,0,1,10.26-3,60.06,60.06,0,0,1-10.26,3.61C279.36,250.49,279.35,250.3,279.35,250.1Z"/><path class="cls-11" d="M330.19,249.82c-.17,3.78,0,7.9-1.13,11.68-.12-4.31-.34-8.53-.59-12.73A18.8,18.8,0,0,1,330.19,249.82Z"/><path class="cls-16" d="M275.13,251.7v.1a30.51,30.51,0,0,1-3.24,9.92c-.42.79-.88,1.58-1.37,2.32a25,25,0,0,0-1.46,2.08,7.26,7.26,0,0,0-.11,4.47c.43,1.5,1.11,3,1.58,4.45a45.47,45.47,0,0,1,2.15,9.28,27.72,27.72,0,0,1,.06,5.76,20.42,20.42,0,0,1-4.3,11.25c-.26.31-.52.6-.79.88A18.32,18.32,0,0,1,247,305.73c-7.05-3.44-11.38-11.58-10.69-19.41.55-6.37,4.56-10.05,7.28-15.39s2-11.67,2.37-17.54a44.68,44.68,0,0,1,6.81-21c7-11,18.75-18.83,31.51-21.72a42.71,42.71,0,0,1,20.29,0,37,37,0,0,1,11,5.33,14.16,14.16,0,0,0,8.05,2.24,11.33,11.33,0,0,0,3.68-.84,19.06,19.06,0,0,1,5.09-.7c5.06-.27,10.35.93,14.26,4.16,5.81,4.81,7.5,13.61,4.79,20.65a22.58,22.58,0,0,1-6.25,8.79,26.92,26.92,0,0,1-4.47,3.16c-1.2.68-3.57,1.44-4.09,2.9a16.43,16.43,0,0,0-.22,2.1,17,17,0,0,1-.75,2.8,4.46,4.46,0,0,0,.41,5c.56.63,1.4,1.09,2,1.69a19.57,19.57,0,0,1,6,15.16,21,21,0,0,1-12.7,17.54c-4.53,1.9-8.94,1.58-13.7,1.58h-6.32c-.19-2.91-.41-5.92-.48-6.77a30,30,0,0,0,14.25-7.25c6.4-6.12,8.87-16.82,3.82-24.1,0-.87,0-1.73-.07-2.59,1.15-3.81,1-7.9,1.13-11.68a18.8,18.8,0,0,0-1.72-1c0-.74-.09-1.48-.13-2.22a21,21,0,0,0-6.52-14.41A18.64,18.64,0,0,0,307,227.49H307c-1.66,8.15-8.07,14.72-15.45,18.62-.62.32-1.25.64-1.89.94a17,17,0,0,0-10.26,3v.59C278,251.05,276.55,251.39,275.13,251.7Z"/><path class="cls-12" d="M398,275.42c5.31-5.53,10.77-11,17-15.43a8.77,8.77,0,0,1,3.27-1.64,3.21,3.21,0,0,1,3.29,1.14c1.09,1.61-.09,3.75-1.27,5.32-3,4.05-6.32,8-10,12.16a5.16,5.16,0,0,1,4.78,2.84,6,6,0,0,1-.52,5.73,5.53,5.53,0,0,1,4.79,4,7,7,0,0,1-2,6.23,6.4,6.4,0,0,1,2.51,6.43,6.63,6.63,0,0,1-4.74,4.88,11.94,11.94,0,0,1-2,5.13,12.73,12.73,0,0,1-1.82,2.06,3.81,3.81,0,0,0-1.41,2c-.67,2.93-1,6-1.51,9-.06.34-.13.7-.19,1l-24-7.73.34-1c.56-1.71,1.13-3.4,1.68-5.11.45-1.36,1.2-3,.79-4.49a18.82,18.82,0,0,0-.92-2.17A24.14,24.14,0,0,1,398,275.42Z"/><path class="cls-16" d="M288.13,297.67c.15,1.51.29,3,.44,4.54H267.65c.27-.28.54-.57.79-.88a20.4,20.4,0,0,0,4.32-11.26,61.54,61.54,0,0,0,15.14,5.21C288,296.08,288.05,296.87,288.13,297.67Z"/><path class="cls-12" d="M288.57,302.21c-.15-1.51-.29-3-.44-4.54a34.51,34.51,0,0,0,23.44,5.7c.05.72.09,1.43.12,2.07a4.88,4.88,0,0,1,.12.55,6.6,6.6,0,0,1-1.75,5.42,10,10,0,0,1-5.81,2.91H304A14.73,14.73,0,0,1,288.87,306H289C288.81,304.69,288.69,303.49,288.57,302.21Z"/><path class="cls-8" d="M304,314.36h.25c-.22,3.68-3.53,7.11-7.38,7.78a11,11,0,0,1-10.26-4.29A14.75,14.75,0,0,1,284,306.8v-.2c1.58-.28,3.21-.48,4.82-.61h0A14.72,14.72,0,0,0,304,314.36Z"/><path class="cls-17" d="M325.28,309.79a12.19,12.19,0,0,1-.79,8.38c-1.32,3-3.49,5.53-4.78,7.56a351.21,351.21,0,0,0,1.35,44l-29.5.14a163.69,163.69,0,0,0-5.78-43.53c-3.26-2.41-6.16-5.11-7.79-8.59-1.44-3.1-1.62-7,.19-9.83a53.68,53.68,0,0,1,5.87-1.36v.21a14.73,14.73,0,0,0,2.57,11.05,11,11,0,0,0,10.26,4.29c3.84-.67,7.16-4.11,7.38-7.78.89,3.79,4.66,6.89,8.52,6.4a8.57,8.57,0,0,0,6.5-5.28,14.18,14.18,0,0,0,.74-7.76A39.76,39.76,0,0,1,325.28,309.79Z"/><path class="cls-15" d="M343.5,369.63l-22.47.1a351.21,351.21,0,0,1-1.35-44c1.29-2,3.46-4.55,4.78-7.56a12.19,12.19,0,0,0,.79-8.38,41.42,41.42,0,0,1,8.69,5.44l37.13,43c1.1-3.36,2.22-6.7,3.32-10.07l6.75-20.45,3-9.19,24.06,7.8c-.48,2.67-1,5.33-1.5,8q-1.77,9-3.9,18-2,8.58-4.35,17.07Z"/><path class="cls-1" d="M268.54,370l23-.1,29.5-.14,22.47-.1,55-.24,101.36-.46,10.16-.05q.47,7.69.9,15.41c0,5.68,2.28,11.77-1.64,16.71-5.21,6.58-14.81,5.87-22.35,5.9L468.5,407l-21.68.08-24.23.09-26.06.1-25.47.09h-1.78l-27.73.1-20.25.06H314l-26.61.1-25,.09-22.73.09-19.74.08c-7.47,0-13.53-1.91-18-8.55-5-7.6-5.09-20.19-5.09-29a.09.09,0,0,0,0-.07h10.46l32.24-.15Z"/><path class="cls-6" d="M781.66,309.41q-.3,6.58-.61,13.18a30.3,30.3,0,0,1-20.93,12.78c-8.69,1.09-22-2.29-24-8.68h0A70.06,70.06,0,0,0,781.66,309.41Z"/><path class="cls-4" d="M711,308.63a112,112,0,0,0-15,31.86c-2.78,1.87-5.48,3.89-8.15,6.06-3,2.46-5.88,5.07-8.62,7.8a126.71,126.71,0,0,1,19.55-51.23A85.38,85.38,0,0,0,711,308.63Z"/><path class="cls-11" d="M321.6,493.54a13.94,13.94,0,0,1-12-7.32,15.59,15.59,0,0,1,.59-15,19,19,0,0,1,11.67-8.52q15.12.06,30.33.24,18.33.22,36.83.64l-.16,22.51-.06,8.43-67.24.13Z"/><path class="cls-18" d="M124.75,388.2l1.72,3.87-2.63.33Z"/><path class="cls-19" d="M126.5,392.07l2.66,5.95-6.61.51,1.32-6.13Z"/><path class="cls-11" d="M506.2,474.81c-30.34-2.62-63.89-2.73-93.68-1.35v-.37c6.93-12.94,21.57-20.88,36.6-23.69s30.56-1.09,45.6,1.7c1,.19,1.5.63,2.47.85l.08-.11a8.41,8.41,0,0,0,7.05.79,11.61,11.61,0,0,0,1.17-.42h14a25.78,25.78,0,0,0,3.55.94,31.73,31.73,0,0,0,5.42.37,21.55,21.55,0,0,1,8.68,2.57q4.67,2.42,9.43,4.64l2.45,1.13c-15-3.59-31.95,1.5-42.32,13Z"/><polygon class="cls-18" points="169.17 388.74 169.92 392.55 167.21 392.09 169.17 388.74"/><path class="cls-20" d="M336.56,508.56l-3.15,21.32H121.48q1.53-10.3,3-20.61Z"/><path class="cls-5" d="M96.21,525.17c-.8,5.48-1.61,76-2.42,81.43H77.17l5.47-102,16.63-.05Z"/><path class="cls-15" d="M303.5,462.64h18.4a19,19,0,0,0-11.67,8.52,15.59,15.59,0,0,0-.59,15,13.94,13.94,0,0,0,12,7.32v1.15l-68.53.14v-1.22a13.93,13.93,0,0,1-12-7.32,15.67,15.67,0,0,1,.58-15,18.08,18.08,0,0,1,12.74-8.31Q278.83,462.67,303.5,462.64Z"/><polygon class="cls-19" points="169.92 392.55 170.95 397.71 164.51 396.69 167.21 392.09 169.92 392.55"/><path class="cls-21" d="M106.59,394.28q3.21,14.45,6.45,28.9h-6.79q-3.06-13.73-6.13-27.45Z"/><path class="cls-1" d="M412.68,494.49l-23.84.05.06-8.44h23.76C412.66,488.86,412.66,491.68,412.68,494.49Z"/><path class="cls-22" d="M129.16,398l1.9,25.16h-6.65l-1.85-24.69Z"/><path class="cls-5" d="M333.4,529.91q1.58-10.67,3.16-21.32l16.62-.06q-1.57,10.82-3.2,21.62c-.79,5.4-1.58,75.81-2.37,81.22H331C331.78,605.87,332.59,535.39,333.4,529.91Z"/><path class="cls-23" d="M135.84,423.12c.9-26.1,1.68-56.76,2.65-79.58h12.74c-.71,16.79-1.32,37.82-1.95,58.15v.15l-2.59-.11-.87,21.42h-10Z"/><path class="cls-22" d="M153.32,402l-.87,21.19h-6.63l.87-21.42,2.59.1Z"/><path class="cls-10" d="M412.66,486.05c0-4.32,0-8.6-.14-12.59,29.79-1.38,63.34-1.27,93.68,1.35v19.44l-93.56.19C412.66,491.68,412.66,488.86,412.66,486.05Z"/><path class="cls-21" d="M171,397.71l-4.62,25.34v.07c-.31,0-.6.06-.79.06h-5.82v-.06q2.37-13.22,4.82-26.43Z"/><path class="cls-15" d="M113,423.18h52.5a3.46,3.46,0,0,0,.79-.06c.87-.05,1.92-.05,2.11.79a7,7,0,0,1-.2,1.93c-.18,1.49-.35,3-.52,4.43q-.63,5.53-1.27,11.06-.75,6.36-1.47,12.74L163.45,467l-1.35,11.63-1,8.88c-.11.89-.21,1.77-.3,2.65l-49,.1-.09-.79c-.29-2.55-.58-5.1-.89-7.65l-1.25-10.89-1.47-12.69-1.52-13q-.69-5.87-1.36-11.74-.52-4.5-1-9c-.15-1.22.54-1.28,1.53-1.28H113Z"/><path class="cls-13" d="M693.57,271.14a27.28,27.28,0,0,1-.29,9.32,12.15,12.15,0,0,1-5.13,7.57,11.13,11.13,0,0,1-7.17,1.32,56.7,56.7,0,0,1-4.09-4.94,65.09,65.09,0,0,1-8.44-15.55,92.76,92.76,0,0,1-5.13-20.14c3.31-3.24,8.07-5.3,12.81-4.12,5.53,1.35,10,5.46,12.82,10.36S693,265.49,693.57,271.14Z"/><path class="cls-24" d="M781.7,308.49a6.91,6.91,0,0,1,0,.91,70,70,0,0,1-45.48,17.28c.41-3.95.84-8,1.26-12.1a91.94,91.94,0,0,0,37.9-3.68C777.5,310.2,779.62,309.39,781.7,308.49Z"/><path class="cls-25" d="M936.07,260.39l10,20a31,31,0,0,0-6.92,5.06l-10.63-21.31v-.29a57,57,0,0,0,7.39-3.34Z"/><path class="cls-2" d="M869.32,375.59,835.43,349c-15.86-12.46-34.08-26.64-54.25-26.31l-.13-.09h0a30.3,30.3,0,0,1-20.93,12.78c-8.69,1.08-22-2.3-24-8.68H734.6A82.33,82.33,0,0,0,696,340.49c-2.78,1.86-5.48,3.88-8.15,6.06a115.73,115.73,0,0,0-8.62,7.8c-9.68,9.63-17.88,20.78-25.68,32-6.81,9.82-11.55,16.58-18.65,26L674.49,462l2.06,2.56.78-5q3.17-19.23,6.65-38.37c4.3-32.55,22.63-63.49,49.47-83.14A35.61,35.61,0,0,0,757.93,347a35.25,35.25,0,0,0,15.32-4.12c9.56,45.72,38,83.86,59.44,105.18a148.1,148.1,0,0,0,12.81,11.47,12.23,12.23,0,0,1-4.09-10.09c.11-1.2.23-2.37.37-3.59A93.81,93.81,0,0,1,852,412.05a75.89,75.89,0,0,1,27.26-28.56Z"/><path class="cls-6" d="M972.28,302.19a16.38,16.38,0,0,1,.42,6.08,4.15,4.15,0,0,0-.79-.08,9.5,9.5,0,0,0-3.63.89A27.42,27.42,0,0,0,956,319.49l-.28.46a5.61,5.61,0,0,1-6.08-2,8,8,0,0,1-1.07-7.1,10.34,10.34,0,0,1,.7-1.77,17.05,17.05,0,0,1,3.25-4.43,28,28,0,0,1,9.54-6.42,10.43,10.43,0,0,1,5.07-.94,5.51,5.51,0,0,1,1.2.28A6.9,6.9,0,0,1,972.28,302.19Z"/><path class="cls-6" d="M939.11,285.49a31,31,0,0,1,6.92-5.06c.79-.44,1.65-.85,2.48-1.23a16.9,16.9,0,0,1,6.49-1.71,8.51,8.51,0,0,1,6.16,2.16,5.79,5.79,0,0,1,1.5,6.14v.07a12.88,12.88,0,0,0-3.46.79,33.66,33.66,0,0,0-12.78,8.25,19.05,19.05,0,0,0-2.9,3.73,3.72,3.72,0,0,1-1.46-.59,21.69,21.69,0,0,0,1.87-1.58,9.69,9.69,0,0,0,3.2-5.76c.19-2.24-1.19-4.74-3.39-5.13-1.64-.31-3.24.49-4.74,1.23-.55.28-1.12.54-1.68.79v-.1A20,20,0,0,1,939.11,285.49Z"/><path class="cls-4" d="M824.47,109.9c-.2-.43-.46-.87-.74-1.34,13.18,4.19,19,12.39,21.8,18.7a42.94,42.94,0,0,1,2.17,6.23c6.57,23.69,6.61,48.48,4.82,73.17-.31,4.27-.68,8.53-1.06,12.78-2.9,25.22-13.42,19.58-14.67,16.17s-1-7.16-.74-10.78q.65-11.06.55-22v-2.34c-.36-27.07-3.78-54.1-8.89-80.72A39.4,39.4,0,0,0,824.47,109.9Z"/><path class="cls-2" d="M663.32,248.72a92.76,92.76,0,0,0,5.13,20.14l-.26.1a19.42,19.42,0,0,1-17.63-5.53c-4.5-4.87-6.12-11.74-6.78-18.34a84.5,84.5,0,0,1,1.58-26.49c1.14-5.11,2.88-10.41,6.64-14.11a13.49,13.49,0,0,1,10.51-4c-.28,10.36-.79,20.71-.55,31.07A145,145,0,0,0,663.32,248.72Z"/><circle cx="706.91" cy="227.09" r="8.16"/><path class="cls-1" d="M845.4,266a26,26,0,0,1-8.64,5.29h0c-7.48.93-13.18-5.39-16.13-11.61-3.24-6.86-3.79-14.69-3.31-22.26.57-9,2.7-18.33,8.21-25.53a28.8,28.8,0,0,1,11.05-9q.09,11-.55,22c-.21,3.62-.47,7.37.74,10.78s11.77,9.05,14.67-16.17c.39-4.25.79-8.51,1.06-12.78h.11a22.2,22.2,0,0,1,4.74,6.77,31.48,31.48,0,0,1,2.37,8c1.15,7.17-.23,14.51-2.18,21.51a73.6,73.6,0,0,1-3.64,10.53,39.73,39.73,0,0,1-6.15,10A26.1,26.1,0,0,1,845.4,266Z"/><path class="cls-6" d="M943.48,298.6a19.12,19.12,0,0,1,2.9-3.74,33.66,33.66,0,0,1,12.78-8.22,12.51,12.51,0,0,1,3.46-.79,5.39,5.39,0,0,1,3.66.9,5.87,5.87,0,0,1,2.13,4.88,17.39,17.39,0,0,1-1.26,5.37v.37a10.41,10.41,0,0,0-5.07.94,28.12,28.12,0,0,0-9.55,6.42,17.46,17.46,0,0,0-3.25,4.43,5.07,5.07,0,0,1-5.91-1.84,7.53,7.53,0,0,1-.79-6.68A10.91,10.91,0,0,1,943.48,298.6Z"/><path class="cls-16" d="M848.23,270.28c1.26,2.24,2.08,4.64,1.37,7a7.3,7.3,0,0,1-6.31,4.85,9.75,9.75,0,0,1-7.6-2.74c-.68,5.4-5.93,9.29-11.3,10.22-4.57.79-9.21-.09-13.74-1.22l-.13-.12a108.91,108.91,0,0,0,13.42-16.78h0a17.91,17.91,0,0,0,3.68.87,19.66,19.66,0,0,0,9.15-1.08h0a26,26,0,0,0,8.64-5.29c.21.33.43.65.65,1A32.78,32.78,0,0,1,848.23,270.28Z"/><path class="cls-11" d="M761.1,256.43A20.06,20.06,0,0,1,724,270a24.73,24.73,0,0,1-2.73-7.48S749.57,258.56,761.1,256.43Z"/><path class="cls-18" d="M860.47,462.6v.08l-7.05,144.69H825.14c2.37-32.09,5.21-127.36,7.53-159.33a146.41,146.41,0,0,0,12.81,11.45,14.73,14.73,0,0,0,8.58,3.8A18,18,0,0,0,860.47,462.6Z"/><path class="cls-4" d="M875.83,464.38l-7.31,143h-15l7-144.69v-.08a22,22,0,0,0,5.12-2.12c1.91.9,3.85,1.73,5.84,2.46C872.89,463.49,874.34,464,875.83,464.38Z"/><path class="cls-26" d="M783.57,307.66c-.63.6-1.26,1.18-1.91,1.75a6.91,6.91,0,0,1,0-.91C782.33,308.22,783,308,783.57,307.66Z"/><circle cx="761.85" cy="227.34" r="8.16"/><path class="cls-26" d="M736.17,326.69h-1.52c.49-.06,1-.1,1.47-.14A.58.58,0,0,0,736.17,326.69Z"/><path class="cls-2" d="M836.57,200.49v2.33a28.8,28.8,0,0,0-11.05,9c-5.53,7.2-7.63,16.48-8.21,25.53-.48,7.57.07,15.4,3.32,22.26,2.94,6.22,8.64,12.54,16.13,11.61a19.66,19.66,0,0,1-9.15,1.08,17.91,17.91,0,0,1-3.68-.87c-5.88-2-10.71-7-13.43-12.67-3.24-6.84-3.79-14.68-3.32-22.25a60.61,60.61,0,0,1,2.18-13.17,37.25,37.25,0,0,1,6-12.36C820.61,204.23,828.33,199.28,836.57,200.49Z"/><path class="cls-4" d="M652,204.43c-3.73,3.73-5.48,9-6.61,14.14A84.27,84.27,0,0,0,643.61,231h0a127,127,0,0,1,13.32-48.59,47,47,0,0,0,5.57,0c.23,6,.15,12,0,18A13.56,13.56,0,0,0,652,204.43Z"/><path class="cls-18" d="M734.65,326.68A82.4,82.4,0,0,0,696,340.49a112.45,112.45,0,0,1,15-31.84,104.32,104.32,0,0,0,16.93,4.59c3.16.59,6.33,1.05,9.53,1.37-.42,4.06-.85,8.15-1.26,12.1h0a.88.88,0,0,1-.05-.15Z"/><path class="cls-18" d="M835.43,349c-15.86-12.46-34.08-26.64-54.25-26.31l-.13-.09h0q.32-6.6.61-13.19c.65-.56,1.28-1.14,1.91-1.74a90.89,90.89,0,0,0,26.95-19.35l.13.12c4.53,1.13,9.17,2,13.74,1.22,5.37-.93,10.62-4.82,11.3-10.22a9.75,9.75,0,0,0,7.6,2.74,7.3,7.3,0,0,0,6.31-4.85c.71-2.37-.11-4.8-1.37-7a54.52,54.52,0,0,1,16.8-1.09c8.45,1,17,5.67,20.27,13.54,3.37,8.14.46,17.37-2.1,25.78-6.68,21.9-10.87,44.38-13.88,67.11Z"/><path class="cls-6" d="M865.59,460.49c-8.43-3.95-16.19-9.32-23.81-14.75A93.86,93.86,0,0,1,852,412a75.79,75.79,0,0,1,27.22-28.59l4.54,3.56,5.11,4,.12.06c11.89-21.85,23.88-43.84,36.41-66.66-3.16-7.67-6.06-16.33-3-24a21.53,21.53,0,0,1,6.5-8.46,12.89,12.89,0,0,1,4-2.6c1.44-.54,2.88-1.14,4.28-1.78l1.69-.78c1.49-.74,3.09-1.54,4.73-1.24,2.21.43,3.59,2.89,3.4,5.14a9.42,9.42,0,0,1-3.21,5.76,21.55,21.55,0,0,1-1.86,1.58,4,4,0,0,0,1.45.59,11,11,0,0,0-.91,2,7.5,7.5,0,0,0,.79,6.68,5.09,5.09,0,0,0,5.91,1.84,11.12,11.12,0,0,0-.7,1.76,8.06,8.06,0,0,0,1.07,7.11,5.64,5.64,0,0,0,6.09,2l.37-.49a27.3,27.3,0,0,1,12.34-10.42,9.28,9.28,0,0,1,3.62-.89,3.47,3.47,0,0,1,.79.08c2.37.49,3.61,3.15,3.64,5.52a14.47,14.47,0,0,1-1.08,5.15,62.15,62.15,0,0,1-11.92,20.61,24.13,24.13,0,0,0-5.76,12c-.79,3.83-1.53,7.67-2.37,11.49-1.58,7.57-3.3,15.11-5.25,22.58-4.44,17.1-10.11,34-18.21,49.69-5.75,11.19-13.28,22.3-24.66,27.69-9.65,4.57-20.94,4.36-31.28,1.41-1.49-.43-3-.91-4.4-1.44C869.44,462.21,867.5,461.38,865.59,460.49Z"/><path class="cls-4" d="M879.29,383.42l-10-7.83c3-22.7,7.2-45.17,13.88-67.11,2.56-8.43,5.47-17.63,2.1-25.78-3.26-7.9-11.84-12.52-20.27-13.54a54.52,54.52,0,0,0-16.8,1.09,37,37,0,0,0-2.17-3.36,11.56,11.56,0,0,1-.66-1,27.19,27.19,0,0,0,2.37-2.43,39.76,39.76,0,0,0,6.16-10l.27.12c7.61-.88,15.22-1.13,22.7.28,12.36,2.3,24.48,10.05,28.43,22s-1.11,24.9-5.23,36.85c-8.24,23.82-13.14,49.19-16.23,74.21Z"/><path class="cls-17" d="M773.22,342.87a34.9,34.9,0,0,1-39.76-4.75c-26.84,19.65-45.2,50.59-49.48,83.11q-3.54,19.14-6.65,38.37c-.28,1.66-.54,3.33-.79,5q-2.37,14.64-4.45,29.31-1,6.73-1.88,13.48-1.59,11.36-3,22.73c-.67,5.4-1.31,71.81-1.94,77.22h129c5.26-41.58,10.51-144.16,15.74-185.74C794.45,400.58,779.64,373.41,773.22,342.87Z"/><path class="cls-27" d="M832.7,448.05A230.25,230.25,0,0,1,810,421.64c-5.26,41.58-10.51,144.16-15.74,185.74h30.93C827.53,575.25,830.37,480,832.7,448.05Z"/><path class="cls-16" d="M867.26,165.18a.74.74,0,0,0,0-.21c-1-15.11-8.68-30.71-21.72-37.71a42.94,42.94,0,0,1,2.17,6.23,163.07,163.07,0,0,1,5.42,34,297.11,297.11,0,0,1-.61,39.13h.11a21.63,21.63,0,0,1,4.74,6.77C862.94,197.83,868.28,181.69,867.26,165.18Z"/><path class="cls-16" d="M827.68,119.76a39.39,39.39,0,0,0-3.21-9.86c-.2-.43-.46-.87-.74-1.34-7.44-11.85-43.92-36.32-106.29-21.37a212.31,212.31,0,0,0-24.53,7.52,69,69,0,0,1-17,4c-11,1.12-22.1,2.07-32.15,6.54-10.86,4.83-20,13.88-24.13,25s-3.19,24.24,3.25,34.24c7.27,11.23,20.53,17.27,34,18a47,47,0,0,0,5.57,0,51.56,51.56,0,0,0,5.26-.57c12.63-2.09,24.06-8.3,34.11-16.34a29.89,29.89,0,0,0,5.46,5.14c8.52,6.22,19.54,8.21,30.08,7.68a72.25,72.25,0,0,0,41.51-16,48.94,48.94,0,0,0,4.69,23.51,38.92,38.92,0,0,0,12.14,14.21c2.29,1.63,4.14,2.94,4.91,5.74a56.07,56.07,0,0,0,3.27,9.07,50.86,50.86,0,0,0,5,8.4l.46.14a37.25,37.25,0,0,1,6-12.36c5.19-6.78,12.91-11.72,21.15-10.52-.16-13-1-26.06-2.49-39C832.53,147.49,830.34,133.57,827.68,119.76Z"/><path class="cls-28" d="M936,260.23l-4.34-4.16L928,257.69l.42,6.15a57,57,0,0,0,7.39-3.33l.22-.12Z"/><polygon class="cls-16" points="927.68 252.28 928.04 257.68 928.04 257.69 931.64 256.08 927.68 252.28"/><path class="cls-2" d="M371,407.49v-.14h-1.78l-27.73.1-20.23.08v.27l-5.86,18.07h49.34Z"/><path class="cls-1" d="M315.42,425.88,303.5,462.64h18.4q15.12.06,30.33.23l12.55-37Z"/><path class="cls-20" d="M353.19,508.49q-1.57,10.82-3.2,21.62H635.61L632,507.49Z"/><polygon class="cls-4" points="643.41 493.97 641.34 493.97 506.24 494.25 412.68 494.44 388.84 494.49 321.59 494.63 253.07 494.76 186.09 494.9 137.08 494.99 85.24 495.1 85.24 509.44 107.91 509.36 124.53 509.3 336.56 508.56 353.19 508.5 643.41 507.49 643.41 493.97"/><path class="cls-15" d="M844.25,128.17a2.92,2.92,0,0,0,2.14.52c1.23-.39,1.27-2.12,1-3.38a25.88,25.88,0,0,0-20.66-18.94c-1.33-.21-3-.11-3.53,1.13s.7,2.54,1.58,3.64c1.58,2,2.07,4.67,2.52,7.2.31,1.76.24,5.29,1.19,6.75s2.74.51,4.58.48A23.74,23.74,0,0,1,844.25,128.17Z"/><path class="cls-4" d="M673.62,301.49a17,17,0,0,0,8.9,7.35,7.28,7.28,0,0,0,4.3.41,3.43,3.43,0,0,0,2.62-3.16,4,4,0,0,0-2.08-3.06c-1.09-.7-2.37-1.11-3.41-1.81-2.68-1.71-4.54-5.65-7.9-6.18C672.14,294.49,672.24,299.14,673.62,301.49Z"/><path class="cls-29" d="M325.15,166.19v.12h1.52A9.64,9.64,0,0,1,325.15,166.19Z"/><path class="cls-11" d="M326.67,149.14a7.11,7.11,0,0,0,0,14.21h18.25a7.11,7.11,0,0,0,0-14.21Z"/><path class="cls-4" d="M316.6,146.17a10.06,10.06,0,1,0-.63,20.11h9.17v-.09a10.06,10.06,0,0,1,1.53-20Z"/><path class="cls-15" d="M352,156.22a7.1,7.1,0,0,0-7.1-7.1H326.67a7.11,7.11,0,0,0,0,14.21h18.25A7.11,7.11,0,0,0,352,156.22Zm-21.06,10.06h-4.27a9.64,9.64,0,0,1-1.52-.12,10.05,10.05,0,0,1,1.52-20h18.25a10.06,10.06,0,1,1,.63,20.11H330.94Z"/><path class="cls-4" d="M325.15,166.28v2.51H337v-2.51Z"/><path class="cls-4" d="M342.57,156.22a2,2,0,1,0,2-2A2,2,0,0,0,342.57,156.22Z"/><circle class="cls-15" cx="330.6" cy="156.22" r="5.16"/><path class="cls-4" d="M328.64,156.22a2,2,0,1,0,2-2A2,2,0,0,0,328.64,156.22Z"/><path class="cls-16" d="M770.43,199.21a2.38,2.38,0,0,1-1.51-.55c-3.35-2.77-8.54-6-14.26-5.53a2.37,2.37,0,0,1-.36-4.73c7.3-.56,13.63,3.28,17.64,6.61a2.36,2.36,0,0,1-1.51,4.2Z"/><path class="cls-16" d="M690.73,201.49a2.31,2.31,0,0,1-1.58-.62,2.36,2.36,0,0,1-.19-3.33l0,0h0a22.76,22.76,0,0,1,14.67-7.3,2.37,2.37,0,1,1,.42,4.73,17.93,17.93,0,0,0-11.56,5.77A2.42,2.42,0,0,1,690.73,201.49Z"/><path class="cls-24" d="M719.62,254.66a1.23,1.23,0,0,1-.62-.17,20.26,20.26,0,0,1-7-6.43,10.09,10.09,0,0,1-.62-9.74,10.32,10.32,0,0,1,6.66-4.74,26.55,26.55,0,0,1,7.75-.48,1.19,1.19,0,0,1-.1,2.37,24.59,24.59,0,0,0-7.11.4,7.93,7.93,0,0,0-5.15,3.6,7.69,7.69,0,0,0,.57,7.39,17.91,17.91,0,0,0,6.15,5.62,1.2,1.2,0,0,1-.62,2.21Z"/><path class="cls-24" d="M939.66,320.85a1.14,1.14,0,0,1-.41-.07,1.17,1.17,0,0,1-.7-1.51h0a17,17,0,0,0-2-15.22c-.12-.18-.23-.33-.34-.48a2.44,2.44,0,0,1-.71-2,2.62,2.62,0,0,1,1.38-1.62,33.8,33.8,0,0,0,6.16-4.39,8.2,8.2,0,0,0,2.84-5c.13-1.65-.79-3.56-2.43-3.87-1.22-.22-2.59.45-4,1.09h-.08a1.19,1.19,0,0,1-1.32-2,1.33,1.33,0,0,1,.32-.15h.08c1.57-.79,3.4-1.66,5.39-1.28,3,.56,4.58,3.75,4.36,6.39a10.43,10.43,0,0,1-3.57,6.52,36.44,36.44,0,0,1-6.57,4.74H938l.08.11c.13.16.26.34.4.55a18.65,18.65,0,0,1,1.74,3.16,19.38,19.38,0,0,1,.5,14.21A1.17,1.17,0,0,1,939.66,320.85Z"/><path class="cls-24" d="M947.57,310.67a6.56,6.56,0,0,1-5.22-2.67,8.7,8.7,0,0,1-.92-7.74,16.29,16.29,0,0,1,4.1-6.23,35.06,35.06,0,0,1,13.22-8.54,13.66,13.66,0,0,1,4.09-.88,1.18,1.18,0,0,1,1.23,1.1h0a1.2,1.2,0,0,1-1.14,1.23,11.48,11.48,0,0,0-3.38.73,32.75,32.75,0,0,0-12.32,7.9,14.13,14.13,0,0,0-3.54,5.31,6.38,6.38,0,0,0,.59,5.62,3.86,3.86,0,0,0,4.64,1.37A1.19,1.19,0,1,1,950,310h0A5.45,5.45,0,0,1,947.57,310.67Z"/><path class="cls-24" d="M959,327.63c-2.18,0-4.33-.88-5.16-2.87-.7-1.66-.32-3.58,1.14-5.89A28.69,28.69,0,0,1,967.86,308a10.26,10.26,0,0,1,4-1h0a1.19,1.19,0,0,1,1,1.31h0a1.21,1.21,0,0,1-1,1h0a8.45,8.45,0,0,0-3.16.78,26.26,26.26,0,0,0-11.76,10c-1,1.58-1.34,2.81-1,3.71.56,1.34,2.63,1.65,4.31,1.25,4-1,7.2-4.36,9.77-7.1a1.2,1.2,0,0,1,1.68,0,1.17,1.17,0,0,1,.07,1.65l0,0h0c-2.79,3-6.26,6.68-11,7.79A7.91,7.91,0,0,1,959,327.63Z"/><path class="cls-30" d="M266.62,337.4a16.33,16.33,0,0,0-10.26-7.23l.37-1.74a18.11,18.11,0,0,1,11.4,8Z"/><rect class="cls-30" x="261.91" y="360.02" width="19.52" height="1.79" transform="translate(-125.89 575.42) rotate(-81.38)"/><rect class="cls-30" x="341.3" y="341.24" width="1.79" height="29.14" transform="translate(-52.39 59.15) rotate(-9.18)"/><path class="cls-24" d="M397.2,297.49a1.21,1.21,0,0,1-1.14-1.26,1.25,1.25,0,0,1,.14-.5,12.29,12.29,0,0,0,.61-10.15,1.17,1.17,0,0,1,.5-1.45,19,19,0,0,0,7-7.27c.56-1,.55-1.49.44-1.7-.26-.48-1.39-.45-2.37-.17a21.81,21.81,0,0,0-3.57,1.39,1.2,1.2,0,0,1-1.56-.65,1.18,1.18,0,0,1,.52-1.49,25.49,25.49,0,0,1,3.94-1.53c2.41-.68,4.33-.19,5.14,1.34s-.14,3.38-.45,3.95a21.59,21.59,0,0,1-7.06,7.65,14.75,14.75,0,0,1-1.06,11.2A1.19,1.19,0,0,1,397.2,297.49Z"/><path class="cls-16" d="M319.26,271a11.89,11.89,0,0,1-9.87-6.09c-1.94-3.35-2.62-7.6-2-12.63v-.27l.18-.21A17,17,0,0,1,318.78,246a18,18,0,0,1,12,3.11l.39.28v.48c0,.79-.06,1.62-.08,2.45a34.16,34.16,0,0,1-1.21,9.85c-1.54,4.73-5.14,8.14-9.18,8.78A14,14,0,0,1,319.26,271ZM309.09,252.8c-.49,4.52.13,8.31,1.84,11.26,2.06,3.55,5.94,5.66,9.42,5.11s6.42-3.49,7.75-7.56a33.21,33.21,0,0,0,1.13-9.36c0-.67,0-1.33.06-2a16.11,16.11,0,0,0-10.29-2.5A15.28,15.28,0,0,0,309.09,252.8Z"/><path class="cls-16" d="M290.28,271.3a7.78,7.78,0,0,1-1.36-.1c-4-.62-7.65-4.06-9.18-8.77a34,34,0,0,1-1.21-9.84c0-.83,0-1.65-.08-2.45v-.49l.39-.28a18,18,0,0,1,11.94-3.16,17.1,17.1,0,0,1,11.2,5.86l.19.21v.27c.59,5-.1,9.29-2,12.64A11.78,11.78,0,0,1,290.28,271.3Zm-10-20.74c0,.65.05,1.31.06,2a32.7,32.7,0,0,0,1.12,9.34c1.33,4.07,4.38,7,7.76,7.56s7.36-1.58,9.42-5.11c1.7-2.94,2.37-6.73,1.84-11.26a15.27,15.27,0,0,0-9.87-5.05,16.16,16.16,0,0,0-10.33,2.52Z"/><path class="cls-16" d="M301.53,253.64l-.88-1.58a9,9,0,0,1,8-.36l-.78,1.65A7.21,7.21,0,0,0,301.53,253.64Z"/><path class="cls-24" d="M954.11,321.41a7,7,0,0,1-5.45-2.69,9.16,9.16,0,0,1-1.26-8.13,16.26,16.26,0,0,1,4.23-6.69,29.19,29.19,0,0,1,10-6.7c1.81-.73,4.52-1.58,7.1-.67a1.18,1.18,0,0,1-.79,2.23h0c-1.39-.49-3.15-.29-5.42.64a27.33,27.33,0,0,0-9.15,6.15,13.9,13.9,0,0,0-3.65,5.7,6.87,6.87,0,0,0,.86,6,4.33,4.33,0,0,0,5.13,1.41,1.18,1.18,0,1,1,1.09,2.1A5.6,5.6,0,0,1,954.11,321.41Z"/><rect class="cls-31" x="505.03" y="475.22" width="2.38" height="18.97" transform="translate(-3.29 3.46) rotate(-0.39)"/><path class="cls-24" d="M495.15,448.71h0a1.2,1.2,0,0,1-1.15-1.22,8.46,8.46,0,0,1,.73-3.25,14.38,14.38,0,0,1,3.86-4.83,31.75,31.75,0,0,1,21.56-7.68,1.19,1.19,0,1,1,.19,2.38h-.26a29.33,29.33,0,0,0-19.93,7.11,11.58,11.58,0,0,0-3.25,4,5.81,5.81,0,0,0-.52,2.32,1.2,1.2,0,0,1-1.23,1.17Z"/><path class="cls-8" d="M405.1,235.38a1.18,1.18,0,0,1-1.05-.65l-7-13.59a1.19,1.19,0,0,1,1.78-1.58,1.13,1.13,0,0,1,.22.36.54.54,0,0,1,.07.13l5.07,9.88,1.32-16.44a1.22,1.22,0,0,1,1.17-1.1l33.47-.51a1.21,1.21,0,0,1,1.21,1.17,1.19,1.19,0,0,1-1.17,1.21h0l-32.37.5L406.3,234.3a1.22,1.22,0,0,1-1,1.08Z"/><path class="cls-8" d="M420.1,233.41a1.2,1.2,0,0,1-.88-.39,57.74,57.74,0,0,1-7.9-11.09,1.19,1.19,0,0,1,2.09-1.14A55.66,55.66,0,0,0,421,231.43a1.18,1.18,0,0,1-.07,1.67h0a1.18,1.18,0,0,1-.8.31Z"/><path class="cls-8" d="M412.37,235.49a1.16,1.16,0,0,1-.67-.21,1.21,1.21,0,0,1-.3-1.65c1.25-1.82,2.69-4.29,4.08-6.67s2.87-4.94,4.17-6.82a1.2,1.2,0,1,1,2,1.32c-1.25,1.82-2.69,4.29-4.08,6.68s-2.87,4.93-4.17,6.82A1.21,1.21,0,0,1,412.37,235.49Z"/><path class="cls-8" d="M431.52,227.33h0l-6.92-.2a1.2,1.2,0,0,1-1.29-1.08h0a1.2,1.2,0,0,1,1.09-1.29h.27l6.92.2a1.19,1.19,0,0,1,1.26,1.12,1.2,1.2,0,0,1-1.12,1.26h-.21Z"/><path class="cls-8" d="M440.76,233.62a7.6,7.6,0,1,1,5.76-12.35,6,6,0,0,1,1.41,3.75,4.43,4.43,0,0,1-2.06,3.77,3.69,3.69,0,0,1-3.3.22,3,3,0,0,1-1.12.6,3.13,3.13,0,0,1-2.94-.58,3.25,3.25,0,0,1-1.1-2.29,3.8,3.8,0,0,1,.9-2.7,4.53,4.53,0,0,1,4.62-1.17,1.2,1.2,0,0,1,.91,1.42,1.18,1.18,0,0,1-1.42.9l-.18-.05a2.13,2.13,0,0,0-2.15.48,1.31,1.31,0,0,0-.31,1,1,1,0,0,0,.28.66.81.81,0,0,0,.71.09.53.53,0,0,0,.36-.29,1.18,1.18,0,0,1,.88-.83,1.16,1.16,0,0,1,1.16.37,1.28,1.28,0,0,0,1.5.15,2.05,2.05,0,0,0,.89-1.73,3.67,3.67,0,0,0-.89-2.25,5.24,5.24,0,1,0-1.88,8,1.19,1.19,0,0,1,1,2.16h0A7.2,7.2,0,0,1,440.76,233.62Z"/><path class="cls-8" d="M458.62,256h-21a1.19,1.19,0,0,1,0-2.37h21a1.19,1.19,0,0,1,0,2.37Z"/><path class="cls-8" d="M443.91,247.15a1.22,1.22,0,0,1-1-.61,1.24,1.24,0,0,1,0-1.21l4.58-7.37a1.19,1.19,0,0,1,2,1.25L446,244.74h5.65a1.19,1.19,0,0,1,.22,2.37h-.22l-7.8.06Z"/><path class="cls-8" d="M452.34,250.61a1.18,1.18,0,0,1-1.18-1.18v-6.94a1.19,1.19,0,0,1,2.36,0v6.91a1.18,1.18,0,0,1-1.15,1.21Z"/><path class="cls-8" d="M448.58,272.13h-.42c-2.72,0-4.39-.86-4.94-2.48a1.19,1.19,0,0,1,.73-1.52h0a1.18,1.18,0,0,1,1.51.72h0c.26.74,1.81.87,2.71.87a6.8,6.8,0,0,0,2.93-.38c.58-.28,1.11-.94,1-1.47A1.48,1.48,0,0,0,451,267a7,7,0,0,0-2.28-.08,1.18,1.18,0,0,1-.6-2.25,7.3,7.3,0,0,0,2.41-1.58,1.22,1.22,0,0,0,.31-1.71,1.21,1.21,0,0,0-1.5-.43,6.83,6.83,0,0,0-2.29,1.1,1.19,1.19,0,0,1-1.26-2,8.94,8.94,0,0,1,3.16-1.42,3.57,3.57,0,0,1,3.43,6,2.73,2.73,0,0,1-.23.25,3.67,3.67,0,0,1,2.25,2.45,3.81,3.81,0,0,1-2.25,4.17A8.08,8.08,0,0,1,448.58,272.13Z"/><path class="cls-8" d="M394.18,255.13a.94.94,0,0,1-.37-.07,24.7,24.7,0,0,1-10.51-6.83,1.19,1.19,0,0,1,1.76-1.58,22.44,22.44,0,0,0,9.47,6.18,1.19,1.19,0,0,1,.77,1.49,1.16,1.16,0,0,1-1.14.82Z"/><path class="cls-8" d="M384.12,258.35a1.16,1.16,0,0,1-.67-.21,1.19,1.19,0,0,1-.32-1.64h0l7.39-10.88a1.2,1.2,0,0,1,2,1.32l-7.39,10.9A1.19,1.19,0,0,1,384.12,258.35Z"/><g class="cls-32"><text class="cls-33" transform="translate(532.86 57.05)">H</text><text class="cls-33" transform="translate(571.76 57.05)">T</text><text class="cls-33" transform="translate(602.47 57.05)">ML</text></g><rect class="cls-34" x="243.09" y="2" width="184" height="67" rx="11.84" ry="11.84"/><rect class="cls-13" x="236.42" width="184" height="65" rx="11.67" ry="11.67"/><text class="cls-33" transform="translate(283.52 53.05)">CSS</text><rect class="cls-16" x="151.39" y="125.14" width="118.7" height="71.86" rx="9.85" ry="9.85"/><rect class="cls-15" x="147.09" y="123" width="118.7" height="69.71" rx="9.7" ry="9.7"/><text class="cls-33" transform="translate(178.86 179.71)">C#</text></g></g></svg>