<svg xmlns="http://www.w3.org/2000/svg" viewBox="0 0 1224.91 587.5"><defs><style>.cls-1{fill:#e1f5fe;}.cls-2{fill:#2e5bbf;}.cls-3{fill:#2a53ad;}.cls-4{fill:#ffc3a8;}.cls-5{fill:#fffffd;}.cls-6{fill:#99e7ff;}.cls-7{fill:#bf3426;}.cls-8{fill:#ebebeb;}.cls-9{fill:#fff;}.cls-10{fill:#ffae84;}.cls-11{fill:#ffa995;}.cls-12{fill:#ff9566;}.cls-13{fill:#fe9126;}.cls-14{fill:#00bffb;}.cls-15{fill:#002169;}.cls-16{fill:#fffbff;}.cls-17{fill:#ffd24c;}.cls-18{fill:#203f85;}.cls-19{fill:#99e6fd;}.cls-20{fill:#21428a;}.cls-21{fill:#59d9fd;}.cls-22{fill:#0a81d1;}.cls-23{fill:#58d7fc;}.cls-24{fill:#ff8570;}.cls-25{fill:#fdc242;}.cls-26{fill:#a66e6e;}.cls-27{fill:#ffe8e8;}.cls-28{fill:#fd7d42;}.cls-29{fill:#7964ff;}.cls-30{fill:#0057c2;}.cls-31{fill:#9e9e9e;}</style></defs><title>slide 2</title><g id="Layer_2" data-name="Layer 2"><g id="Layer_1-2" data-name="Layer 1"><path class="cls-1" d="M1224.38,552.46c4.77-63.5-22.87-128.59-71.87-169.24-57.73-47.89-138.5-59.71-212.89-50.14s-144.77,38.13-215.39,63.4S580,444.21,505.11,440.78c-90.54-4.14-176-45.77-266.52-51.18-58.33-3.49-119,9.23-166.07,43.93S-5.56,526.75.83,584.84c.1.89.21,1.78.32,2.66H1218.42A193.29,193.29,0,0,0,1224.38,552.46Z"/><path class="cls-2" d="M838.11,277.24A49.05,49.05,0,0,1,815,233.46l4.51.26a44.41,44.41,0,0,0,21,39.65Z"/><path class="cls-3" d="M781.31,537.13l-21.06-.08c1.35,9.13,7.1,43.6,8.11,50.45h21C788.39,580.56,782.65,546.14,781.31,537.13Z"/><path class="cls-4" d="M881.57,286.42a110.22,110.22,0,0,1-15.49-7A88.06,88.06,0,0,1,843.52,262a14,14,0,0,0,9.08-1.67,15.34,15.34,0,0,0,6.5-9.58,34.66,34.66,0,0,0,.37-11.81c-.73-7.12-2.31-14.27-5.85-20.49s-9.29-11.41-16.24-13.13c-6-1.49-12,1.12-16.22,5.23a181.5,181.5,0,0,1-1.79-21.79c-.34-13.12.34-26.24.69-39.36.2-7.62.3-15.24,0-22.84a64.26,64.26,0,0,0,6.66-.73c16-2.64,30.48-10.51,43.2-20.69a38.1,38.1,0,0,0,6.92,6.51c10.79,7.87,24.75,10.4,38.1,9.73a91.62,91.62,0,0,0,52.58-20.3,61.72,61.72,0,0,0,5.94,29.78,49.11,49.11,0,0,0,15.37,18c2.9,2.06,5.25,3.72,6.22,7.27a71.27,71.27,0,0,0,4.14,11.49,64.52,64.52,0,0,0,6.36,10.64l.58.17a77.19,77.19,0,0,0-2.76,16.69c-.6,9.58.1,19.51,4.21,28.18,3.42,7.22,9.54,13.46,17,16.05v0a138.51,138.51,0,0,1-17,21.32,114.89,114.89,0,0,1-34.14,24.51c-.78.37-1.56.71-2.36,1.06q-3.95,1.69-8.06,3.05c-15.39,5.08-31.84,6.27-48,4.66q-6.09-.6-12.08-1.73A132.46,132.46,0,0,1,881.57,286.42ZM995.87,243c4.7-5.68,7.4-13.29,6.06-20.54s-7-14.83-15.15-15.71c-7.11-.77-14.29,2.14-19.76,6.76s-9.4,10.78-12.54,17.22A34.72,34.72,0,0,0,950.77,242a15.3,15.3,0,0,0,2.81,11.22c2.73,3.4,7.22,5.06,11.58,5.13s8.63-1.24,12.66-2.89C984.64,252.63,991.16,248.71,995.87,243Zm-60.18,1.68A26,26,0,0,0,945,220.3c-14.61,2.68-50.46,7.76-50.46,7.76a31.66,31.66,0,0,0,3.46,9.48,25.31,25.31,0,0,0,37.68,7.17Zm-49-61.57a10.34,10.34,0,1,0-10.34,10.34A10.33,10.33,0,0,0,886.71,183.14Z"/><path class="cls-5" d="M333.3,285.52a59.11,59.11,0,0,0-23.16,12.67c-9.41,8.51-15.52,20.17-19.28,32.28-3.41,11-5,22.39-6.46,33.81l-40.83.18c0-.44,0-.88-.08-1.32q-.92-15.42-1.82-30.85l-2.24-37.73L237,253.08,234.49,211l-2.34-39.54q-1-16.92-2-33.84c-.28-4.67-1.77-10.69,2.34-14.11,3.68-3.06,9.3-2.53,13.72-2.55l14.76,0c5.43,0,10.86,0,16.29-.06l17.62-.07,18.75-.07q9.84,0,19.68-.08l20.42-.07,21-.08,21.3-.08,21.43-.07,21.38-.09,21.13-.07,20.66-.08,20-.08,19.16-.07,18.12-.06,16.87-.07,15.42,0L584,119.7c4,0,8,.13,11.94,0,2.26-.1,3.71,2.08,4,4.07.46,2.84.39,5.86.57,8.73q.54,9.1,1.07,18.2c0,.55.07,1.09.1,1.64.34,5.88.7,11.76,1,17.64q.57,9.65,1.15,19.29.6,10.25,1.21,20.5L606.32,231q.64,10.83,1.28,21.67t1.28,21.61q.63,10.59,1.25,21.15l1.2,20.24q.55,9.46,1.12,18.92.51,8.58,1,17.17c.22,3.66.44,7.33.65,11l-128.38.58q3-10.75,5.51-21.61,2.68-11.36,4.94-22.82,1-5.07,1.9-10.16c.08-.43.17-.88.24-1.31.66-3.76,1.06-7.63,1.91-11.34a4.92,4.92,0,0,1,1.79-2.51,15.42,15.42,0,0,0,2.3-2.61,15.23,15.23,0,0,0,2.59-6.5,8.4,8.4,0,0,0,6-6.18,8.1,8.1,0,0,0-3.18-8.14,8.79,8.79,0,0,0,2.5-7.89,7,7,0,0,0-6.07-5.13,7.61,7.61,0,0,0,.66-7.26,6.58,6.58,0,0,0-6.06-3.6c4.69-5.3,8.79-10.27,12.66-15.4,1.49-2,3-4.69,1.61-6.74a4.1,4.1,0,0,0-4.17-1.44,10.94,10.94,0,0,0-4.14,2.08c-7.94,5.6-14.86,12.51-21.59,19.54A30.57,30.57,0,0,0,470,282.69a27.32,27.32,0,0,1,1.17,2.75c.48,1.86-.46,4-1,5.69-.7,2.16-1.42,4.31-2.13,6.47l-.43,1.31-3.84,11.64-8.55,25.9c-1.4,4.26-2.81,8.5-4.2,12.75l-47.08-54.43a54.68,54.68,0,0,0-17.61-9.51A53.69,53.69,0,0,0,376.14,283l-.2,0a5.47,5.47,0,0,0-.16-.7c0-.81-.09-1.7-.15-2.62l-.09-1.46h8c6,0,11.62.4,17.35-2,8.87-3.75,15.48-12.6,16.09-22.21a24.8,24.8,0,0,0-7.66-19.19c-.79-.75-1.85-1.34-2.56-2.13a6.35,6.35,0,0,1-1.29-3.51,6.16,6.16,0,0,1,.75-2.86,22.65,22.65,0,0,0,.95-3.55,19,19,0,0,1,.28-2.66c.65-1.85,3.65-2.81,5.18-3.68a33.15,33.15,0,0,0,5.66-4,28.62,28.62,0,0,0,7.91-11.13c3.43-8.92,1.29-20.07-6.07-26.16-4.95-4.09-11.65-5.61-18.06-5.27a24.53,24.53,0,0,0-6.44.89,14.6,14.6,0,0,1-4.66,1.07A17.92,17.92,0,0,1,380.8,169c-4.48-2.9-8.81-5.38-14-6.75a54,54,0,0,0-25.69,0c-16.17,3.66-31,13.5-39.92,27.51a56.71,56.71,0,0,0-8.62,26.66c-.47,7.43.53,15.35-3,22.22s-8.53,11.42-9.23,19.49c-.87,9.91,4.61,20.22,13.55,24.58,8.49,4.14,19.59,2.31,26.11-4.45H346.5c.15,1.57.31,3.14.46,4.71l-.12,0c-2,.17-4.08.42-6.1.77A65.71,65.71,0,0,0,333.3,285.52Z"/><polygon class="cls-6" points="609.02 269.88 451.52 269.78 437.75 120.16 418.93 119.9 434.15 286.6 609.81 286.98 609.02 269.88"/><path class="cls-7" d="M1051.91,477.39a15.44,15.44,0,0,1-5.18-12.78c.13-1.52.28-3,.46-4.54,9.66,6.87,19.48,13.67,30.16,18.68a28.62,28.62,0,0,1-6.48,2.69,23,23,0,0,1-8.09.76A18.62,18.62,0,0,1,1051.91,477.39Z"/><path class="cls-8" d="M793.32,512v9.19l-171.12.34-.05-24.62.63.06c13.13-14.6,34.55-21,53.6-16.5q10.56,4.8,21.39,9c16.59,6.41,33.57,11.81,50.68,16.67,4.45,1.26,8.9,2.5,13.37,3.69,9.87,2.66,20.32,5.19,30.2,2.57C792.46,512.25,792.89,512.12,793.32,512Z"/><path class="cls-9" d="M374.82,242.81c1.19,1.09.95,3.06.26,4.52a10.42,10.42,0,0,1-18.51.71,5.49,5.49,0,0,1-.83-2.76,2.86,2.86,0,0,1,1.33-2.45c1.44-.81,3.8-.18,5.34-.06a27.64,27.64,0,0,0,8.12-.42C372,242,373.72,241.79,374.82,242.81Z"/><path class="cls-10" d="M345.65,269.51a78.47,78.47,0,0,1-19.18-6.6,35.51,35.51,0,0,0-.08-7.29,57.2,57.2,0,0,0-2.72-11.76c-.61-1.89-1.47-3.73-2-5.63a9.22,9.22,0,0,1,.14-5.67,31.19,31.19,0,0,1,1.85-2.63c.62-1,1.2-1.93,1.73-2.94a38.72,38.72,0,0,0,4.14-12.55l0-.13q2.7-.6,5.37-1.29c.16,4.73,0,9.81,1.54,14.53,1.62,5,5.55,9.55,10.73,10.35s10.42-2.48,13.06-7,3-10,2.45-15.22a10.21,10.21,0,0,1,8.77-.32c-.59,5.2-.16,10.68,2.45,15.2s7.87,7.82,13.07,7,9.1-5.38,10.72-10.35a3.79,3.79,0,0,0,.14-.48c0,1.09.06,2.18.09,3.28,6.4,9.22,3.27,22.78-4.83,30.53a38,38,0,0,1-18.11,9.19,59.81,59.81,0,0,1-13,1.42A78.25,78.25,0,0,1,345.65,269.51Zm29.43-22.18c.69-1.46.93-3.43-.26-4.52s-2.83-.77-4.29-.46a27.64,27.64,0,0,1-8.12.42c-1.54-.12-3.9-.75-5.34.06a2.86,2.86,0,0,0-1.33,2.45,5.49,5.49,0,0,0,.83,2.76,10.42,10.42,0,0,0,18.51-.71Z"/><path class="cls-11" d="M1001.93,222.49c1.34,7.25-1.36,14.86-6.06,20.54s-11.23,9.6-18,12.41c-4,1.65-8.3,3-12.66,2.89s-8.85-1.73-11.58-5.13A15.3,15.3,0,0,1,950.77,242a34.72,34.72,0,0,1,3.71-11.22c3.14-6.44,7.07-12.62,12.54-17.22s12.65-7.53,19.76-6.76C994.88,207.66,1000.59,215.24,1001.93,222.49Z"/><path class="cls-4" d="M621.24,468.24c-.48.2-1,.37-1.48.53-2.94.9-6.52.72-8.93-1a6.24,6.24,0,0,1-1.84-2,6.64,6.64,0,0,1-.84-3.11,6.8,6.8,0,0,1-8,1.69c-3.18-1.52-4.93-5.18-5-8.71s1.33-6.92,3.06-10a44,44,0,0,1,53.28-19.83c7.85,2.78,15.65,5.54,23.79,7.2,4.67,1,10,.48,14.78.67q7.59.32,15.17.68c20.15.95,40.3,2.1,60.45,3.26,1.41.07,2.81.15,4.22.24,6.14-8,11-14.38,15.26-20l50.15,62.87-20.55,17.49c-6.51,5.55-13.33,11.25-21.45,13.78-.43.13-.86.26-1.3.37-9.88,2.62-20.33.09-30.2-2.57-4.47-1.19-8.92-2.43-13.37-3.69-17.11-4.86-34.09-10.26-50.68-16.67q-10.83-4.17-21.39-9L673.27,479q-6-2.82-11.94-5.88c-3.15-1.64-7.35-3.21-11-3.26a39.43,39.43,0,0,1-6.86-.47,32.94,32.94,0,0,1-4.49-1.18,30.32,30.32,0,0,1-8.25-4.25C627.41,464.91,624.48,467,621.24,468.24Z"/><path class="cls-6" d="M376.14,283a53.69,53.69,0,0,1,10.19,2.22,18,18,0,0,1-.93,9.83,10.87,10.87,0,0,1-8.24,6.69c-4.89.62-9.66-3.3-10.79-8.1v-.06a12.59,12.59,0,0,0,7.36-3.68,8.38,8.38,0,0,0,2.22-6.87Z"/><path class="cls-12" d="M375.54,278.29l.09,1.46a43.67,43.67,0,0,1-29.69-7.22c-.1-1-.19-2-.29-3a78.25,78.25,0,0,0,16.3,1.63,59.81,59.81,0,0,0,13-1.42C375,270.8,375.29,274.61,375.54,278.29Z"/><path class="cls-13" d="M626.67,357.44l.3,5.29-12.86.06c-.21-3.66-.43-7.33-.65-11q-.51-8.58-1-17.17-.57-9.47-1.12-18.92l-1.2-20.24q-.63-10.58-1.25-21.15-.63-10.8-1.28-21.61T606.32,231l-1.26-21.31q-.62-10.24-1.21-20.5-.58-9.64-1.15-19.29c-.34-5.88-.7-11.76-1-17.64,0-.55-.07-1.09-.1-1.64q-.54-9.09-1.07-18.2c-.18-2.87-.11-5.89-.57-8.73-.32-2-1.77-4.17-4-4.07-4,.17-8,0-11.94,0l-13.77.06-15.42,0-16.87.07-18.12.06-19.16.07-20,.08-20.66.08-21.13.07-21.38.09L396,120.4l-21.3.08-21,.08-20.42.07q-9.84.06-19.68.08l-18.75.07-17.62.07c-5.43,0-10.86,0-16.29.06l-14.76,0c-4.42,0-10-.51-13.72,2.55-4.11,3.42-2.62,9.44-2.34,14.11q1,16.92,2,33.84L234.49,211,237,253.08l2.45,41.48,2.24,37.73q.92,15.43,1.82,30.85c0,.44.06.88.08,1.32l-13.25.06q-1-17.79-2.07-35.6l-2.34-40.12q-1.22-21-2.45-42-1.19-20.61-2.39-41.22-1.11-19-2.21-37.9-.95-16-1.87-32c-.16-2.72-.89-5.86-.52-8.5A20.8,20.8,0,0,1,222.84,115c7.2-6.66,16.68-5.37,25.71-5.4l23.81-.1,27.1-.1,29.68-.11,31.52-.12q16.32,0,32.64-.12l33-.12,32.71-.12,31.64-.12,29.85-.11,27.35-.11,24.1-.09,20.14-.07c1.86,0,3.82-.2,5.65-.09,4,.24,8.18,2.79,10.78,5.77,4.06,4.66,4.48,10.86,4.83,16.75l.63,10.81,1.5,25.56,1.73,29.66q1,16.19,1.91,32.36,1,16.81,2,33.65l2,33.54q.95,16,1.88,32Q625.81,342.9,626.67,357.44Z"/><path class="cls-9" d="M371.4,215.33s0-.07,0-.11a20.39,20.39,0,0,1,13.45-7A21.54,21.54,0,0,1,397,210.6c.31,5.32.59,10.66.74,16.12a3.79,3.79,0,0,1-.14.48c-1.62,5-5.56,9.55-10.72,10.35s-10.44-2.47-13.07-7S370.81,220.53,371.4,215.33Z"/><path class="cls-14" d="M321.13,364.11l-36.73.17c1.43-11.42,3.05-22.84,6.46-33.81,3.76-12.11,9.87-23.77,19.28-32.28a59.11,59.11,0,0,1,23.16-12.67c-2.29,3.56-2.06,8.52-.24,12.45,2.06,4.41,5.74,7.83,9.87,10.88A207.44,207.44,0,0,1,350.25,364Z"/><path class="cls-9" d="M362.63,215.65c.59,5.19.18,10.7-2.45,15.22s-7.88,7.84-13.06,7-9.11-5.37-10.73-10.35c-1.53-4.72-1.38-9.8-1.54-14.53a76.79,76.79,0,0,0,13-4.57,11.69,11.69,0,0,1,1.32.08,20.39,20.39,0,0,1,13.45,7S362.63,215.63,362.63,215.65Z"/><path class="cls-10" d="M396.87,207.78c.06.94.12,1.88.17,2.82a21.54,21.54,0,0,0-12.17-2.42,20.39,20.39,0,0,0-13.45,7s0,.07,0,.11a10.21,10.21,0,0,0-8.77.32s0-.05,0-.08a20.39,20.39,0,0,0-13.45-7,11.69,11.69,0,0,0-1.32-.08c.81-.38,1.6-.78,2.39-1.19,9.34-4.94,17.47-13.26,19.57-23.59l.06,0a23.67,23.67,0,0,1,18.75,5.84A26.58,26.58,0,0,1,396.87,207.78Z"/><path class="cls-9" d="M334.82,212.28a21.36,21.36,0,0,1,13-3.83,76.79,76.79,0,0,1-13,4.57C334.84,212.77,334.82,212.53,334.82,212.28Z"/><path class="cls-9" d="M399.22,211.93c-.22,4.79,0,10-1.44,14.79-.15-5.46-.43-10.8-.74-16.12A21.15,21.15,0,0,1,399.22,211.93Z"/><path class="cls-15" d="M329.48,214.31l0,.13A38.72,38.72,0,0,1,325.37,227c-.53,1-1.11,2-1.73,2.94a31.19,31.19,0,0,0-1.85,2.63,9.22,9.22,0,0,0-.14,5.67c.55,1.9,1.41,3.74,2,5.63a57.2,57.2,0,0,1,2.72,11.76,35.51,35.51,0,0,1,.08,7.29A25.78,25.78,0,0,1,321,277.17c-.32.39-.66.76-1,1.12-6.52,6.76-17.62,8.59-26.11,4.45-8.94-4.36-14.42-14.67-13.55-24.58.7-8.07,5.78-12.73,9.23-19.49s2.5-14.79,3-22.22a56.71,56.71,0,0,1,8.62-26.66c8.88-14,23.75-23.85,39.92-27.51a54,54,0,0,1,25.69,0c5.23,1.37,9.56,3.85,14,6.75A17.92,17.92,0,0,0,391,171.87a14.6,14.6,0,0,0,4.66-1.07,24.53,24.53,0,0,1,6.44-.89c6.41-.34,13.11,1.18,18.06,5.27,7.36,6.09,9.5,17.24,6.07,26.16a28.62,28.62,0,0,1-7.91,11.13,33.15,33.15,0,0,1-5.66,4c-1.53.87-4.53,1.83-5.18,3.68a19,19,0,0,0-.28,2.66,22.65,22.65,0,0,1-.95,3.55,6.16,6.16,0,0,0-.75,2.86,6.35,6.35,0,0,0,1.29,3.51c.71.79,1.77,1.38,2.56,2.13A24.8,24.8,0,0,1,417,254.07c-.61,9.61-7.22,18.46-16.09,22.21-5.73,2.41-11.32,2-17.35,2h-8c-.25-3.68-.53-7.49-.61-8.57A38,38,0,0,0,393,260.53c8.1-7.75,11.23-21.31,4.83-30.53,0-1.1-.05-2.19-.09-3.28,1.46-4.83,1.22-10,1.44-14.79A21.15,21.15,0,0,0,397,210.6c-.05-.94-.11-1.88-.17-2.82a26.58,26.58,0,0,0-8.25-18.25,23.67,23.67,0,0,0-18.75-5.84l-.06,0c-2.1,10.33-10.23,18.65-19.57,23.59-.79.41-1.58.81-2.39,1.19a21.36,21.36,0,0,0-13,3.83c0,.25,0,.49,0,.74Q332.18,213.71,329.48,214.31Z"/><path class="cls-10" d="M485.11,244.35c6.73-7,13.65-13.94,21.59-19.54a10.94,10.94,0,0,1,4.14-2.08,4.1,4.1,0,0,1,4.17,1.44c1.38,2.05-.12,4.76-1.61,6.74-3.87,5.13-8,10.1-12.66,15.4a6.58,6.58,0,0,1,6.06,3.6,7.61,7.61,0,0,1-.66,7.26,7,7,0,0,1,6.07,5.13,8.79,8.79,0,0,1-2.5,7.89,8.1,8.1,0,0,1,3.18,8.14,8.4,8.4,0,0,1-6,6.18,15.23,15.23,0,0,1-2.59,6.5,15.42,15.42,0,0,1-2.3,2.61,4.92,4.92,0,0,0-1.79,2.51c-.85,3.71-1.25,7.58-1.91,11.34-.07.43-.16.88-.24,1.31l-30.47-9.87.43-1.31c.71-2.16,1.43-4.31,2.13-6.47.57-1.73,1.51-3.83,1-5.69a27.32,27.32,0,0,0-1.17-2.75,30.57,30.57,0,0,1,15.08-38.34Z"/><path class="cls-15" d="M345.94,272.53c.19,1.92.37,3.84.56,5.76H320c.35-.36.69-.73,1-1.12a25.78,25.78,0,0,0,5.47-14.26,78.47,78.47,0,0,0,19.18,6.6C345.75,270.52,345.84,271.52,345.94,272.53Z"/><path class="cls-10" d="M346.5,278.29c-.19-1.92-.37-3.84-.56-5.76a43.67,43.67,0,0,0,29.69,7.22c.06.92.11,1.81.15,2.62a5.47,5.47,0,0,1,.16.7,8.38,8.38,0,0,1-2.22,6.87,12.59,12.59,0,0,1-7.36,3.68l-.32.05a18.64,18.64,0,0,1-19.16-10.59l0-.05.12,0C346.81,281.43,346.65,279.86,346.5,278.29Z"/><path class="cls-6" d="M366,293.67l.32-.05v.06c-.28,4.65-4.47,9-9.34,9.85s-10-1.52-13-5.43a18.66,18.66,0,0,1-3.25-14l0-.26c2-.35,4.06-.6,6.1-.77l0,.05A18.64,18.64,0,0,0,366,293.67Z"/><path class="cls-16" d="M393,287.88a15.47,15.47,0,0,1-1,10.62c-1.68,3.81-4.42,7-6.06,9.58a444.92,444.92,0,0,0,1.71,55.73l-37.36.17a207.44,207.44,0,0,0-7.32-55.13c-4.13-3.05-7.81-6.47-9.87-10.88-1.82-3.93-2.05-8.89.24-12.45a65.71,65.71,0,0,1,7.44-1.72l0,.26a18.66,18.66,0,0,0,3.25,14c3,3.91,8.14,6.28,13,5.43s9.06-5.2,9.34-9.85c1.13,4.8,5.9,8.72,10.79,8.1a10.87,10.87,0,0,0,8.24-6.69,18,18,0,0,0,.93-9.83A52.49,52.49,0,0,1,393,287.88Z"/><path class="cls-14" d="M416.08,363.68l-28.47.13a444.92,444.92,0,0,1-1.71-55.73c1.64-2.54,4.38-5.77,6.06-9.58a15.47,15.47,0,0,0,1-10.62,52.92,52.92,0,0,1,11,6.89L451,349.2c1.39-4.25,2.8-8.49,4.2-12.75l8.55-25.9,3.84-11.64,30.47,9.87q-.91,5.09-1.9,10.16-2.25,11.46-4.94,22.82-2.55,10.86-5.51,21.61Z"/><path class="cls-17" d="M321.13,364.11l29.12-.13,37.36-.17,28.47-.13,69.65-.31,128.38-.58,12.86-.06q.59,9.75,1.15,19.52c0,7.19,2.88,14.91-2.08,21.16-6.6,8.33-18.76,7.44-28.31,7.47l-23.36.09-27.46.1-30.69.12-33,.12-32.26.12h-2.26l-35.12.13-25.62.1-9.23,0q-16.84.06-33.7.12-15.84.07-31.68.12l-28.79.11-25,.1c-9.46,0-17.14-2.41-22.73-10.82-6.4-9.63-6.45-25.58-6.45-36.72a.28.28,0,0,0,0-.09l13.25-.06,40.83-.18Z"/><path class="cls-4" d="M971.05,287.4c-.26,5.56-.51,11.13-.78,16.7a38.43,38.43,0,0,1-26.51,16.19c-11,1.37-27.81-2.91-30.33-11a.09.09,0,0,0,0,0A88.74,88.74,0,0,0,971.05,287.4Z"/><path class="cls-2" d="M881.57,286.42a142.1,142.1,0,0,0-19,40.33c-3.52,2.36-6.94,4.92-10.32,7.67-3.81,3.11-7.44,6.42-10.92,9.88a160.64,160.64,0,0,1,24.76-64.89A110.22,110.22,0,0,0,881.57,286.42Z"/><path class="cls-9" d="M388.33,520.62a17.63,17.63,0,0,1-15.14-9.27,19.75,19.75,0,0,1,.74-19,24.12,24.12,0,0,1,14.79-10.79q19.14.08,38.41.3,23.21.29,46.65.81l-.2,28.51-.08,10.68-85.17.17Z"/><path class="cls-18" d="M139,387.2l2.18,4.9-3.33.42Z"/><path class="cls-19" d="M141.22,392.1l3.37,7.54-8.37.64,1.67-7.76Z"/><path class="cls-9" d="M622.15,496.9c-38.43-3.32-80.93-3.46-118.65-1.71,0-.16,0-.32,0-.47,8.77-16.39,27.31-26.44,46.35-30s38.71-1.38,57.76,2.15c1.25.24,1.9.8,3.13,1.08l.1-.14c2.41,1.7,6,1.88,8.93,1,.5-.16,1-.33,1.48-.53H639a32.94,32.94,0,0,0,4.49,1.18,39.43,39.43,0,0,0,6.86.47c3.6.05,7.8,1.62,11,3.26q5.91,3.06,11.94,5.88l3.11,1.43c-19-4.55-40.47,1.9-53.6,16.5Z"/><polygon class="cls-18" points="195.27 387.89 196.22 392.71 192.79 392.13 195.27 387.89"/><path class="cls-20" d="M407.29,539.65q-2,13.51-4,27H134.86q1.95-13.05,3.87-26.1Z"/><path class="cls-3" d="M102.86,560.69q-1.53,10.41-3.07,20.81H78.74l6.93-46.84,21.06-.07Q104.79,547.64,102.86,560.69Z"/><path class="cls-14" d="M365.41,481.48c7.75,0,15.52,0,23.31,0a24.12,24.12,0,0,0-14.79,10.79,19.75,19.75,0,0,0-.74,19,17.63,17.63,0,0,0,15.14,9.27V522l-86.79.18v-1.55a17.61,17.61,0,0,1-15.14-9.27,19.83,19.83,0,0,1,.73-19,22.9,22.9,0,0,1,16.14-10.52Q334.14,481.51,365.41,481.48Z"/><polygon class="cls-19" points="196.22 392.71 197.52 399.24 189.37 397.95 192.79 392.13 196.22 392.71"/><path class="cls-21" d="M116,394.9q4.08,18.3,8.18,36.6h-8.61q-3.87-17.38-7.76-34.76Z"/><path class="cls-17" d="M503.7,521.76l-30.2.06.08-10.68h30.09C503.67,514.69,503.67,518.27,503.7,521.76Z"/><path class="cls-22" d="M144.59,399.64,147,431.5h-8.43l-2.34-31.22Z"/><path class="cls-3" d="M403.28,566.69q2-13.52,4-27l21.06-.08q-2,13.7-4.06,27.38-1.5,10.27-3,20.55H400.2Q401.75,577.09,403.28,566.69Z"/><path class="cls-23" d="M153.05,431.43c1.14-33.06,2.13-71.89,3.36-100.8h16.14c-.9,21.27-1.68,47.9-2.48,73.66v.18l-3.27-.13-1.11,27.13v0H153.05Z"/><path class="cls-22" d="M175.19,404.67q-.54,13.41-1.1,26.83h-8.4v0l1.11-27.13,3.27.13Z"/><path class="cls-8" d="M503.67,511.14c0-5.47,0-10.9-.17-15.95,37.72-1.75,80.22-1.61,118.65,1.71l.05,24.62-118.5.24C503.67,518.27,503.67,514.69,503.67,511.14Z"/><path class="cls-21" d="M197.52,399.24l-5.85,32.1v.09c-.39,0-.76.07-1,.07h-7.37v-.07q3-16.74,6.11-33.48Z"/><path class="cls-14" d="M124.14,431.5h66.49c.28,0,.65,0,1-.07,1.1-.07,2.43-.07,2.68,1a8.93,8.93,0,0,1-.26,2.45q-.33,2.82-.66,5.61-.8,7-1.6,14-.95,8.07-1.87,16.14l-1.89,16.39q-.85,7.37-1.7,14.73L185.08,513c-.13,1.12-.26,2.24-.38,3.36l-62.08.12-.12-1c-.37-3.23-.75-6.46-1.12-9.69L119.79,492l-1.86-16.08L116,459.45q-.86-7.44-1.72-14.87c-.44-3.82-.86-7.64-1.32-11.45-.18-1.55.69-1.63,1.94-1.63h9.2Z"/><path class="cls-11" d="M859.47,238.93a34.66,34.66,0,0,1-.37,11.81,15.34,15.34,0,0,1-6.5,9.58,14,14,0,0,1-9.08,1.67,70.66,70.66,0,0,1-5.18-6.25,83,83,0,0,1-10.69-19.69,117.6,117.6,0,0,1-6.49-25.51c4.19-4.11,10.22-6.72,16.22-5.23,7,1.72,12.69,6.92,16.24,13.13S858.74,231.81,859.47,238.93Z"/><path class="cls-24" d="M971.1,286.25c0,.38,0,.76-.05,1.15a88.74,88.74,0,0,1-57.61,21.89c.52-5,1.06-10.18,1.6-15.33,16.16,1.61,32.61.42,48-4.66Q967.15,287.95,971.1,286.25Z"/><path class="cls-25" d="M1166.62,225.32l12.61,25.32a39.47,39.47,0,0,0-8.76,6.41l-13.46-27,0-.37a73.55,73.55,0,0,0,9.36-4.22Z"/><path class="cls-13" d="M1082.08,371.23l-42.93-33.68c-20.09-15.78-43.16-33.74-68.71-33.32l-.17-.12h0a38.43,38.43,0,0,1-26.51,16.19c-11,1.37-27.81-2.91-30.33-11v0c-.64,0-1.29,0-1.93,0a104.4,104.4,0,0,0-48.94,17.47c-3.52,2.36-6.94,4.92-10.32,7.67-3.81,3.11-7.44,6.42-10.92,9.88-12.26,12.2-22.64,26.32-32.53,40.57-8.62,12.44-14.63,21-23.62,33l50.15,62.87,2.6,3.25c.34-2.12.67-4.23,1-6.34q4-24.35,8.42-48.6C852.78,387.84,876,348.66,910,323.77A45.12,45.12,0,0,0,941,335a44.53,44.53,0,0,0,19.41-5.22C972.52,387.69,1008.51,436,1035.69,463a185.29,185.29,0,0,0,16.22,14.44,15.44,15.44,0,0,1-5.18-12.78c.13-1.52.28-3,.46-4.54a119,119,0,0,1,13-42.71,96.15,96.15,0,0,1,34.47-36.22Z"/><path class="cls-4" d="M1212.49,278.26a20.76,20.76,0,0,1,.52,7.7,5.25,5.25,0,0,0-1-.1,11.88,11.88,0,0,0-4.59,1.13,34.64,34.64,0,0,0-15.62,13.2l-.35.58a7.14,7.14,0,0,1-7.71-2.48,10.2,10.2,0,0,1-1.35-9,13.89,13.89,0,0,1,.88-2.24,21.89,21.89,0,0,1,4.12-5.61,35.42,35.42,0,0,1,12.09-8.13,13.25,13.25,0,0,1,6.42-1.2,7.31,7.31,0,0,1,1.52.36A8.78,8.78,0,0,1,1212.49,278.26Z"/><path class="cls-4" d="M1170.47,257.05a39.47,39.47,0,0,1,8.76-6.41c1-.56,2.09-1.08,3.15-1.56a21.65,21.65,0,0,1,8.17-2.13,10.79,10.79,0,0,1,7.8,2.74,7.33,7.33,0,0,1,1.9,7.77v.09a16.19,16.19,0,0,0-4.39,1A42.65,42.65,0,0,0,1179.68,269a23.67,23.67,0,0,0-3.68,4.73,4.94,4.94,0,0,1-1.84-.75,28.26,28.26,0,0,0,2.36-2c2-2,3.82-4.46,4.06-7.3s-1.51-6-4.3-6.5c-2.07-.39-4.1.63-6,1.56-.7.35-1.42.68-2.13,1l0-.09C1168.86,258.72,1169.65,257.87,1170.47,257.05Z"/><path class="cls-2" d="M1025.27,34.7c-.26-.54-.58-1.1-.94-1.69,16.69,5.3,24.06,15.69,27.61,23.69a53.46,53.46,0,0,1,2.75,7.91c8.32,30,8.37,61.4,6.1,92.68-.39,5.4-.85,10.8-1.34,16.18-3.67,31.95-17,24.81-18.58,20.49s-1.21-9.07-.94-13.66q.83-14,.7-27.92c0-1,0-2,0-2.94-.45-34.29-4.78-68.53-11.26-102.25A49.8,49.8,0,0,0,1025.27,34.7Z"/><path class="cls-13" d="M821.16,210.54a117.6,117.6,0,0,0,6.49,25.51l-.32.12c-8,1.49-16.79-1-22.34-7-5.7-6.17-7.75-14.87-8.58-23.23a107.1,107.1,0,0,1,2-33.55c1.44-6.53,3.65-13.19,8.37-17.91a17.11,17.11,0,0,1,13.31-5.05c-.35,13.12-1,26.24-.69,39.36A181.5,181.5,0,0,0,821.16,210.54Z"/><circle cx="876.37" cy="183.14" r="10.34"/><path class="cls-17" d="M1051.78,232.37a32.87,32.87,0,0,1-10.94,6.7h0c-9.48,1.18-16.7-6.83-20.43-14.71-4.11-8.68-4.81-18.6-4.2-28.19.73-11.46,3.42-23.21,10.4-32.33a36.74,36.74,0,0,1,14-11.46q.11,14-.7,27.92c-.27,4.59-.6,9.33.94,13.66s14.91,11.46,18.58-20.49c.49-5.38,1-10.78,1.34-16.18h.14a27.7,27.7,0,0,1,6,8.57,39.38,39.38,0,0,1,3,10.2c1.46,9.08-.29,18.38-2.75,27.24a95.33,95.33,0,0,1-4.61,13.32,50.41,50.41,0,0,1-7.8,12.66A32.41,32.41,0,0,1,1051.78,232.37Z"/><path class="cls-26" d="M913.44,309.29a.09.09,0,0,1,0,0v0Z"/><path class="cls-4" d="M1176,273.71a23.67,23.67,0,0,1,3.68-4.73,42.65,42.65,0,0,1,16.18-10.42,16.19,16.19,0,0,1,4.39-1,6.9,6.9,0,0,1,4.64,1.14,7.41,7.41,0,0,1,2.69,6.18,21.83,21.83,0,0,1-1.6,6.8l-.06.47a13.25,13.25,0,0,0-6.42,1.2,35.42,35.42,0,0,0-12.09,8.13,21.89,21.89,0,0,0-4.12,5.61,6.44,6.44,0,0,1-7.49-2.33,9.53,9.53,0,0,1-1-8.46A13.58,13.58,0,0,1,1176,273.71Z"/><path class="cls-15" d="M1055.36,237.84c1.6,2.84,2.64,5.88,1.74,8.92-1,3.42-4.45,5.79-8,6.14a12.32,12.32,0,0,1-9.62-3.47c-.86,6.84-7.51,11.77-14.31,12.95-5.79,1-11.67-.12-17.41-1.55l-.16-.15a138.51,138.51,0,0,0,17-21.32v0a22.42,22.42,0,0,0,4.66,1.1,24.83,24.83,0,0,0,11.59-1.37h0a32.87,32.87,0,0,0,10.94-6.7c.27.42.55.83.83,1.22A46.15,46.15,0,0,1,1055.36,237.84Z"/><path class="cls-9" d="M945,220.3a25.41,25.41,0,0,1-47,17.24,31.66,31.66,0,0,1-3.46-9.48S930.4,223,945,220.3Z"/><path class="cls-18" d="M1070.87,481.44l0,.1-8.93,106h-35.82c3-40.65,6.59-84.06,9.54-124.55a185.29,185.29,0,0,0,16.22,14.44,18.62,18.62,0,0,0,10.87,4.81A23,23,0,0,0,1070.87,481.44Z"/><path class="cls-2" d="M1090.32,483.69l-9.26,103.81H1062l8.93-106,0-.1a28.62,28.62,0,0,0,6.48-2.69c2.42,1.14,4.88,2.19,7.4,3.12Q1087.49,482.88,1090.32,483.69Z"/><path class="cls-26" d="M973.46,285.19c-.79.76-1.59,1.49-2.41,2.21,0-.39,0-.77.05-1.15C971.9,285.9,972.68,285.56,973.46,285.19Z"/><circle cx="945.96" cy="183.46" r="10.34"/><path class="cls-26" d="M913.43,309.29c-.64,0-1.29,0-1.93,0,.62-.07,1.24-.13,1.87-.18A.82.82,0,0,0,913.43,309.29Z"/><path class="cls-13" d="M1040.6,149.44c0,1,0,1.95,0,2.94a36.74,36.74,0,0,0-14,11.46c-7,9.12-9.67,20.87-10.4,32.33-.61,9.59.09,19.51,4.2,28.19,3.73,7.88,10.95,15.89,20.43,14.71a24.83,24.83,0,0,1-11.59,1.37,22.42,22.42,0,0,1-4.66-1.1c-7.44-2.59-13.56-8.83-17-16.05-4.11-8.67-4.81-18.6-4.21-28.18a77.19,77.19,0,0,1,2.76-16.69,47.33,47.33,0,0,1,7.65-15.65C1020.38,154.18,1030.16,147.92,1040.6,149.44Z"/><path class="cls-2" d="M806.75,154.44c-4.72,4.72-6.93,11.38-8.37,17.91a107.39,107.39,0,0,0-2.25,15.76h0A161,161,0,0,1,813,126.57a61.59,61.59,0,0,0,7.06,0c.28,7.6.18,15.22,0,22.84A17.11,17.11,0,0,0,806.75,154.44Z"/><path class="cls-18" d="M911.5,309.28a104.4,104.4,0,0,0-48.94,17.47,142.1,142.1,0,0,1,19-40.33A132.46,132.46,0,0,0,903,292.23q6,1.13,12.08,1.73c-.54,5.15-1.08,10.33-1.6,15.33h0a.82.82,0,0,1-.06-.19C912.74,309.15,912.12,309.21,911.5,309.28Z"/><path class="cls-18" d="M1039.15,337.55c-20.09-15.78-43.16-33.74-68.71-33.32l-.17-.12h0c.27-5.57.52-11.14.78-16.7.82-.72,1.62-1.45,2.41-2.21a114.89,114.89,0,0,0,34.14-24.51l.16.15c5.74,1.43,11.62,2.55,17.41,1.55,6.8-1.18,13.45-6.11,14.31-12.95a12.32,12.32,0,0,0,9.62,3.47c3.55-.35,7-2.72,8-6.14.9-3-.14-6.08-1.74-8.92,7.06-1.38,14.18-2.21,21.28-1.37,10.71,1.28,21.55,7.17,25.68,17.14,4.26,10.32.58,22-2.67,32.66-8.45,27.74-13.76,56.21-17.57,85Z"/><path class="cls-4" d="M1077.35,478.75c-10.68-5-20.5-11.81-30.16-18.68a119,119,0,0,1,13-42.71,96.15,96.15,0,0,1,34.47-36.22l5.76,4.52,6.47,5.08.15.08c15.06-27.67,30.24-55.53,46.12-84.43-4-9.71-7.68-20.68-3.8-30.42a27.25,27.25,0,0,1,8.23-10.72,16.17,16.17,0,0,1,5.11-3.29c1.82-.69,3.64-1.44,5.42-2.25.71-.33,1.43-.66,2.13-1,1.89-.93,3.92-1.95,6-1.56,2.79.54,4.54,3.66,4.3,6.5s-2,5.33-4.06,7.3a28.26,28.26,0,0,1-2.36,2,4.94,4.94,0,0,0,1.84.75,13.58,13.58,0,0,0-1.16,2.58,9.53,9.53,0,0,0,1,8.46,6.44,6.44,0,0,0,7.49,2.33,13.89,13.89,0,0,0-.88,2.24,10.2,10.2,0,0,0,1.35,9,7.14,7.14,0,0,0,7.71,2.48l.35-.58a34.64,34.64,0,0,1,15.62-13.2,11.88,11.88,0,0,1,4.59-1.13,5.25,5.25,0,0,1,1,.1c3,.63,4.57,4,4.61,7a18.46,18.46,0,0,1-1.36,6.52c-3.28,9.26-8.48,18.81-15.1,26.11a30.5,30.5,0,0,0-7.3,15.19c-1,4.86-1.94,9.72-3,14.56-2,9.58-4.18,19.13-6.65,28.6-5.62,21.65-12.81,43-23.06,62.93-7.29,14.18-16.83,28.25-31.24,35.08-12.22,5.78-26.52,5.52-39.62,1.78q-2.82-.81-5.57-1.82C1082.23,480.94,1079.77,479.89,1077.35,478.75Z"/><path class="cls-2" d="M1094.7,381.14l-12.62-9.91c3.81-28.75,9.12-57.22,17.57-85,3.25-10.68,6.93-22.34,2.67-32.66-4.13-10-15-15.86-25.68-17.14-7.1-.84-14.22,0-21.28,1.37a46.15,46.15,0,0,0-2.75-4.25c-.28-.39-.56-.8-.83-1.22a32.41,32.41,0,0,0,3-3.08,50.41,50.41,0,0,0,7.8-12.66l.35.15c9.63-1.12,19.27-1.43,28.75.35,15.65,2.92,31,12.74,36,27.86s-1.4,31.53-6.62,46.67c-10.43,30.17-16.64,62.31-20.56,94Z"/><path class="cls-16" d="M960.36,329.78A44.53,44.53,0,0,1,941,335,45.12,45.12,0,0,1,910,323.77c-34,24.89-57.26,64.07-62.68,105.26q-4.47,24.25-8.42,48.6c-.35,2.11-.68,4.22-1,6.34q-3,18.54-5.63,37.12-1.23,8.53-2.39,17.08-2,14.37-3.73,28.78-1.27,10.27-2.46,20.55H987q10-79,19.94-158C987.25,402.88,968.49,368.47,960.36,329.78Z"/><path class="cls-27" d="M1035.69,463a289.4,289.4,0,0,1-28.77-33.45q-10,79-19.94,158h39.17C1029.14,546.85,1032.74,503.44,1035.69,463Z"/><path class="cls-15" d="M1079.47,104.72a2.26,2.26,0,0,0,0-.26c-1.23-19.14-11-38.9-27.52-47.76a53.46,53.46,0,0,1,2.75,7.91,206.83,206.83,0,0,1,6.87,43.12,376.56,376.56,0,0,1-.77,49.56h.14a27.7,27.7,0,0,1,6,8.57C1074,146.08,1080.76,125.63,1079.47,104.72Z"/><path class="cls-15" d="M1029.34,47.19a49.8,49.8,0,0,0-4.07-12.49c-.26-.54-.58-1.1-.94-1.69C1014.91,18,968.7-13,889.7,5.94a268.69,268.69,0,0,0-31.07,9.53,87.17,87.17,0,0,1-21.56,5c-14,1.42-28,2.62-40.72,8.28-13.76,6.12-25.27,17.58-30.57,31.68s-4,30.74,4.16,43.38c9.2,14.22,26,21.87,43.08,22.78a61.59,61.59,0,0,0,7.06,0,64.26,64.26,0,0,0,6.66-.73c16-2.64,30.48-10.51,43.2-20.69a38.1,38.1,0,0,0,6.92,6.51c10.79,7.87,24.75,10.4,38.1,9.73a91.62,91.62,0,0,0,52.58-20.3,61.72,61.72,0,0,0,5.94,29.78,49.11,49.11,0,0,0,15.37,18c2.9,2.06,5.25,3.72,6.22,7.27a71.27,71.27,0,0,0,4.14,11.49,64.52,64.52,0,0,0,6.36,10.64l.58.17a47.33,47.33,0,0,1,7.65-15.65c6.58-8.59,16.36-14.85,26.8-13.33-.21-16.5-1.34-33-3.16-49.4C1035.48,82.32,1032.7,64.69,1029.34,47.19Z"/><path class="cls-28" d="M1166.51,225.11l-5.5-5.26-4.56,2.05.53,7.79a73.55,73.55,0,0,0,9.36-4.22l.28-.15Z"/><polygon class="cls-15" points="1155.99 215.05 1156.45 221.89 1156.45 221.9 1161.01 219.85 1155.99 215.05"/><path class="cls-13" d="M450.93,411.61v-.18h-2.26l-35.12.13-25.62.1V412l-7.42,22.89H443Z"/><path class="cls-17" d="M380.51,434.92l-15.1,46.56c7.75,0,15.52,0,23.31,0q19.14.08,38.41.3l15.9-46.9Z"/><path class="cls-20" d="M428.35,539.57q-2,13.7-4.06,27.38H786.06l-4.57-28.66Z"/><polygon class="cls-2" points="795.94 521.17 793.32 521.17 622.2 521.52 503.7 521.76 473.5 521.82 388.32 522 301.54 522.17 216.7 522.34 154.62 522.46 88.96 522.6 88.96 540.76 117.67 540.66 138.73 540.59 407.29 539.65 428.35 539.57 795.94 538.29 795.94 521.17"/><path class="cls-14" d="M1050.32,57.85a3.66,3.66,0,0,0,2.71.65c1.56-.49,1.61-2.68,1.22-4.27a32.8,32.8,0,0,0-26.17-24c-1.68-.26-3.83-.13-4.47,1.44s.88,3.21,2,4.6c2,2.58,2.62,5.92,3.19,9.13.39,2.22.3,6.69,1.51,8.54s3.47.65,5.8.61A30,30,0,0,1,1050.32,57.85Z"/><path class="cls-2" d="M834.2,277.36a21.61,21.61,0,0,0,11.27,9.31,9.22,9.22,0,0,0,5.45.52,4.35,4.35,0,0,0,3.32-4,5.06,5.06,0,0,0-2.64-3.88c-1.37-.88-3-1.41-4.32-2.29-3.39-2.17-5.74-7.16-10-7.83C832.33,268.45,832.45,274.39,834.2,277.36Z"/><path class="cls-29" d="M392.83,106v.15h1.93A12.17,12.17,0,0,1,392.83,106Z"/><path class="cls-9" d="M394.76,84.41a9,9,0,0,0,0,18h23.11a9,9,0,0,0,0-18Z"/><path class="cls-2" d="M382,80.64a12.74,12.74,0,1,0,0,25.48h10.81V106a12.74,12.74,0,0,1,1.93-25.33Z"/><path class="cls-14" d="M426.84,93.38a9,9,0,0,0-9-9H394.76a9,9,0,0,0,0,18h23.11A9,9,0,0,0,426.84,93.38Zm-26.67,12.74h-5.41a12.17,12.17,0,0,1-1.93-.15,12.74,12.74,0,0,1,1.93-25.33h23.11a12.74,12.74,0,1,1,0,25.48h-17.7Z"/><path class="cls-2" d="M392.83,106.12v3.18h15.05v-3.18H392.83Z"/><path class="cls-2" d="M414.89,93.38a2.5,2.5,0,1,0,2.5-2.5A2.5,2.5,0,0,0,414.89,93.38Z"/><circle class="cls-14" cx="399.73" cy="93.38" r="6.54" transform="translate(70.4 338.41) rotate(-49.8)"/><path class="cls-2" d="M397.25,93.38a2.48,2.48,0,1,0,2.48-2.48A2.48,2.48,0,0,0,397.25,93.38Z"/><path class="cls-15" d="M956.82,147.82a3,3,0,0,1-1.91-.69c-4.24-3.51-10.82-7.57-18.06-7a3,3,0,0,1-.46-6c9.25-.71,17.26,4.16,22.35,8.37a3,3,0,0,1-1.92,5.33Z"/><path class="cls-15" d="M855.87,150.65a3,3,0,0,1-2-.78,3,3,0,0,1-.22-4.25,28.81,28.81,0,0,1,18.57-9.25,3,3,0,1,1,.54,6,22.73,22.73,0,0,0-14.65,7.3A3,3,0,0,1,855.87,150.65Z"/><path class="cls-24" d="M892.47,218.06a1.46,1.46,0,0,1-.78-.22c-2.66-1.63-6.47-4.25-8.8-8.14s-2.72-8.77-.78-12.34a13.05,13.05,0,0,1,8.43-6,33.44,33.44,0,0,1,9.82-.61,1.51,1.51,0,0,1-.13,3,31,31,0,0,0-9,.51,10.07,10.07,0,0,0-6.53,4.56c-1.41,2.61-1.13,6.28.72,9.36,2,3.33,5.4,5.66,7.79,7.12a1.51,1.51,0,0,1-.79,2.79Z"/><path class="cls-24" d="M1171.17,301.9a1.58,1.58,0,0,1-.52-.09,1.5,1.5,0,0,1-.89-1.93,21.53,21.53,0,0,0-.57-15.79,21,21,0,0,0-1.92-3.49c-.16-.22-.3-.42-.44-.6a3.13,3.13,0,0,1-.9-2.52,3.34,3.34,0,0,1,1.76-2.06,42.91,42.91,0,0,0,7.79-5.56c2.21-2.13,3.43-4.27,3.6-6.35s-1-4.5-3.08-4.89c-1.54-.29-3.27.56-5,1.38l-.1.05a1.5,1.5,0,1,1-1.32-2.7l.1-.05c2-1,4.31-2.11,6.83-1.63,3.77.71,5.8,4.76,5.52,8.1-.24,2.83-1.76,5.6-4.52,8.26a45.49,45.49,0,0,1-8.32,6l-.1.06.1.14c.16.21.33.44.51.7a23.73,23.73,0,0,1,2.2,4,24.57,24.57,0,0,1,.63,18A1.49,1.49,0,0,1,1171.17,301.9Z"/><path class="cls-24" d="M1181.18,289a8.28,8.28,0,0,1-6.6-3.38,11,11,0,0,1-1.17-9.81,20.87,20.87,0,0,1,5.19-7.89,44.33,44.33,0,0,1,16.75-10.79,17.45,17.45,0,0,1,5.18-1.11,1.48,1.48,0,0,1,1.56,1.45,1.51,1.51,0,0,1-1.45,1.56,14.67,14.67,0,0,0-4.28.93,41.22,41.22,0,0,0-15.6,10,18,18,0,0,0-4.49,6.73,8.09,8.09,0,0,0,.75,7.12,4.89,4.89,0,0,0,5.88,1.73,1.51,1.51,0,0,1,1.4,2.67A6.73,6.73,0,0,1,1181.18,289Z"/><path class="cls-24" d="M1195.64,310.48c-2.76,0-5.49-1.11-6.54-3.63-.88-2.1-.4-4.54,1.45-7.46a36.25,36.25,0,0,1,16.31-13.78,13.18,13.18,0,0,1,5.13-1.25h0a1.51,1.51,0,0,1,0,3h0a10.53,10.53,0,0,0-4,1A33.17,33.17,0,0,0,1193.09,301c-1.29,2-1.69,3.56-1.22,4.69.71,1.7,3.34,2.09,5.46,1.59,5.07-1.2,9.12-5.52,12.38-9a1.5,1.5,0,1,1,2.19,2.06c-3.53,3.77-7.93,8.46-13.88,9.86A10,10,0,0,1,1195.64,310.48Z"/><path class="cls-30" d="M318.7,322.85a20.71,20.71,0,0,0-13-9.15l.47-2.21a23,23,0,0,1,14.44,10.17Z"/><rect class="cls-30" x="311.22" y="350.37" width="24.69" height="2.26" transform="matrix(0.15, -0.99, 0.99, 0.15, -71.45, 620.21)"/><rect class="cls-30" x="412.32" y="326.3" width="2.26" height="36.81" transform="translate(-50.1 71.05) rotate(-9.26)"/><path class="cls-24" d="M484.09,272.29a1.51,1.51,0,0,1-1.32-2.22,15.54,15.54,0,0,0,.77-12.86,1.49,1.49,0,0,1,.64-1.84,24.1,24.1,0,0,0,8.88-9.2c.71-1.29.69-1.89.55-2.16-.33-.61-1.76-.57-3-.21a28,28,0,0,0-4.52,1.75,1.51,1.51,0,0,1-1.32-2.71,31.77,31.77,0,0,1,5-1.93c3.05-.87,5.48-.24,6.5,1.7s-.17,4.27-.57,5a27.33,27.33,0,0,1-8.94,9.69,18.61,18.61,0,0,1-1.34,14.18A1.5,1.5,0,0,1,484.09,272.29Z"/><path class="cls-15" d="M385.37,238.8c-4.81,0-9.76-3-12.5-7.71-2.46-4.24-3.32-9.62-2.58-16l0-.34.23-.27a21.62,21.62,0,0,1,14.19-7.42A22.76,22.76,0,0,1,399.87,211l.5.36,0,.61c-.05,1-.08,2.05-.1,3.1-.1,4.12-.21,8.37-1.54,12.47-1.94,6-6.5,10.32-11.62,11.12A12.33,12.33,0,0,1,385.37,238.8Zm-12.88-23.1c-.62,5.73.17,10.53,2.33,14.26,2.61,4.5,7.52,7.17,11.93,6.48s8.14-4.43,9.82-9.58C397.8,223.07,397.9,219,398,215c0-.84.05-1.68.08-2.51A20.46,20.46,0,0,0,385,209.3,19.36,19.36,0,0,0,372.49,215.7Z"/><path class="cls-15" d="M348.66,239.14a11,11,0,0,1-1.72-.13c-5.12-.79-9.68-5.15-11.62-11.11-1.33-4.1-1.44-8.36-1.54-12.47,0-1.05,0-2.08-.1-3.1l0-.62.5-.35a22.76,22.76,0,0,1,15.12-4,21.59,21.59,0,0,1,14.19,7.42l.23.26,0,.35c.75,6.38-.12,11.76-2.58,16C358.42,236.16,353.47,239.14,348.66,239.14ZM336,212.86c0,.83.06,1.67.08,2.51.09,4,.19,8,1.42,11.83,1.68,5.16,5.54,8.92,9.82,9.58s9.32-2,11.93-6.47c2.16-3.73,3-8.53,2.33-14.26a19.32,19.32,0,0,0-12.49-6.4A20.46,20.46,0,0,0,336,212.86Z"/><path class="cls-15" d="M362.91,216.77l-1.11-2a11.37,11.37,0,0,1,10.18-.46L371,216.4A9.13,9.13,0,0,0,362.91,216.77Z"/><path class="cls-24" d="M1189.47,302.6a8.85,8.85,0,0,1-6.9-3.4,11.57,11.57,0,0,1-1.6-10.3,20.56,20.56,0,0,1,5.36-8.48,37.25,37.25,0,0,1,12.61-8.48c2.29-.93,5.73-2,9-.85a1.5,1.5,0,0,1-1,2.83c-1.77-.63-4-.37-6.87.81a34.38,34.38,0,0,0-11.59,7.79,17.52,17.52,0,0,0-4.62,7.22,8.7,8.7,0,0,0,1.09,7.62,5.47,5.47,0,0,0,6.5,1.78,1.5,1.5,0,0,1,1.38,2.67A7.23,7.23,0,0,1,1189.47,302.6Z"/><rect class="cls-31" x="620.71" y="497.37" width="3.01" height="24.03" transform="translate(-3.49 4.29) rotate(-0.39)"/><path class="cls-24" d="M608.15,463.84h0a1.52,1.52,0,0,1-1.49-1.53,10.76,10.76,0,0,1,.92-4.12,18.46,18.46,0,0,1,4.89-6.11,40.17,40.17,0,0,1,27.31-9.73,1.51,1.51,0,1,1-.09,3,37.14,37.14,0,0,0-25.24,9,14.76,14.76,0,0,0-4.12,5.06,7.52,7.52,0,0,0-.66,2.94A1.51,1.51,0,0,1,608.15,463.84Z"/><path class="cls-6" d="M494.1,193.64a1.5,1.5,0,0,1-1.34-.82l-8.87-17.22a1.51,1.51,0,1,1,2.68-1.38L493,186.74l1.62-20.85a1.51,1.51,0,0,1,1.48-1.39l42.39-.65a1.53,1.53,0,0,1,1.53,1.48,1.51,1.51,0,0,1-1.48,1.53l-41,.63-1.93,24.76a1.52,1.52,0,0,1-1.21,1.36Z"/><path class="cls-6" d="M513.1,191.14a1.54,1.54,0,0,1-1.12-.49,72.49,72.49,0,0,1-10-14.05,1.5,1.5,0,0,1,2.64-1.44,69.59,69.59,0,0,0,9.57,13.47,1.5,1.5,0,0,1-1.11,2.51Z"/><path class="cls-6" d="M503.31,193.76a1.49,1.49,0,0,1-.85-.26,1.51,1.51,0,0,1-.38-2.09c1.58-2.3,3.4-5.43,5.16-8.45s3.64-6.25,5.29-8.64A1.5,1.5,0,0,1,515,176c-1.59,2.3-3.41,5.43-5.17,8.45s-3.64,6.25-5.29,8.64A1.48,1.48,0,0,1,503.31,193.76Z"/><path class="cls-6" d="M527.56,183.44h0l-8.77-.25a1.51,1.51,0,1,1,.09-3l8.77.25a1.51,1.51,0,0,1,1.46,1.55A1.5,1.5,0,0,1,527.56,183.44Z"/><path class="cls-6" d="M539.26,191.41a9.62,9.62,0,1,1,7.3-15.64,7.66,7.66,0,0,1,1.79,4.74,5.61,5.61,0,0,1-2.62,4.78,4.69,4.69,0,0,1-4.18.28,3.77,3.77,0,0,1-1.41.76,4,4,0,0,1-3.73-.73,4.16,4.16,0,0,1-1.39-2.91,4.71,4.71,0,0,1,1.14-3.41,5.72,5.72,0,0,1,5.85-1.49,1.5,1.5,0,0,1-.87,2.88,2.7,2.7,0,0,0-2.73.61,1.71,1.71,0,0,0-.39,1.22,1.27,1.27,0,0,0,.36.84,1,1,0,0,0,.89.11c.19-.06.41-.18.46-.36a1.51,1.51,0,0,1,1.12-1.06,1.48,1.48,0,0,1,1.46.47,1.62,1.62,0,0,0,1.9.2,2.62,2.62,0,0,0,1.13-2.2,4.66,4.66,0,0,0-1.12-2.85,6.64,6.64,0,1,0-2.39,10.2,1.5,1.5,0,0,1,1.26,2.73A9.11,9.11,0,0,1,539.26,191.41Z"/><path class="cls-6" d="M561.89,219.69H535.25a1.51,1.51,0,0,1,0-3h26.64a1.51,1.51,0,0,1,0,3Z"/><path class="cls-6" d="M543.25,208.54a1.5,1.5,0,0,1-1.31-.77,1.52,1.52,0,0,1,0-1.53l5.8-9.34a1.51,1.51,0,0,1,2.56,1.59l-4.36,7,7.16,0h0a1.5,1.5,0,0,1,0,3l-9.89.08Z"/><path class="cls-6" d="M553.93,212.93a1.5,1.5,0,0,1-1.5-1.5v-8.75a1.51,1.51,0,0,1,3,0v8.75A1.51,1.51,0,0,1,553.93,212.93Z"/><path class="cls-6" d="M549.17,240.18h-.54c-3.44,0-5.55-1.08-6.25-3.14a1.5,1.5,0,1,1,2.84-1c.33.94,2.29,1.1,3.43,1.1a8.59,8.59,0,0,0,3.71-.48c.73-.35,1.4-1.18,1.23-1.86a1.91,1.91,0,0,0-1.36-1.13,8.91,8.91,0,0,0-2.89-.1,1.5,1.5,0,0,1-.76-2.85,9,9,0,0,0,3.06-2,2,2,0,0,0,.4-2.18,2,2,0,0,0-1.91-.53,8.86,8.86,0,0,0-2.9,1.39,1.51,1.51,0,0,1-1.6-2.55,11.22,11.22,0,0,1,4-1.8,4.52,4.52,0,0,1,4.35,7.6c-.09.11-.19.22-.29.32a4.66,4.66,0,0,1,2.85,3.1,4.83,4.83,0,0,1-2.85,5.28A10.24,10.24,0,0,1,549.17,240.18Z"/><path class="cls-6" d="M480.26,218.65a1.26,1.26,0,0,1-.47-.08,31.18,31.18,0,0,1-13.3-8.66,1.5,1.5,0,0,1,2.22-2,28.37,28.37,0,0,0,12,7.83,1.5,1.5,0,0,1-.47,2.93Z"/><path class="cls-6" d="M467.52,222.73a1.46,1.46,0,0,1-.84-.26,1.5,1.5,0,0,1-.4-2.09l9.36-13.79a1.5,1.5,0,0,1,2.49,1.68l-9.36,13.8A1.49,1.49,0,0,1,467.52,222.73Z"/></g></g></svg>