<svg xmlns="http://www.w3.org/2000/svg" viewBox="0 0 1072.15 636.57"><defs><style>.cls-1{fill:#dbb9a8;}.cls-2{fill:#e1f5fe;}.cls-3{fill:#ffd24c;}.cls-29,.cls-4{fill:#fff;}.cls-15,.cls-16,.cls-24,.cls-5{fill:none;}.cls-5{stroke:#99e7ff;stroke-width:3px;}.cls-16,.cls-5{stroke-linecap:round;stroke-linejoin:round;}.cls-6{fill:#99e7ff;}.cls-7{fill:#00bffb;}.cls-8{fill:#fe9126;}.cls-9{fill:#ffc3a8;}.cls-10{fill:#2e5bbf;}.cls-11{fill:#7964ff;}.cls-12{fill:#002169;}.cls-13{fill:#ff9566;}.cls-14{fill:#0a81d1;}.cls-15{stroke:#002169;stroke-miterlimit:10;}.cls-15,.cls-16{stroke-width:2px;}.cls-16{stroke:#ff9566;}.cls-17{fill:#fe7926;}.cls-18{fill:#5cafff;}.cls-19{fill:#21428a;}.cls-20{fill:#ebebeb;}.cls-21{fill:#ff8570;}.cls-22{fill:#ffa995;}.cls-23{fill:#ffe8e8;}.cls-25{fill:#adadad;}.cls-26{fill:#60d24c;}.cls-27{fill:#009126;}.cls-28,.cls-29{isolation:isolate;}.cls-29{font-size:56.45px;font-family:MyriadPro-Bold, Myriad Pro;font-weight:700;}.cls-30{fill:#4b5478;}.cls-31{fill:#db73ff;}.cls-32{fill:#ff6174;}</style></defs><title>slide1</title><g id="Layer_2" data-name="Layer 2"><g id="Layer_1-2" data-name="Layer 1"><g id="Layer_2-2" data-name="Layer 2"><g id="Layer_1-2-2" data-name="Layer 1-2"><path class="cls-1" d="M26,245.63,32.65,258l14,6L66.9,248.25s4.75-14.5,3.75-19.25-9.25-17.25-9.25-17.25-41.75,6.5-36.5,33.75"/><path class="cls-2" d="M103.65,635.35C52.61,629.44,6.31,545.19.73,457.82S22.31,282.44,63.47,230.26s94.3-71.36,145.36-66.07c79.19,8.15,154,70.73,233.28,77,65.59,5.16,130-28.62,191.79-66.62s123.41-81,188.53-95.36,135.81,3.38,186.33,75.4c42.89,61.15,67.09,159,62.93,254.53s-39.11,177-86.83,226.45Z"/><path class="cls-3" d="M849.42,330H627.82l-.05.23.07.08-30,26.46L550,399.09l-15.41,13.62a6,6,0,0,0,4,10.55H736.67A32.35,32.35,0,0,0,758,415.2l61.12-54,35.13-31V330Zm-173,77.51H628.2l27.35-23.05c-.8-.79,48.16,0,48.16,0Zm53.93-28.29H587.23l9.56-8.08,8.89-7.49,8.87-7.49,8.88-7.49,8.88-7.48H823.05l-8.88,7.48-8.88,7.49-8.88,7.47-8.88,7.5-9.53,8H730.3Z"/><path class="cls-4" d="M683.67,284.86c.55,1,1.32,2,1.9,3h-.05a3.55,3.55,0,0,0-1.95-.69,5,5,0,0,0-4.59,1.74,3.8,3.8,0,0,0-.22,3.8l-.25.13a3.22,3.22,0,0,0-3.13,3.33,3,3,0,0,0,.23,1.1,8.38,8.38,0,0,0,2.74,11.55h0a8.11,8.11,0,0,0,2.13.93,39.8,39.8,0,0,1,1.36,4.26,39.35,39.35,0,0,1,1.22,7.85H640.6c.13-.76.26-1.51.4-2.28l2.07-11.79q1.29-7.43,2.6-14.85,1.49-8.46,3-16.95,1.59-9,3.19-18.09L655,239.63q1.53-8.76,3.07-17.52l2.76-15.76L662,200c.32-1.84.13-4.35,1.82-5.57,1.1-.8,2.32-.61,3.61-.61H860c1.59,0,3.58-.31,5.09.46,1.71.86,1.15,2.61.88,4.15-.53,3.22-1.09,6.45-1.69,9.67q-2,11.58-4.07,23.2-2.28,13-4.55,26t-4.53,25.91q-2,11.49-4,23l-2.76,15.72H807.85a57.4,57.4,0,0,0-40.33-27.74c-1.34-.21-2.67-.37-4-.48-1.09-.08-2.18-.14-3.26-.16-.38-1.15-.8-2.29-1.14-3.43-.26-.8-.52-1.6-.8-2.39A38.66,38.66,0,0,0,776,270.48a10.76,10.76,0,0,0,8.43,1.32A10.61,10.61,0,0,0,791.9,264a8.68,8.68,0,0,0-2.95-8.8l-.32-.23a44.82,44.82,0,0,0,5.44-23.29,18.84,18.84,0,0,0-1.86-8.15,8.86,8.86,0,0,0-6.52-4.82l-.84.07c-.43-5.78-4.28-11-9.16-14.16s-11-4.73-17-5.63a109.86,109.86,0,0,0-33.91.31c-6.53,1.09-13.25,2.91-18.06,7.43-6,5.61-7.91,14.88-5.41,22.69a27.51,27.51,0,0,0,15,16.18c.12,1.44.24,2.87.28,4.32,0,1.6.08,3.19.13,4.83a7.14,7.14,0,0,0-5.67,1.19,8.65,8.65,0,0,0-3,8.76,10.41,10.41,0,0,0,11.16,8.15,35,35,0,0,0,2.14,5.5c1.34,2.75,2.48,5,4.83,7a20.91,20.91,0,0,0,9.65,5.1,37.81,37.81,0,0,0,9.56.53c.17.6.35,1.19.52,1.79a9,9,0,0,1,.48,2.18,2.59,2.59,0,0,1,0,.56h-.12l-2.92.7c-1.2.3-2.39.62-3.58,1a60.42,60.42,0,0,0-15.5,6.47c-6.77,4.18-12.5,10.66-14.41,18.28H705a88.23,88.23,0,0,0-2.15-11.41q-.65-2.47-1.43-5a13.34,13.34,0,0,0,1.59-7.88,9,9,0,0,0-3.18-6.14,5.87,5.87,0,0,0-4.78-1,62.84,62.84,0,0,0-5.31-8.27c-2-2.6-3.61-5.25-6.12-7.41a7,7,0,0,0-2.07-1.33,2.72,2.72,0,0,0-2.39.16,2.91,2.91,0,0,0-1.14,2.62c.11,1.88,1.35,3.49,2.63,4.86A18.76,18.76,0,0,1,683.67,284.86Z"/><line class="cls-5" x1="677.05" y1="210.92" x2="730.3" y2="210.92"/><line class="cls-5" x1="675.62" y1="220.94" x2="691.97" y2="220.94"/><line class="cls-5" x1="696.51" y1="230.96" x2="727.44" y2="230.96"/><line class="cls-5" x1="674.19" y1="230.96" x2="683.87" y2="230.96"/><line class="cls-5" x1="706.29" y1="240.97" x2="726.01" y2="240.97"/><line class="cls-5" x1="672.75" y1="240.97" x2="691.74" y2="240.97"/><line class="cls-5" x1="696.75" y1="250.99" x2="711.3" y2="250.99"/><line class="cls-5" x1="671.33" y1="250.99" x2="685.06" y2="250.99"/><line class="cls-5" x1="669.89" y1="261.01" x2="723.14" y2="261.01"/><polygon class="cls-6" points="814.37 288.22 643.29 288.22 643.29 281.8 809.12 281.8 827.71 188.84 834 190.1 814.37 288.22"/><path class="cls-7" d="M945.76,333l-.08.41A26.09,26.09,0,0,1,914.46,343h0A34.92,34.92,0,0,1,945.76,333Z"/><path class="cls-3" d="M935.46,304.6h-.08c-3.09.63-6.31-.25-9.16-1.59a7.69,7.69,0,0,0,0-9.67,14.51,14.51,0,0,1,9.12-1.6,2.65,2.65,0,0,1,.63.16c3.44,1,6.92,4.56,5.21,8.3a7.43,7.43,0,0,1-1.43,2.07A8.71,8.71,0,0,1,935.46,304.6Z"/><path class="cls-8" d="M936.05,291.77v.1c-.2-.05-.41-.12-.63-.16a14.64,14.64,0,0,0-9.12,1.59,9.84,9.84,0,0,0-1.06-1.08,14.59,14.59,0,0,0,1.59-9.1V283c3.13-1.93,8.55-2,10,2.1a7.38,7.38,0,0,1,.39,2.47A8.73,8.73,0,0,1,936.05,291.77Z"/><path class="cls-8" d="M935.46,304.6c1.94,3.13,2,8.55-2.09,10a7,7,0,0,1-2.47.39,8.47,8.47,0,0,1-4.17-1.13h-.08c.05-.21.11-.42.16-.63.62-3.09-.26-6.31-1.6-9.16a8.28,8.28,0,0,0,1-1.05,14.37,14.37,0,0,0,9.16,1.6Z"/><path class="cls-3" d="M914,282.53a8.51,8.51,0,0,1,2.24-3.8,7.08,7.08,0,0,1,2.06-1.44c4-1.8,7.66,2.15,8.44,5.76v.08c.63,3.08-.25,6.27-1.59,9.11a7.69,7.69,0,0,0-9.74-.07,14.73,14.73,0,0,1-1.59-9C913.89,283,914,282.75,914,282.53Z"/><path class="cls-3" d="M919,319.27a4.16,4.16,0,0,1-.62-.23,6.51,6.51,0,0,1-1.76-1.17,2.55,2.55,0,0,1-.3-.26,8.53,8.53,0,0,1-2.39-4.34v-.07a14.51,14.51,0,0,1,1.6-9.09,7.68,7.68,0,0,0,9.68-.07c1.38,2.85,2.26,6.06,1.6,9.16a2.91,2.91,0,0,1-.16.63C925.68,317.05,922.47,320.36,919,319.27Z"/><path class="cls-4" d="M925.17,304a7.68,7.68,0,0,1-9.68.07,6.62,6.62,0,0,1-1.1-1.08,7.65,7.65,0,0,1,0-9.75,6.48,6.48,0,0,1,1.11-1.11,7.69,7.69,0,0,1,9.74.07,9.84,9.84,0,0,1,1.06,1.08A7.68,7.68,0,0,1,925.21,304Z"/><path class="cls-7" d="M914.18,343.22l-4,20h-2.67l9-45.34a6.51,6.51,0,0,0,1.76,1.17l.62.23Z"/><path class="cls-8" d="M914.39,303a6.62,6.62,0,0,0,1.1,1.08,14.51,14.51,0,0,0-1.6,9.09v.07a8.42,8.42,0,0,1-4.78,1.29,7.06,7.06,0,0,1-2.45-.47c-3.84-1.52-3.78-6.51-2-9.62l.59.15A14.67,14.67,0,0,0,914.39,303Z"/><path class="cls-3" d="M904.74,304.47a8.73,8.73,0,0,1-3.81-2.24,7.32,7.32,0,0,1-1.43-2.06c-1.79-3.93,2.14-7.65,5.73-8.43h.11a14.3,14.3,0,0,1,9,1.59,7.65,7.65,0,0,0,0,9.75,14.56,14.56,0,0,1-9.08,1.59Z"/><path class="cls-3" d="M910.21,363.19H917l-6.24,17.71c11.48,21.72,17.1,46.42,4.87,57.66H885c-12.24-11.24-7-35.94,4.45-57.66l-6.2-17.71h27Z"/><path class="cls-8" d="M905.19,291.67a8.55,8.55,0,0,1-1.25-4.7,7.18,7.18,0,0,1,.49-2.46c1.52-3.84,6.5-3.77,9.61-2l-.15.6a14.37,14.37,0,0,0,1.6,9,6.2,6.2,0,0,0-1.12,1.11,14.73,14.73,0,0,0-9-1.59h-.1Z"/><path class="cls-4" d="M751.24,266.62a4.11,4.11,0,0,1,1.85,4.38,7.6,7.6,0,0,1-2.74,4.2,13.1,13.1,0,0,1-17.25-.38A5.51,5.51,0,0,1,731,271c-.1-3.57,3.39-2.48,5.57-2.6a45.69,45.69,0,0,0,9.56-1.59C747.82,266.36,749.68,265.81,751.24,266.62Z"/><path class="cls-9" d="M719.29,272.85a59,59,0,0,1-2.3-13.38c-.12-1.6-.2-3.19-.25-4.78s-.09-3.19-.14-4.83c0-1.45-.16-2.88-.28-4.32s-.19-2.73-.18-4.08a31.3,31.3,0,0,1,4.78-16.34H721a23.19,23.19,0,0,0,16.54,15.66c4.15,1,8.88.58,12.15-2.16a7.87,7.87,0,0,0,1-1,29.28,29.28,0,0,0,7.13,4.65,30.11,30.11,0,0,0,7,2.25,19.18,19.18,0,0,0,3.63.46c1.27,0,2.24-.06,2.8,1.14a21.1,21.1,0,0,0,2.06,3.68,19,19,0,0,0,6.67,5.78l.18.17a6.83,6.83,0,0,1,8.56-.8l.32.22a8.73,8.73,0,0,1,3,8.81,10.59,10.59,0,0,1-7.48,7.83,10.73,10.73,0,0,1-8.42-1.26,38.66,38.66,0,0,1-17.73,17.18,36.31,36.31,0,0,1-13,3.27,37.81,37.81,0,0,1-9.56-.53,21.19,21.19,0,0,1-9.65-5.1c-2.34-2-3.49-4.24-4.83-7A34.08,34.08,0,0,1,719.29,272.85Zm33.8-1.85a4.11,4.11,0,0,0-1.85-4.38c-1.6-.8-3.44-.26-5.12.21a45.69,45.69,0,0,1-9.56,1.59c-2.19.12-5.68-1-5.58,2.6a5.56,5.56,0,0,0,2.1,3.8,13.11,13.11,0,0,0,17.26.39,7.56,7.56,0,0,0,2.75-4.21Z"/><polygon class="cls-7" points="566.45 312.79 569 334.92 559.11 334.92 556.7 313.93 566.45 312.79"/><polygon class="cls-7" points="787.29 341.13 778.41 348.62 766.5 348.62 775.38 341.13 787.29 341.13"/><polygon class="cls-7" points="680 341.13 671.13 348.62 659.21 348.62 668.09 341.13 680 341.13"/><path class="cls-10" d="M807.85,321.88H755.79a39.82,39.82,0,0,1-.48-8.52,17,17,0,0,1,4-10.35c1.59-1.72,3.59-3,5.31-4.56a10,10,0,0,0,2.92-4.3A57.37,57.37,0,0,1,807.85,321.88Z"/><polygon class="cls-7" points="704.1 371.09 694.5 379.17 682.6 379.17 692.16 371.09 704.1 371.09"/><polygon class="cls-7" points="701.04 363.59 692.16 371.09 680.25 371.09 689.13 363.59 701.04 363.59"/><polygon class="cls-7" points="718.82 348.62 709.93 356.11 698.01 356.11 706.89 348.62 718.82 348.62"/><polygon class="cls-7" points="799.22 341.13 790.34 348.62 778.41 348.62 787.29 341.13 799.22 341.13"/><polygon class="cls-7" points="692.16 371.09 682.6 379.17 670.66 379.17 680.25 371.09 692.16 371.09"/><polygon class="cls-7" points="721.86 356.11 712.98 363.59 701.04 363.59 709.93 356.11 721.86 356.11"/><polygon class="cls-7" points="694.98 348.62 686.1 356.11 674.17 356.11 683.05 348.62 694.98 348.62"/><polygon class="cls-7" points="668.33 371.09 658.75 379.17 646.83 379.17 656.4 371.09 668.33 371.09"/><polygon class="cls-7" points="689.13 363.59 680.25 371.09 668.33 371.09 677.22 363.59 689.13 363.59"/><polygon class="cls-7" points="603.18 305.57 598.62 334.92 588.67 334.92 593.49 304.07 603.18 305.57"/><polygon class="cls-7" points="656.4 371.09 646.83 379.17 634.91 379.17 644.49 371.09 656.4 371.09"/><polygon class="cls-7" points="706.89 348.62 698.01 356.11 686.1 356.11 694.98 348.62 706.89 348.62"/><polygon class="cls-7" points="763.46 341.13 754.58 348.62 742.65 348.62 751.53 341.13 763.46 341.13"/><path class="cls-11" d="M854.31,329.58l.18.38h-.24C854.27,329.79,854.29,329.71,854.31,329.58Z"/><polygon class="cls-7" points="671.13 348.62 662.25 356.11 650.33 356.11 659.21 348.62 671.13 348.62"/><polygon class="cls-7" points="727.68 341.13 718.82 348.62 706.89 348.62 715.76 341.13 727.68 341.13"/><polygon class="cls-7" points="665.29 363.59 656.4 371.09 644.49 371.09 653.37 363.59 665.29 363.59"/><polygon class="cls-7" points="739.86 371.09 730.26 379.17 718.36 379.17 727.93 371.09 739.86 371.09"/><polygon class="cls-7" points="715.76 341.13 706.89 348.62 694.98 348.62 703.85 341.13 715.76 341.13"/><path class="cls-10" d="M746.36,321.88h-36.5c1.9-7.61,7.63-14.09,14.4-18.28a60.4,60.4,0,0,1,15.5-6.46,4.64,4.64,0,0,0,1,2.54c.75,1,1.74,1.81,2.51,2.79,2.08,2.65,2.71,6.76,2.39,10.06A40.74,40.74,0,0,0,746.36,321.88Z"/><path class="cls-12" d="M721,225.13h0a31.21,31.21,0,0,0-4.78,16.34c0,1.35.08,2.71.18,4.07a27.55,27.55,0,0,1-15-16.17c-2.5-7.82-.58-17.08,5.41-22.7,4.78-4.51,11.54-6.37,18.06-7.42a109.24,109.24,0,0,1,33.91-.31c6,.89,12,2.33,17,5.62s8.76,8.38,9.16,14.16l.83-.07a8.83,8.83,0,0,1,6.52,4.83,18.7,18.7,0,0,1,1.86,8.15,44.93,44.93,0,0,1-5.45,23.29,6.91,6.91,0,0,0-8.57.8l-.18-.17a19,19,0,0,1-6.67-5.78,20.81,20.81,0,0,1-2-3.68c-.57-1.2-1.54-1.16-2.8-1.14a19.3,19.3,0,0,1-3.64-.47,29.79,29.79,0,0,1-14.07-6.89,8.59,8.59,0,0,1-1,1c-3.27,2.74-8,3.11-12.16,2.16A23.23,23.23,0,0,1,721,225.13Z"/><polygon class="cls-10" points="825.82 362.49 846.51 438.35 840.91 438.47 821 366.68 825.82 362.49"/><path class="cls-10" d="M854.49,330l2.46,5.51-31.13,27L821,366.67l-1.32-4.78-.61-.68,35.13-31V330Z"/><polygon class="cls-7" points="632.57 371.09 622.99 379.17 611.07 379.17 620.63 371.09 632.57 371.09"/><polygon class="cls-7" points="811.14 341.13 802.25 348.62 790.34 348.62 799.22 341.13 811.14 341.13"/><polygon class="cls-7" points="814.17 348.62 805.3 356.11 793.38 356.11 802.25 348.62 814.17 348.62"/><polygon class="cls-7" points="727.93 371.09 718.36 379.17 706.42 379.17 716 371.09 727.93 371.09"/><polygon class="cls-7" points="677.22 363.59 668.33 371.09 656.4 371.09 665.29 363.59 677.22 363.59"/><polygon class="cls-7" points="703.85 341.13 694.98 348.62 683.05 348.62 691.92 341.13 703.85 341.13"/><polygon class="cls-7" points="739.62 341.13 730.74 348.62 718.82 348.62 727.68 341.13 739.62 341.13"/><polygon class="cls-7" points="629.53 363.59 620.63 371.09 608.73 371.09 617.62 363.59 629.53 363.59"/><polygon class="cls-7" points="790.34 348.62 781.47 356.11 769.53 356.11 778.41 348.62 790.34 348.62"/><polygon class="cls-7" points="778.41 348.62 769.53 356.11 757.63 356.11 766.5 348.62 778.41 348.62"/><polygon class="cls-7" points="766.5 348.62 757.63 356.11 745.7 356.11 754.58 348.62 766.5 348.62"/><polygon class="cls-7" points="802.25 348.62 793.38 356.11 781.47 356.11 790.34 348.62 802.25 348.62"/><polygon class="cls-7" points="626.49 356.11 617.62 363.59 605.68 363.59 614.57 356.11 626.49 356.11"/><polygon class="cls-7" points="775.62 371.09 766.03 379.17 754.12 379.17 763.7 371.09 775.62 371.09"/><polygon class="cls-7" points="691.92 341.13 683.05 348.62 671.13 348.62 680 341.13 691.92 341.13"/><polygon class="cls-7" points="638.4 356.11 629.53 363.59 617.62 363.59 626.49 356.11 638.4 356.11"/><polygon class="cls-7" points="644.25 341.13 635.37 348.62 623.45 348.62 632.33 341.13 644.25 341.13"/><polygon class="cls-7" points="653.37 363.59 644.49 371.09 632.57 371.09 641.46 363.59 653.37 363.59"/><polygon class="cls-7" points="581.79 292.1 579.47 285.21 575.04 301.29 575.54 334.92 569.33 334.92 573.71 257.95 590.58 259.05 586.37 334.92 585.38 334.92 584.86 301.12 581.79 292.1"/><polygon class="cls-7" points="733.77 356.11 724.89 363.59 712.98 363.59 721.86 356.11 733.77 356.11"/><polygon class="cls-7" points="793.38 356.11 784.5 363.59 772.59 363.59 781.47 356.11 793.38 356.11"/><polygon class="cls-7" points="668.09 341.13 659.21 348.62 647.29 348.62 656.17 341.13 668.09 341.13"/><polygon class="cls-7" points="656.17 341.13 647.29 348.62 635.37 348.62 644.25 341.13 656.17 341.13"/><polygon class="cls-7" points="712.98 363.59 704.1 371.09 692.16 371.09 701.04 363.59 712.98 363.59"/><polygon class="cls-7" points="784.5 363.59 775.62 371.09 763.7 371.09 772.59 363.59 784.5 363.59"/><polygon class="cls-7" points="763.7 371.09 754.12 379.17 742.2 379.17 751.77 371.09 763.7 371.09"/><polygon class="cls-7" points="760.65 363.59 751.77 371.09 739.86 371.09 748.74 363.59 760.65 363.59"/><polygon class="cls-7" points="805.3 356.11 796.42 363.59 784.5 363.59 793.38 356.11 805.3 356.11"/><polygon class="cls-7" points="709.93 356.11 701.04 363.59 689.13 363.59 698.01 356.11 709.93 356.11"/><polygon class="cls-7" points="698.01 356.11 689.13 363.59 677.22 363.59 686.1 356.11 698.01 356.11"/><polygon class="cls-7" points="686.1 356.11 677.22 363.59 665.29 363.59 674.17 356.11 686.1 356.11"/><polygon class="cls-7" points="683.05 348.62 674.17 356.11 662.25 356.11 671.13 348.62 683.05 348.62"/><polygon class="cls-7" points="674.17 356.11 665.29 363.59 653.37 363.59 662.25 356.11 674.17 356.11"/><polygon class="cls-7" points="662.25 356.11 653.37 363.59 641.46 363.59 650.33 356.11 662.25 356.11"/><polygon class="cls-7" points="641.46 363.59 632.57 371.09 620.63 371.09 629.53 363.59 641.46 363.59"/><polygon class="cls-7" points="650.33 356.11 641.46 363.59 629.53 363.59 638.4 356.11 650.33 356.11"/><polygon class="cls-7" points="659.21 348.62 650.33 356.11 638.4 356.11 647.29 348.62 659.21 348.62"/><polygon class="cls-7" points="647.29 348.62 638.4 356.11 626.49 356.11 635.37 348.62 647.29 348.62"/><polygon class="cls-7" points="772.59 363.59 763.7 371.09 751.77 371.09 760.65 363.59 772.59 363.59"/><polygon class="cls-7" points="781.47 356.11 772.59 363.59 760.65 363.59 769.53 356.11 781.47 356.11"/><path class="cls-13" d="M717,259.47a59,59,0,0,0,2.3,13.38,10.39,10.39,0,0,1-11.15-8.15,8.65,8.65,0,0,1,3-8.76,7.14,7.14,0,0,1,5.67-1.19A46.88,46.88,0,0,0,717,259.47Z"/><polygon class="cls-7" points="748.74 363.59 739.86 371.09 727.93 371.09 736.82 363.59 748.74 363.59"/><polygon class="cls-7" points="775.38 341.13 766.5 348.62 754.58 348.62 763.46 341.13 775.38 341.13"/><path class="cls-4" d="M703.71,384.42l-27.34,23.05H628.2l27.35-23.05C654.73,383.6,703.71,384.42,703.71,384.42Z"/><polygon class="cls-7" points="769.53 356.11 760.65 363.59 748.74 363.59 757.63 356.11 769.53 356.11"/><polygon class="cls-7" points="635.37 348.62 626.49 356.11 614.57 356.11 623.45 348.62 635.37 348.62"/><polygon class="cls-7" points="796.42 363.59 787.53 371.09 775.62 371.09 784.5 363.59 796.42 363.59"/><polygon class="cls-7" points="644.49 371.09 634.91 379.17 622.99 379.17 632.57 371.09 644.49 371.09"/><polygon class="cls-7" points="617.62 363.59 608.73 371.09 596.79 371.09 605.68 363.59 617.62 363.59"/><polygon class="cls-7" points="608.73 371.09 599.14 379.17 587.23 379.17 596.79 371.09 608.73 371.09"/><polygon class="cls-7" points="757.63 356.11 748.74 363.59 736.82 363.59 745.7 356.11 757.63 356.11"/><polygon class="cls-7" points="745.7 356.11 736.82 363.59 724.89 363.59 733.77 356.11 745.7 356.11"/><polygon class="cls-7" points="680.25 371.09 670.66 379.17 658.75 379.17 668.33 371.09 680.25 371.09"/><polygon class="cls-14" points="542.64 299.69 553.49 334.92 543.22 334.92 533.27 302.6 542.64 299.69"/><polygon class="cls-7" points="588.67 334.92 598.62 334.92 599.95 334.92 597.88 356.73 549.95 399.09 542.99 334.92 543.22 334.92 553.49 334.92 559.11 334.92 569 334.92 569.33 334.92 575.54 334.92 585.38 334.92 586.37 334.92 588.67 334.92"/><polygon class="cls-7" points="823.05 341.13 814.17 348.62 802.25 348.62 811.14 341.13 823.05 341.13"/><polygon class="cls-7" points="736.82 363.59 727.93 371.09 716 371.09 724.89 363.59 736.82 363.59"/><polygon class="cls-7" points="724.89 363.59 716 371.09 704.1 371.09 712.98 363.59 724.89 363.59"/><polygon class="cls-7" points="730.74 348.62 721.86 356.11 709.93 356.11 718.82 348.62 730.74 348.62"/><polygon class="cls-7" points="754.58 348.62 745.7 356.11 733.77 356.11 742.65 348.62 754.58 348.62"/><polygon class="cls-7" points="742.65 348.62 733.77 356.11 721.86 356.11 730.74 348.62 742.65 348.62"/><polygon class="cls-7" points="751.53 341.13 742.65 348.62 730.74 348.62 739.62 341.13 751.53 341.13"/><polygon class="cls-7" points="716 371.09 706.42 379.17 694.5 379.17 704.1 371.09 716 371.09"/><polygon class="cls-7" points="787.53 371.09 777.96 379.17 766.03 379.17 775.62 371.09 787.53 371.09"/><polygon class="cls-7" points="620.63 371.09 611.07 379.17 599.14 379.17 608.73 371.09 620.63 371.09"/><polygon class="cls-7" points="751.77 371.09 742.2 379.17 730.26 379.17 739.86 371.09 751.77 371.09"/><path class="cls-10" d="M705,321.88H683.07a39.25,39.25,0,0,0-1.22-7.84l21-3.56A90.14,90.14,0,0,1,705,321.88Z"/><path class="cls-9" d="M763.5,293.66a11.3,11.3,0,0,1-6.16,5.13,17.78,17.78,0,0,1-8.83.62,8.89,8.89,0,0,1-3.33-1.05,4.19,4.19,0,0,1-1.84-2.18l2.92-.71h.12a2.62,2.62,0,0,0,0-.56,24.48,24.48,0,0,0,12.67-4.86c.38,1.14.8,2.28,1.14,3.43C761.36,293.53,762.41,293.58,763.5,293.66Z"/><path class="cls-13" d="M758.32,287.71c.26.8.52,1.6.8,2.39a24.41,24.41,0,0,1-12.67,4.9,8.61,8.61,0,0,0-.49-2.18c-.16-.6-.35-1.19-.51-1.79a36.25,36.25,0,0,0,12.88-3.26Z"/><path class="cls-7" d="M767.52,294.14a10,10,0,0,1-2.92,4.3c-1.72,1.6-3.74,2.84-5.31,4.56a17.1,17.1,0,0,0-4,10.35,40,40,0,0,0,.48,8.53h-9.43a40.75,40.75,0,0,1-.65-9.36c.29-3.3-.34-7.41-2.39-10.06-.8-1-1.76-1.79-2.51-2.78a4.67,4.67,0,0,1-1-2.55l3.59-1a4.15,4.15,0,0,0,1.84,2.18,8.85,8.85,0,0,0,3.33,1.06,17.86,17.86,0,0,0,8.82-.63,11.39,11.39,0,0,0,6.16-5.12C764.84,293.77,766.18,294,767.52,294.14Z"/><path class="cls-9" d="M695.07,290.48a5.83,5.83,0,0,1,4.78,1,9,9,0,0,1,3.19,6.14,13.34,13.34,0,0,1-1.59,7.88c.52,1.64,1,3.3,1.43,5l-21,3.56a37,37,0,0,0-1.36-4.26,8.39,8.39,0,0,1-5.8-10.36,7.86,7.86,0,0,1,.93-2.12,3.2,3.2,0,0,1,.16-2.75,3.25,3.25,0,0,1,2.74-1.68l.24-.14A3.8,3.8,0,0,1,679,289c1-1.46,2.93-1.85,4.58-1.73a3.53,3.53,0,0,1,2,.69h0c-.58-1.05-1.34-2-1.9-3a18.11,18.11,0,0,0-3-3.75c-1.28-1.38-2.52-3-2.63-4.87a2.88,2.88,0,0,1,1.14-2.61,2.72,2.72,0,0,1,2.39-.17,7,7,0,0,1,2.07,1.33c2.51,2.17,4.16,4.78,6.12,7.41A62.21,62.21,0,0,1,695.07,290.48Z"/><circle class="cls-4" cx="726.84" cy="256.15" r="8.12"/><path class="cls-4" d="M739.68,255.13a8.12,8.12,0,1,0,8.14-8.12,8.11,8.11,0,0,0-8.14,8.12Z"/><path class="cls-15" d="M781.17,254.23l-25.26.9a8.12,8.12,0,0,0-16.23-.51,4.34,4.34,0,0,0,0,.51c0,.31.26,1.13.05.91a36.26,36.26,0,0,0-4.78.11,8.12,8.12,0,0,0-16.23-.51v.51h-3.27"/><path class="cls-12" d="M722,244.27a1.05,1.05,0,0,1-1.08-1v0a1,1,0,0,1,.45-.88,11.22,11.22,0,0,1,7.39-2,1.06,1.06,0,0,1,1,1.12h0a1.08,1.08,0,0,1-1.13,1h-.06a9.15,9.15,0,0,0-6,1.64A1.16,1.16,0,0,1,722,244.27Z"/><path class="cls-12" d="M751.55,242.9a1,1,0,0,0,1.08-1,1.06,1.06,0,0,0-.46-.91,11.22,11.22,0,0,0-7.38-2,1.08,1.08,0,0,0-1,1.13v0a1.05,1.05,0,0,0,1.11,1h0a9.34,9.34,0,0,1,6,1.6A1.09,1.09,0,0,0,751.55,242.9Z"/><path class="cls-11" d="M768.65,180.94v.14H767A10.21,10.21,0,0,0,768.65,180.94Z"/><path class="cls-4" d="M767,162.52a7.67,7.67,0,0,1,0,15.33H747.25a7.67,7.67,0,0,1,0-15.33Z"/><path class="cls-10" d="M777.88,159.33a10.89,10.89,0,0,1,0,21.78h-9.23V181A10.89,10.89,0,0,0,767,159.33Z"/><path class="cls-7" d="M747.25,177.86H767a7.67,7.67,0,1,0,.73-15.32H747.25a7.67,7.67,0,0,0,0,15.33Zm8.54,3.19h-8.54a10.89,10.89,0,1,1,0-21.78H767a10.88,10.88,0,0,1,1.65,21.64,10.21,10.21,0,0,1-1.65.14Z"/><path class="cls-10" d="M768.65,181.08v2.71H755.79v-2.71Z"/><path class="cls-10" d="M749.8,170.18a2.14,2.14,0,1,1-2.16-2.12h0A2.15,2.15,0,0,1,749.8,170.18Z"/><circle class="cls-7" cx="762.75" cy="170.19" r="5.59" transform="translate(422.51 873.75) rotate(-76.77)"/><circle class="cls-10" cx="762.76" cy="170.18" r="2.12"/><path class="cls-12" d="M537.2,291.89l-4.17-6,.12,8.11c1.52-.44,3-.93,4.52-1.48Z"/><path class="cls-7" d="M542.65,299.69l-5-7.13c-1.49.53-3,1-4.52,1.48l.13,8.56Z"/><polygon class="cls-7" points="559.49 297.49 558.41 303.79 562.13 303.32 559.49 297.49"/><polygon class="cls-14" points="562.13 303.32 558.41 303.79 556.7 313.93 566.45 312.79 562.5 304.11 562.13 303.32"/><polygon class="cls-4" points="575.04 301.29 575.54 334.92 585.38 334.92 584.86 301.12 575.04 301.29"/><polygon class="cls-12" points="579.47 285.21 577.67 291.7 581.63 291.59 579.47 285.21"/><polygon class="cls-14" points="581.79 292.1 581.63 291.59 577.67 291.7 575.04 301.29 584.86 301.12 581.79 292.1"/><polygon class="cls-7" points="600.54 288.97 598.03 294.34 601.5 294.97 600.54 288.97"/><polygon class="cls-14" points="601.5 294.97 598.03 294.34 593.49 304.07 603.18 305.57 601.68 296.17 601.5 294.97"/><path class="cls-16" d="M780.48,263.61a5,5,0,0,1,6-3.67,5.63,5.63,0,0,1,.95.33"/><path class="cls-16" d="M737.52,261.89a2.2,2.2,0,0,0-2.69,1.57h0a2.05,2.05,0,0,0,0,1.1"/><path class="cls-7" d="M199,434.25l4,86.32H186.14l-.57-86.37C190.05,434.33,194.54,434.31,199,434.25Z"/><path class="cls-17" d="M154.5,168c-3.14-1.59-6.78-.79-9.63,1.37-5-40.68-1.59-65.2,11.15-91.24l.8.35c-.17.35-.33.7-.47,1.06a102,102,0,0,0-7.78,35.84,137.9,137.9,0,0,0,3.89,38.13q1.59,6.74,3.82,13.31c.28.85.58,1.7.89,2.55C156.3,168.55,155.9,168.75,154.5,168Z"/><rect class="cls-10" x="947.28" y="457.9" width="18.68" height="172.67"/><path class="cls-10" d="M210.64,274.24q-4.5,2.14-8.89,4.51C179,295.38,156.69,312.21,134.42,329c1-6.81.8-13.82,1.35-20.71.71-8.89,3-18.26,9.56-24.29,5.44-5,13-6.94,20.23-8.35a238.35,238.35,0,0,1,51.62-4.38C215,272.21,212.81,273.21,210.64,274.24Z"/><path class="cls-17" d="M178.76,129.81c3.87,19.12-1.68,44.79-9.95,63.25a113.65,113.65,0,0,1-11.65-23.67c-.31-.84-.61-1.69-.89-2.55q-2.22-6.56-3.82-13.3a137.9,137.9,0,0,1-3.89-38.13,102,102,0,0,1,7.78-35.84c.15-.36.3-.71.47-1.06s.33-.8.51-1.15a110.56,110.56,0,0,1,42-47.51C219.83,17,242.81,9.76,267.18,10.27a105.08,105.08,0,0,1,59.74,20A89.88,89.88,0,0,1,343.1,45.51,71.07,71.07,0,0,1,353,61.36a59,59,0,0,1,5.15,23.22,56.2,56.2,0,0,1-2.75,18.06c1.38,10.2,2.7,20.44,3.37,30.7,0,.42.06.8.08,1.24h-.15A66.93,66.93,0,0,1,339.36,99,2.8,2.8,0,0,1,336,97.4c-.74-1.45-.64-3.18-.69-4.78-.09-3-.33-6-.7-8.92s-.87-5.91-1.49-8.83c-.32-1.5-.67-3-1.07-4.48a23.37,23.37,0,0,1-1.14-4,128.19,128.19,0,0,1-.19,23.18c-.33,2.88-.92,6-3,8-2.29,2.29-5.81,2.72-9,3l-24.12,2.27a2.06,2.06,0,0,1-2.68-1.16,1.9,1.9,0,0,1-.12-1Q291,92.89,290.11,85l-.86-7.86c-.15-1.25-.34-2.52-.43-3.78,0-.6.39-2-.3-2.32-1.59-.68-.95,5.27-.91,6.11.11,2.73.26,5.46.2,8.19-.12,6.47-1.81,13.48-6.95,17.4-3.7,2.83-8.53,3.57-13.15,4.21-5.31.75-11.51,1.21-15.22-2.67a88.34,88.34,0,0,0,.49-8.91,90,90,0,0,0-1.79-17.86c-.39-1.94-3.19-16.18-5.58-15.38-1.16.39-.52,2.81-.48,3.69.08,1.59.14,3.18.19,4.78q.09,4.68,0,9.35a184.78,184.78,0,0,1-1.48,18.8c-.47,3.7-1.23,7.71-4.06,10.14-1.92,1.66-4.51,2.31-7,2.9l-15.21,3.61a4.08,4.08,0,0,1-2.65.08c-1.36-.62-1.59-2.39-1.72-3.89-.27-4.61-.52-9.2-1-13.79a46,46,0,0,0-.71-6.31c-.24-.88-.67-.88-1,0a6.37,6.37,0,0,0-.13,2.13c0,1.2-.1,2.39-.19,3.61a52.54,52.54,0,0,1-1,7.07,28.42,28.42,0,0,1-5.79,12.5C197.28,124,187.76,126.45,178.76,129.81Z"/><path class="cls-8" d="M813.89,420.88c6.63.62,15.58,4.3,13.68,12.51a9.06,9.06,0,0,1-3.68,5.34H782.07a6,6,0,0,1-4.43-2.75c-4.94-8,10.35-12.61,15.66-13.72C800.17,420.24,810.17,420.53,813.89,420.88Z"/><path class="cls-11" d="M81.42,182.59l-.38.12.24-.25Z"/><path class="cls-10" d="M185.57,434.2c-3.13-.09-6.25-.25-9.35-.53-10.35-.93-20.76-4.36-28.31-11.48s-11.51-17-13-27.19a41.74,41.74,0,0,0,24.83-9.69q18-10.47,35.11-22.3L199,434.25C194.54,434.31,190.05,434.33,185.57,434.2Z"/><path class="cls-7" d="M347.55,36.55C371,67,376.72,96.87,380.12,128.16a14.29,14.29,0,0,0-8.53-6.52,10.59,10.59,0,0,0-5.39.19,209.56,209.56,0,0,0-8-37.24h-.06A59.08,59.08,0,0,0,353,61.36a70.72,70.72,0,0,0-9.93-15.89c3.07-1.41,4.86-5.36,4.44-8.92Z"/><path class="cls-11" d="M676.74,429.44h-.43v-.21Z"/><path class="cls-4" d="M676.31,429.2v.22c-20.27-.92-42-1.12-62.13-.37v-.14a55.45,55.45,0,0,0-23.68-11.22h0a3.75,3.75,0,0,0-1.14-2.39,42.65,42.65,0,0,0-3.86-2.85c-.3-.44-.61-.87-.93-1.27l.19-.15C615.59,406.94,649.37,414.16,676.31,429.2Z"/><path class="cls-9" d="M585.49,412.48c1.34.9,2.62,1.84,3.86,2.86a3.7,3.7,0,0,1,1.14,2.39,5.35,5.35,0,0,1-1.31,4.16c-1.68,1.79-4.38,2.29-6.82,2a35.4,35.4,0,0,1-7-2.14,49.14,49.14,0,0,0-32.71.07c4.07,4.4,8.37,6.38,12.75,6.49a29.06,29.06,0,0,1,14.38.32c2.53.73,5.32,2.39,5.43,5a4.88,4.88,0,0,1-2.63,4.17,9.46,9.46,0,0,1-2.7,1c-.74.19-1.5.31-2.25.43l-18.21,2.92c-8.48,2.92-20.47.21-28.54-7.09-3.09.41-7,.7-10.86,1-3.16.49-6.33,1-9.49,1.43-1.64.22-3.28.44-4.93.64q3.64-21.42,5.76-43.06L542,396.85v.06a91.35,91.35,0,0,1,23.34,2.66c7.41,1.87,14.6,5.67,19.27,11.65C584.88,411.62,585.2,412.05,585.49,412.48Z"/><path class="cls-17" d="M358.24,84.58a209.56,209.56,0,0,1,8,37.24,9.18,9.18,0,0,0-3.66,2c-2.38,2.16-3.46,6.37-3.74,9.56-.67-10.26-2-20.51-3.37-30.7a56.26,56.26,0,0,0,2.75-18.07Z"/><path class="cls-10" d="M384,145.1c.1,2.46.16,4.93.15,7.4A91.29,91.29,0,0,1,382,173.21c-1.19,5-3,10-6.37,13.93s-8.32,6.7-13.46,6.37a12,12,0,0,1-9.32-5.57l-.15-.06a109.59,109.59,0,0,0,5.83-26.16,168.33,168.33,0,0,0,.33-27.13c0-.41-.05-.79-.08-1.24.28-3.19,1.36-7.38,3.74-9.56a9.43,9.43,0,0,1,3.66-2,10.59,10.59,0,0,1,5.39-.19,14.38,14.38,0,0,1,8.53,6.51,19.78,19.78,0,0,1,1.53,2.92C383.49,135.44,383.84,140.33,384,145.1Z"/><path class="cls-12" d="M88.81,180.31l3.74-1.16c-.26,1-.62,2.32-1,3.74Z"/><path class="cls-18" d="M88.81,180.31l2.76,2.58c-.86,3.26-1.8,7-2,7.71l-8.16-8Z"/><path class="cls-19" d="M147.49,73.54a6.16,6.16,0,0,1-1-1.83,10,10,0,0,1,.22-5.57c1.76-6.78,5.37-12.45,9.87-17.71a126.85,126.85,0,0,1,24.61-22.11C202.27,11.89,225.82,3.83,251,.92a132.26,132.26,0,0,1,38,1c18.45,3.26,36.22,11,50.58,23,3.48,2.92,6.92,6.37,7.85,10.82.05.26.09.52.12.79.42,3.56-1.37,7.52-4.43,8.93a89.59,89.59,0,0,0-16.21-15.22,105.08,105.08,0,0,0-59.74-20c-24.4-.51-47.35,6.73-67.9,19.57a110.62,110.62,0,0,0-42,47.51A22.63,22.63,0,0,1,151,76.16,8.6,8.6,0,0,1,147.49,73.54Z"/><path class="cls-20" d="M676.31,429.42v9.31H614.18v-9.68C634.33,428.3,656,428.5,676.31,429.42Z"/><path class="cls-11" d="M134.18,164.34c.19,1,.34,2,.46,3C134.48,166.37,134.33,165.36,134.18,164.34Z"/><path class="cls-7" d="M156,78.15c-12.74,26-16.09,50.56-11.15,91.24a12.43,12.43,0,0,0-4.47,6.31c-1.16,4-.61,8.13.62,12.13l-1.59.48a150,150,0,0,1-4.82-20.93q-.17-1.5-.45-3a166.63,166.63,0,0,1-1.44-26.51,174,174,0,0,1,8.22-49.49c1.69-5.28,3.42-10.24,6.59-14.78A8.4,8.4,0,0,0,151,76.13a22.37,22.37,0,0,0,6.28,1.24c-.18.37-.36.79-.51,1.14Z"/><path class="cls-10" d="M161.31,222.09a3.69,3.69,0,0,1-3-.08,9.25,9.25,0,0,1-2.65-2.08c-6.12-6.38-10.09-14.45-13.17-22.67q-1.68-4.44-3-8.95l1.59-.48a47.17,47.17,0,0,0,2.13,5.63A111.72,111.72,0,0,0,161.31,222.09Z"/><path class="cls-21" d="M292.41,254.78c.21,2.09.44,4.17.72,6.25a119,119,0,0,1-46.45-16.73c0-1.26.08-2.51.11-3.76a130.38,130.38,0,0,0,35.57-.17q4.44-.63,8.88-1.6C291.57,244.12,291.88,249.46,292.41,254.78Z"/><rect class="cls-10" x="182.21" y="541.9" width="18.68" height="92.67"/><circle cx="298.56" cy="137.89" r="8.38"/><path class="cls-10" d="M161.31,222.09a111.9,111.9,0,0,1-18.15-28.63,50.93,50.93,0,0,1-2.14-5.63c-1.23-4-1.78-8.16-.62-12.13a12.43,12.43,0,0,1,4.47-6.31c2.85-2.13,6.49-3,9.63-1.37,1.4.73,1.8.53,2.66,1.37a113.65,113.65,0,0,0,11.65,23.67q2,3,4.16,5.89a104.78,104.78,0,0,0,20.4,20.17h0c-.22,8.12-8.52,15-16.54,13.79-5.72-.88-10.36-5.07-14.2-9.36C162.18,223.06,161.74,222.58,161.31,222.09Z"/><circle cx="224.43" cy="148.14" r="8.38"/><path class="cls-22" d="M233.25,209.65c.37,5.34-2.33,11-7.17,13.25-4,1.81-8.63,1.13-12.8-.19-5.9-1.85-11.57-5-15.31-9.94s-5.27-11.78-2.89-17.48,9.14-9.56,15-7.72c7.16,2.22,12,4.52,15.93,8.19S232.9,204.31,233.25,209.65Z"/><path class="cls-17" d="M392.69,189c1.86,14.6.21,30.1-7.45,42.66-1.86,3-4.18,6-7.43,7.44a9.08,9.08,0,0,1-5.09.67c-1.54-.24-2.75-1.18-4.34-1.09-3.08.18-5.09,2.86-7.68,4.19a28.76,28.76,0,0,1-9.25,2.91,31.21,31.21,0,0,1-18.63-3.19c-1.92-1-1.92-1.12-3.72,0s-3.3,2.34-5,3.36a61.68,61.68,0,0,1-10.47,5,62.39,62.39,0,0,1-21.2,3.85c-.53-5.32-.8-10.66-1.17-16,16.82-3.65,33-11,44.82-23.36a78.11,78.11,0,0,0,16.67-27.57l.16.06a12,12,0,0,0,9.31,5.57c5.15.34,10.14-2.43,13.46-6.37s5.17-8.92,6.38-13.93a91.3,91.3,0,0,0,2.16-20.71C388.07,166,391.05,176.2,392.69,189Z"/><path class="cls-17" d="M225.65,116.94a2.86,2.86,0,0,1-2.39,3.23,29.52,29.52,0,0,0-13,5.24,2.85,2.85,0,1,1-3.32-4.64,35.23,35.23,0,0,1,15.52-6.25A2.86,2.86,0,0,1,225.65,116.94Z"/><path class="cls-17" d="M307.61,106.08a2.85,2.85,0,0,1-.8,5.57,3,3,0,0,1-.8-.11,29.25,29.25,0,0,0-14-.71,2.86,2.86,0,0,1-1.09-5.57A35.2,35.2,0,0,1,307.61,106.08Z"/><path class="cls-22" d="M338.24,167.79c5.18,3.39,7.75,9.92,7.4,16.09s-3.25,12-7.1,16.83c-2.71,3.41-6.19,6.59-10.49,7.32-5.28.9-10.7-2.31-13.39-6.93s-3-10.36-1.77-15.58,3.9-9.85,8.57-15.69C325.31,165,333.07,164.4,338.24,167.79Z"/><path class="cls-9" d="M307.61,106.08a35.11,35.11,0,0,0-16.73-.85,2.86,2.86,0,0,0,1.09,5.58,29.25,29.25,0,0,1,14,.71,3.42,3.42,0,0,0,.79.11,2.85,2.85,0,0,0,.8-5.58ZM246.79,240.52a117.84,117.84,0,0,1-36.36-10.91,108.87,108.87,0,0,1-12.6-7.3c-1.5-1-3-2.08-4.46-3.19A104.65,104.65,0,0,1,173,199c-1.45-1.91-2.84-3.88-4.16-5.89,8.27-18.46,13.82-44.12,9.95-63.25,9-3.36,18.52-5.77,24.62-13a28.42,28.42,0,0,0,5.79-12.47,56,56,0,0,0,1-7.07c.09-1.21.14-2.39.19-3.61a6.37,6.37,0,0,1,.13-2.13c.34-.91.79-.91,1,0a44.49,44.49,0,0,1,.72,6.31c.48,4.59.73,9.19,1,13.79.1,1.49.37,3.27,1.72,3.89a4.1,4.1,0,0,0,2.68,0L232.85,112c2.48-.59,5.07-1.23,7-2.9,2.83-2.43,3.59-6.44,4.06-10.13A187,187,0,0,0,245.29,80c.07-3.11.07-6.22,0-9.35,0-1.59-.1-3.18-.18-4.78,0-.87-.69-3.29.48-3.68,2.39-.8,5.21,13.43,5.57,15.38A89.72,89.72,0,0,1,253,95.47a88.34,88.34,0,0,1-.49,8.91c3.7,3.88,9.91,3.42,15.21,2.67,4.62-.65,9.46-1.38,13.15-4.22,5.14-3.92,6.83-10.93,7-17.39,0-2.74-.1-5.47-.21-8.19,0-.85-.68-6.8.92-6.12.68.29.26,1.72.3,2.33.09,1.26.28,2.52.42,3.78l.86,7.85q.88,7.86,1.73,15.7a2.06,2.06,0,0,0,1.78,2.31,2.15,2.15,0,0,0,1-.13l24.11-2.27c3.19-.3,6.74-.73,9-3,2-2.06,2.63-5.12,3-8A129.11,129.11,0,0,0,331,66.52a23.11,23.11,0,0,0,1.14,4c.39,1.48.75,3,1.07,4.47.63,2.92,1.12,5.86,1.49,8.83s.59,5.94.7,8.92a11,11,0,0,0,.68,4.78,2.76,2.76,0,0,0,3.32,1.59,66.9,66.9,0,0,0,19.38,35.56h.15a170.17,170.17,0,0,1-.31,27.09,109.35,109.35,0,0,1-5.83,26.13,77.81,77.81,0,0,1-16.66,27.56c-11.85,12.35-28,19.71-44.82,23.36q-4.42,1-8.88,1.6A130.67,130.67,0,0,1,246.79,240.52Zm-24.37-126a35.19,35.19,0,0,0-15.51,6.25,2.85,2.85,0,0,0,3.32,4.64,29.52,29.52,0,0,1,13-5.24,2.85,2.85,0,0,0-.8-5.65Zm123.22,69.36c.35-6.17-2.22-12.7-7.4-16.09s-12.93-2.79-16.78,2c-4.67,5.84-7.39,10.47-8.57,15.69s-.93,11,1.77,15.58,8.11,7.83,13.39,6.93c4.3-.73,7.78-3.91,10.49-7.32C342.38,195.86,345.3,190.06,345.64,183.88Zm-38.7-46a8.38,8.38,0,1,0-8.38,8.38h0a8.39,8.39,0,0,0,8.38-8.37Zm-6.15,45.34c2.15-5.7.68-13-4.49-16.27-4.35-2.74-10-2-15-.63-4.65,1.32-9.3,3.19-14.11,3.67-5,.52-10.16.12-15.13-.09-5.14-.21-10.81.42-14.41,4.09-4.27,4.35-4,11.82-.59,16.86s9.25,8,15.13,9.46a45.09,45.09,0,0,0,12.19,1.37A54.31,54.31,0,0,0,288.24,196c5.4-2.91,10.4-7.1,12.55-12.77ZM226.08,222.9c4.87-2.21,7.57-7.91,7.17-13.25s-3.37-10.23-7.27-13.89-8.76-6-15.93-8.19c-5.9-1.84-12.65,2-15,7.72s-.86,12.56,2.89,17.48,9.41,8.09,15.31,9.94C217.44,224,222.1,224.71,226.08,222.9Zm6.75-74.72a8.38,8.38,0,1,0-8.41,8.35h.07A8.38,8.38,0,0,0,232.83,148.18Z"/><path class="cls-17" d="M246.68,244.28c-.07,2.39-.14,4.71-.22,7.09l-.17,5.66v.37a25.34,25.34,0,0,1-19.12-5.25,27.9,27.9,0,0,1-18.52,10.42,27,27,0,0,1-20.26-6.23c-5.5,10.36-20.63,13.82-31.86,8.89S138,248.94,134.87,237.08s-2.56-24.31-2-36.55c.52-10.55,2.92-22.45,1.69-33.15a150,150,0,0,0,4.82,20.93q1.37,4.51,3,8.95c3.08,8.22,7.05,16.28,13.17,22.67A9,9,0,0,0,158.2,222a3.69,3.69,0,0,0,3,.08l1.3,1.47c3.88,4.28,8.49,8.47,14.21,9.36,8,1.24,16.32-5.67,16.54-13.79h0c1.46,1.11,3,2.17,4.46,3.19a108.87,108.87,0,0,0,12.6,7.3,117.72,117.72,0,0,0,36.39,10.9A36.32,36.32,0,0,1,246.68,244.28Z"/><path class="cls-10" d="M62.65,209.64c-2.53.93-3.54,4.05-3.34,6.73a12.07,12.07,0,0,0,.37,2.23l-.28-.35A28.15,28.15,0,0,0,54.19,213c8.47-9.79,19.35-22.06,26.85-30.27l.38-.12,8.16,8v.13c-6.52,7.08-12.93,14.48-19.35,22l-.66-.66C67.69,210.31,65.07,208.77,62.65,209.64Z"/><rect class="cls-10" x="200.89" y="541.9" width="16.22" height="92.67"/><rect class="cls-19" x="924.93" y="457.9" width="22.35" height="172.67"/><polygon class="cls-10" points="947.27 457.9 924.91 457.9 723.11 457.9 706.88 457.9 706.88 438.73 752.55 438.73 813.96 438.73 965.96 438.73 965.96 457.9 947.27 457.9"/><rect class="cls-19" x="439.57" y="457.9" width="22.35" height="172.67"/><path class="cls-20" d="M614.19,429.05v9.68H569.82a9.77,9.77,0,0,0,2.7-1,4.87,4.87,0,0,0,2.62-4.17c-.1-2.63-2.9-4.24-5.42-5a29,29,0,0,0-14.39-.31c-4.35-.08-8.65-2.09-12.74-6.49a49.14,49.14,0,0,1,32.71-.07,36.3,36.3,0,0,0,7,2.14c2.43.31,5.13-.19,6.82-2a5.38,5.38,0,0,0,1.31-4.17h0a55.35,55.35,0,0,1,23.67,11.22Z"/><path class="cls-10" d="M676.31,438.73h30.58V457.9H439.56V630.57H420.89V445.52l2-.2,39.58-4c11-1.11,22.08-1.87,33.1-3.19,1.65-.2,3.29-.42,4.93-.65,3.19-.45,6.35-.93,9.49-1.42,3.89-.31,7.77-.61,10.86-1,8.07,7.3,20.06,10,28.54,7.09l18.19-3a22.27,22.27,0,0,0,2.25-.43H676.31Z"/><path class="cls-9" d="M70.23,212.7c4.14,4.18,6.74,9.73,10.8,14,1.93,2.05,3,5.87,3.83,8.51A38.9,38.9,0,0,1,86.45,245a39.9,39.9,0,0,1-.84,9.81,14.16,14.16,0,0,0,1.87,10.47c2.15,3.62,4.64,7.08,7,10.58L61.55,301.12q-2.92-5.75-5.87-11.49c-1.75-3.42-3.31-7.54-6.68-9.74-1.09-.7-2.35-1.21-3.46-1.9a37.66,37.66,0,0,1-11.49-11.27,33.86,33.86,0,0,1-2.07-3.6c-.25-.48-1.1-3.27-1.5-3.41-6.8-2.39-13.75-5-20.71-7.6-2.32-.85-4.92-2-5.71-4.36-1-2.95,1.68-6.13,4.71-6.77s6.16.5,9,1.8c2.66,1.23,5.36,2.63,8.27,2.85a34.84,34.84,0,0,0,3.6,4.7c2.76,3.06,6.42,5.9,10.53,5.58a7.91,7.91,0,0,0,7.18-8.54,9.55,9.55,0,0,0-.25-1.4,11.3,11.3,0,0,0,2.95.48,8.39,8.39,0,0,0,6-10.23h0a10,10,0,0,0-.42-1.2,8.53,8.53,0,0,0,6.21.13c1.82-.74,4.06-3,2.88-7.61h0a23.56,23.56,0,0,1-5-8.93,12.07,12.07,0,0,1-.37-2.23c-.21-2.68.8-5.8,3.34-6.73s5,.64,6.91,2.39Z"/><path class="cls-10" d="M374.54,421.5c-.24.24-.47.47-.71.69a41.55,41.55,0,0,1-16.64,9.27q-2.82-17.52-5.41-35C359.23,405.07,366.9,413.49,374.54,421.5Z"/><path class="cls-10" d="M315.55,271.34a238.25,238.25,0,0,1,37.08,4.29c7.26,1.42,14.79,3.35,20.23,8.35,7.72,7.09,10.36,19.51,10.36,29.56l1.54,21.23q-15.39-20-31.45-39.56a132,132,0,0,0-10.56-8.45q-5.49-4-11.29-7.37c-2.86-1.67-5.76-3.25-8.73-4.72q-1.59-.78-3.18-1.53C318.22,272.52,316.89,271.93,315.55,271.34Z"/><path class="cls-9" d="M217.21,271.26c1.23-.54,2.47-1.06,3.72-1.6q7.44-3,15.14-5.47c2.56-.8,5.13-1.59,7.72-2.27,1.11-.3,1.78-.52,2.27-1.65a7.11,7.11,0,0,0,.24-2.9V257l.17-5.67c.08-2.39.15-4.73.22-7.09A119.1,119.1,0,0,0,293.15,261a4.33,4.33,0,0,0,.1.71c.13.89.4,1.94,1.25,2.23,4.2,1.41,8.45,2.6,12.62,4.09,2.85,1,5.67,2.1,8.44,3.29,1.34.58,2.68,1.17,4,1.79,1.07.5,2.14,1,3.18,1.54a92.69,92.69,0,0,1-112.1-.43C212.8,273.19,215,272.21,217.21,271.26Z"/><path class="cls-14" d="M501.32,395.06l-12.56-.55q-2.61,22.44-5.2,44.9,6-.57,12-1.28Q499.21,416.71,501.32,395.06Z"/><path class="cls-14" d="M268.19,303.4a118.2,118.2,0,0,0,66-22.39l-2.69-1.6q-4.29-2.51-8.72-4.71a92.71,92.71,0,0,1-112.11-.43q-4.5,2.14-8.89,4.51l-4.19,3.08A118.13,118.13,0,0,0,268.19,303.4Z"/><path class="cls-14" d="M95.39,277.22c-.3-.44-.61-.88-.9-1.34L61.55,301.12c.18.32.34.64.5,1,1.36,2.66,2.73,5.29,4.09,8q16.73-13.19,34-25.69Z"/><path class="cls-4" d="M296.3,166.93a11.27,11.27,0,0,0-2.39-1.11c-3.92-1.36-8.5-.68-12.6.48-4.64,1.32-9.29,3.19-14.1,3.67-5,.51-10.17.12-15.14-.09-4-.17-8.33.18-11.75,2.09a10.81,10.81,0,0,0-2.65,2c-4.27,4.34-4,11.82-.6,16.86a21.39,21.39,0,0,0,8.32,7,34.44,34.44,0,0,0,6.85,2.5,45.48,45.48,0,0,0,12.19,1.36A54.3,54.3,0,0,0,288.25,196a35.87,35.87,0,0,0,5-3.19,22,22,0,0,0,7.51-9.56C302.94,177.49,301.47,170.17,296.3,166.93Z"/><path class="cls-3" d="M197.56,281.83c-21.3,15.62-42.22,31.39-63.14,47.16l-3.13,2.35L111.2,301.07l-11.15-16.73q-17.23,12.53-34,25.69l8.77,17Q85,346.55,95.29,365.92a40.17,40.17,0,0,0,26.48,27.43A38.21,38.21,0,0,0,134.83,395a41.79,41.79,0,0,0,24.83-9.68q17.85-10.43,34.92-22.18l31.21-66.62A116.83,116.83,0,0,1,197.56,281.83Z"/><path class="cls-3" d="M488.74,394.51c-10.35-.47-56.78-1-59.07-1.35V393a4.28,4.28,0,0,1-3.79-2.06c-2.39-4.21-5.58-8.1-8.42-12s-5.85-8.15-8.81-12.21q-8.88-12.17-18-24.17-2.94-3.87-5.89-7.71-15.39-20-31.45-39.56-5.07-4.5-10.56-8.45c-2.8-2-5.66-3.94-8.61-5.75a117.12,117.12,0,0,1-18.51,11l28.25,38.45,9.32,67.63c7,8.08,14.17,15.93,21.32,23.44q5.58,5.91,11.15,11.48c3.6,3.62,8.53,6.37,13.16,8.38,1.95.84,4,1.15,5.9,2a22.94,22.94,0,0,0,7.73,2.29,45.35,45.35,0,0,0,8.4-.16l2-.2,39.59-4c7-.71,14.05-1.27,21.09-1.94q2.58-22.44,5.2-44.9Z"/><path class="cls-23" d="M194.62,363.14l.19-.13L199,434.25l4,86.32h27.43L202.28,346.83Z"/><path class="cls-4" d="M357.19,431.46q-2.82-17.52-5.41-35l1.44,1.66L343.9,330.5,315.65,292a116.3,116.3,0,0,1-89.82,4.53l-23.57,50.29,28.13,173.74H368.93C364.78,497.57,360.87,454.54,357.19,431.46Z"/><path class="cls-24" d="M865.05,194.27c-1.51-.8-3.47-.45-5.09-.45H667.37c-1.29,0-2.51-.2-3.61.6-1.7,1.21-1.5,3.72-1.82,5.58l-1.13,6.37-2.76,15.76q-1.54,8.76-3.07,17.53l-3.18,18.27q-1.6,9.06-3.19,18.1l-3,17q-1.32,7.43-2.61,14.85l-2,11.73c-.13.8-.26,1.53-.4,2.28H844.3q1.4-7.87,2.76-15.72,2-11.49,4-23,2.25-13,4.54-25.91t4.55-26q2-11.59,4.07-23.2l1.69-9.67C866.2,196.88,866.76,195.18,865.05,194.27Z"/><path class="cls-8" d="M871.33,183.79H663.73a17.83,17.83,0,0,0-4,0,10.83,10.83,0,0,0-6.5,4.62c-1.06,1.65-1.19,3.57-1.51,5.48l-3,16.89q-1.83,10.31-3.62,20.62l-3.94,22.51q-2,11.28-4,22.55l-3.63,20.75-3,17.1-2,11.61c-.23,1.35-.47,2.7-.7,4.05H849.62l25.49-145.06A6.8,6.8,0,0,0,871.33,183.79Zm-5.4,14.63c-.53,3.23-1.09,6.46-1.69,9.67q-2,11.6-4.07,23.2-2.26,13-4.55,26t-4.53,25.9q-2,11.49-4,23l-2.76,15.72H640.6c.13-.75.26-1.51.4-2.27l2.07-11.79q1.29-7.44,2.6-14.85l3-17q1.59-9,3.19-18.1L655,239.65q1.53-8.76,3.07-17.53l2.76-15.76L662,200c.32-1.84.13-4.35,1.82-5.58,1.1-.79,2.32-.6,3.61-.6H860c1.59,0,3.58-.31,5.09.45C866.76,195.18,866.2,196.88,865.93,198.42Z"/><path class="cls-8" d="M877.71,188.34a6.7,6.7,0,0,0-2.57-3.44L849.65,330h4.6a2.5,2.5,0,0,1,.06-.38c.31-1.71.61-3.43.91-5.14q1.44-8.19,2.87-16.41,2-11.15,3.92-22.35l4.47-25.53q2.28-13,4.55-25.91,2.06-11.76,4.12-23.51c.59-3.33,1.16-6.65,1.75-10C877.61,196.68,879.12,192.4,877.71,188.34Z"/><path class="cls-24" d="M655.55,384.42,628.2,407.47h48.17l27.34-23.05S654.73,383.6,655.55,384.42Z"/><polygon class="cls-24" points="811.14 341.13 799.22 341.13 787.29 341.13 775.38 341.13 763.46 341.13 751.53 341.13 739.62 341.13 727.68 341.13 715.76 341.13 703.85 341.13 691.92 341.13 680 341.13 668.09 341.13 656.17 341.13 644.25 341.13 632.33 341.13 623.45 348.62 614.57 356.11 605.68 363.59 596.79 371.09 587.23 379.17 599.14 379.17 611.07 379.17 622.99 379.17 634.91 379.17 646.83 379.17 658.75 379.17 670.66 379.17 682.6 379.17 694.5 379.17 706.42 379.17 718.36 379.17 730.26 379.17 742.2 379.17 754.12 379.17 766.03 379.17 777.96 379.17 787.53 371.09 796.42 363.59 805.3 356.11 814.17 348.62 823.05 341.13 811.14 341.13"/><path class="cls-21" d="M255.55,157.87a1.28,1.28,0,0,1-1.29-1.28,1.32,1.32,0,0,1,.23-.74,12.75,12.75,0,0,1,17.44-2.95,1.28,1.28,0,0,1-1.52,2.07h0a10.18,10.18,0,0,0-13.8,2.34A1.29,1.29,0,0,1,255.55,157.87Z"/><rect class="cls-25" x="613.23" y="428.91" width="1.93" height="10.4"/><rect class="cls-7" x="199.92" y="523.5" width="1.93" height="110.73"/><rect class="cls-10" x="351.21" y="543.9" width="18.68" height="92.67"/><rect class="cls-10" x="369.89" y="543.9" width="16.22" height="92.67"/><rect class="cls-7" x="368.92" y="525.5" width="1.93" height="110.73"/><path class="cls-21" d="M583.86,413.65a1.27,1.27,0,0,1-.58-.14,75.44,75.44,0,0,0-33-8.11,1.29,1.29,0,0,1,0-2.58,78.14,78.14,0,0,1,34.08,8.4,1.29,1.29,0,0,1,.46,1.75,1.27,1.27,0,0,1-1,.64Z"/><rect class="cls-4" x="622.99" y="348.29" width="191.12" height="0.65"/><rect class="cls-4" x="613.96" y="355.79" width="191.3" height="0.65"/><rect class="cls-4" x="604.82" y="363.27" width="191.72" height="0.65"/><rect class="cls-4" x="595.97" y="370.76" width="191.2" height="0.65"/><rect class="cls-4" x="592.21" y="359.84" width="59" height="0.65" transform="translate(-85.69 485.99) rotate(-40.17)"/><rect class="cls-4" x="604.11" y="359.78" width="59" height="0.65" transform="translate(-82.84 493.65) rotate(-40.17)"/><rect class="cls-4" x="616.02" y="359.78" width="59" height="0.65" transform="translate(-80 501.46) rotate(-40.18)"/><rect class="cls-4" x="627.94" y="359.77" width="59" height="0.65" transform="translate(-77.19 509.15) rotate(-40.18)"/><rect class="cls-4" x="639.87" y="359.79" width="59" height="0.65" transform="translate(-74.41 516.72) rotate(-40.17)"/><rect class="cls-4" x="651.81" y="359.85" width="59" height="0.65" transform="translate(-71.63 524.44) rotate(-40.17)"/><rect class="cls-4" x="663.74" y="359.84" width="59" height="0.65" transform="translate(-68.82 532.13) rotate(-40.17)"/><rect class="cls-4" x="675.64" y="359.78" width="59" height="0.65" transform="translate(-65.97 539.79) rotate(-40.17)"/><rect class="cls-4" x="687.55" y="359.76" width="59" height="0.65" transform="translate(-63.12 547.61) rotate(-40.18)"/><rect class="cls-4" x="699.5" y="359.83" width="59" height="0.65" transform="translate(-60.38 555.19) rotate(-40.17)"/><rect class="cls-4" x="711.4" y="359.78" width="59" height="0.65" transform="translate(-57.54 562.86) rotate(-40.17)"/><rect class="cls-4" x="723.33" y="359.83" width="59" height="0.65" transform="translate(-54.76 570.57) rotate(-40.17)"/><rect class="cls-4" x="735.26" y="359.84" width="59" height="0.65" transform="translate(-51.94 578.27) rotate(-40.17)"/><rect class="cls-4" x="747.16" y="359.78" width="59" height="0.65" transform="translate(-49.1 585.93) rotate(-40.17)"/><rect class="cls-4" x="759.08" y="359.78" width="59" height="0.65" transform="translate(-46.29 593.62) rotate(-40.17)"/><rect class="cls-10" x="184.31" y="519" width="197.33" height="25.67"/><polygon class="cls-10" points="381.64 519 420.64 511 421.64 536 381.64 544.67 381.64 519"/></g></g><rect class="cls-26" x="818.76" y="55.18" width="184" height="67" rx="11.84" ry="11.84"/><rect class="cls-27" x="812.09" y="53.18" width="184" height="65" rx="11.67" ry="11.67"/><g class="cls-28"><text class="cls-29" transform="translate(831.86 103.56)">H</text><text class="cls-29" transform="translate(870.76 103.56)">T</text><text class="cls-29" transform="translate(901.47 103.56)">ML</text></g><rect class="cls-30" x="542.09" y="48.51" width="184" height="67" rx="11.84" ry="11.84"/><rect class="cls-31" x="535.42" y="46.51" width="184" height="65" rx="11.67" ry="11.67"/><text class="cls-29" transform="translate(582.52 99.56)">CSS</text><rect class="cls-12" x="450.39" y="171.65" width="118.7" height="71.86" rx="9.85" ry="9.85"/><rect class="cls-32" x="446.09" y="169.51" width="118.7" height="69.71" rx="9.7" ry="9.7"/><text class="cls-29" transform="translate(477.86 226.22)">C#</text></g></g></svg>