<svg xmlns="http://www.w3.org/2000/svg" xmlns:xlink="http://www.w3.org/1999/xlink" viewBox="0 0 452.08 325.94"><defs><style>.cls-1{fill:none;}.cls-2,.cls-3{fill:#b8e5ff;}.cls-2{opacity:0.33;}.cls-10,.cls-16,.cls-17,.cls-18,.cls-19,.cls-2,.cls-20,.cls-22,.cls-24,.cls-26,.cls-27,.cls-28,.cls-32,.cls-35,.cls-36,.cls-37,.cls-38,.cls-6,.cls-9{isolation:isolate;}.cls-36,.cls-4,.cls-6{fill:#94d5ff;}.cls-16,.cls-22,.cls-35,.cls-37,.cls-38,.cls-5,.cls-9{fill:#50bcff;}.cls-6{opacity:0.68;}.cls-10,.cls-7{fill:#fff;}.cls-8{fill:#ffd245;}.cls-9{opacity:0.4;}.cls-10{opacity:0.83;}.cls-11{opacity:0.36;}.cls-12,.cls-19,.cls-20{fill:#004dbe;}.cls-13{fill:#e79f8b;}.cls-14{fill:#c72c19;}.cls-15,.cls-26,.cls-28{fill:#d44459;}.cls-16{opacity:0.38;}.cls-17,.cls-25,.cls-27{fill:#f59711;}.cls-17,.cls-36{opacity:0.51;}.cls-18{fill:#f55e11;opacity:0.5;}.cls-19{opacity:0.54;}.cls-20{opacity:0.45;}.cls-21{clip-path:url(#clip-path);}.cls-22{opacity:0.24;}.cls-23{clip-path:url(#clip-path-2);}.cls-24{fill:#663bff;opacity:0.29;}.cls-26,.cls-32{opacity:0.3;}.cls-27{opacity:0.27;}.cls-28{opacity:0.1;}.cls-29{fill:#ffa18b;}.cls-30{clip-path:url(#clip-path-3);}.cls-31,.cls-32{fill:#ffc9b0;}.cls-33{clip-path:url(#clip-path-4);}.cls-34{opacity:0.21;}.cls-35{opacity:0.8;}.cls-37{opacity:0.35;}.cls-38{opacity:0.46;}.cls-39{fill:#414379;}</style><clipPath id="clip-path"><path class="cls-1" d="M240,266.15s-16.74,3.31-12.81,7.21,26.18,7.62,27.25,6.13S258.85,267,258.85,267l-15.46-7Z"/></clipPath><clipPath id="clip-path-2"><path class="cls-1" d="M262.29,275.84s-14,9.75-8.87,11.75,27.05-3.51,27.43-5.3-1-13.24-1-13.24l-17-.2Z"/></clipPath><clipPath id="clip-path-3"><path class="cls-1" d="M351,168.55c-1.54-22.7-2.58-28.36-5.24-31.67s-12.34-4.74-19.18-5-16.82,1.66-19.66,3.6-4.55,10.23-4.11,20.52c.38,8.92,2.25,18.4,2.18,22.52-.14,7.66-1.64,10.62-2.74,16.32,8.54,5.95,41.63,9.14,48.73,7.71A264.65,264.65,0,0,0,351,168.55Z"/></clipPath><clipPath id="clip-path-4"><path class="cls-1" d="M315.87,125.53l11.64-1.68,1.28,9.6a2.46,2.46,0,0,1-.57,1.93,9.93,9.93,0,0,1-6.59,3.56c-3.56.42-4-1.22-4-2.24a11.86,11.86,0,0,0-.25-2.85Z"/></clipPath></defs><title>Asset 1</title><g id="Layer_2" data-name="Layer 2"><g id="Layer_1-2" data-name="Layer 1"><g id="Layer_2-2" data-name="Layer 2"><g id="OBJECTS"><path class="cls-2" d="M451.81,194.46c-3.82,30.55-25.88,25.47-29.36,61-1.25,12.68,8.16,20.65,12.81,31.62,5.17,12.14,3.34,23-3.65,31.32H48.18a145,145,0,0,1-23.6-12.73c-9.69-6.7-17.36-15-21.28-26.28-3.56-10.24-6.25-20.11,3-27.87,5-4.22,10.27-7.48,14.84-11.39a35.84,35.84,0,0,0,8.74-10.62c16.71-32.07-4.73-60.32-12.61-92.41q-1.12-4.68-2-9.42A86.15,86.15,0,0,1,14,103.45a52.49,52.49,0,0,1,6.73-21.11C26.6,72.28,41.76,57.42,58,60.27,70.26,62.41,78,74.14,89,78.37c13.92,5.35,29.36,1.08,39.78-6.78,20.27-15.28,33.27-44.32,67.93-41.66,11.75.9,19.68,10.18,30,14.43,14.17,5.85,28.14,5.81,41.67.12,15.57-6.56,26.25-18.73,41.54-25.7A104.77,104.77,0,0,1,326,13c12.3-3.33,25.75-4.5,38.44-1.93A75.1,75.1,0,0,1,372.12,13c42.4,13.06,44.39,55.81,42.4,87-.92,14.33-12.37,39-3.91,53.76S455.54,164.93,451.81,194.46Z"/><polygon class="cls-3" points="75.16 318.4 71.59 318.4 71.13 302.65 80.16 302.65 75.16 318.4"/><polygon class="cls-3" points="141.84 318.4 145.42 318.4 145.87 302.65 136.83 302.65 141.84 318.4"/><rect class="cls-4" x="66.43" y="149.77" width="84.13" height="154.69"/><rect class="cls-3" x="73.56" y="161.45" width="69.89" height="30.4"/><circle class="cls-4" cx="108.5" cy="176.65" r="4.65"/><rect class="cls-3" x="73.56" y="195.1" width="69.89" height="30.4"/><circle class="cls-4" cx="108.5" cy="210.3" r="4.65"/><rect class="cls-3" x="73.56" y="228.74" width="69.89" height="30.4"/><circle class="cls-4" cx="108.5" cy="243.94" r="4.65"/><rect class="cls-3" x="73.56" y="262.38" width="69.89" height="30.4"/><circle class="cls-4" cx="108.5" cy="277.58" r="4.65"/><rect class="cls-3" x="63.95" y="147.22" width="89.1" height="5.84"/><path class="cls-4" d="M97.14,44.48c-1-2.79,1.1-6.4,3.85-8.19,1.84-1.21,4-2,5.1-3.56a10.82,10.82,0,0,1-2,5.93A17.53,17.53,0,0,1,97.14,44.48Z"/><path class="cls-3" d="M97.14,45.45c.39-1.54-1.23-3-2.26-3.83a33.83,33.83,0,0,1-3.12-2.47,6.1,6.1,0,0,1,.18-8.21c-.63.55.36,2.38.66,2.85a20.66,20.66,0,0,0,2.77,2.84C97.57,38.91,98,42.23,97.14,45.45Z"/><path class="cls-3" d="M97.71,42.51c-.51-1.42,1-3.11,1.88-4.1a40,40,0,0,0,2.85-3c1.75-2.32,1.5-6.16-.85-7.83.65.42-.15,2.35-.41,2.85a23,23,0,0,1-2.45,3.26A9,9,0,0,0,97.71,42.51Z"/><path class="cls-4" d="M96.88,42.14c-.5-.12-1-.79-1.24-1.14a5.68,5.68,0,0,1-.86-2.24c-.33-2,.27-3.94.37-5.86a11.08,11.08,0,0,0-.55-4.35,10,10,0,0,0-1.06-1.86c0-.06.62.15.67.16,4,1.81,4.81,5.5,4.05,9.26a31.37,31.37,0,0,1-.77,3.56C97.26,40.4,96.69,41.4,96.88,42.14Z"/><polygon class="cls-3" points="102.41 52.16 94.21 52.16 91.52 43.57 105.1 43.57 102.41 52.16"/><polygon class="cls-4" points="102.8 52.8 93.77 52.8 93.72 51.45 102.85 51.45 102.8 52.8"/><polygon class="cls-4" points="105.34 44.59 91.23 44.59 90.96 41.88 105.6 41.88 105.34 44.59"/><path class="cls-4" d="M153.46,36.36l1,2a2.54,2.54,0,0,0,1.9,1.38l2.19.32A2.5,2.5,0,0,1,160,44.31l-1.58,1.54a2.55,2.55,0,0,0-.71,2.23l.38,2.18a2.51,2.51,0,0,1-3.65,2.64l-1.95-1a2.56,2.56,0,0,0-2.35,0l-2.05,1a2.52,2.52,0,0,1-3.65-2.65l.38-2.17a2.52,2.52,0,0,0-.71-2.23l-1.59-1.55a2.51,2.51,0,0,1,0-3.55,2.54,2.54,0,0,1,1.44-.72l2.19-.32A2.5,2.5,0,0,0,148,38.35l1-2a2.51,2.51,0,0,1,4.48,0Z"/><rect class="cls-4" x="121.03" y="19.84" width="9" height="33.16"/><rect class="cls-5" x="129.79" y="24.17" width="5.13" height="28.83"/><rect class="cls-3" x="113.65" y="31.48" width="7.56" height="21.52"/><rect class="cls-6" x="113.65" y="34.77" width="7.56" height="2.5"/><rect class="cls-6" x="113.65" y="47.91" width="7.56" height="2.5"/><rect class="cls-4" x="134.48" y="22.28" width="6.34" height="30.72"/><rect class="cls-3" x="136.15" y="31.59" width="3" height="13.77"/><rect class="cls-4" x="147.46" y="60.21" width="5.31" height="12.89"/><rect class="cls-4" x="144.01" y="59.03" width="12.21" height="3.71"/><rect class="cls-4" x="94.54" y="60.21" width="5.31" height="12.89"/><rect class="cls-4" x="91.1" y="59.03" width="12.21" height="3.71"/><rect class="cls-3" x="81.99" y="52.68" width="83.35" height="6.97"/><path class="cls-4" d="M58.38,93.08H53a.43.43,0,0,0-.42.31l-9.68,16.33a.55.55,0,0,0,.37.69.53.53,0,0,0,.12,0h9.43a.45.45,0,0,0,.42-.31l5.7-16.33a.57.57,0,0,0-.39-.7Z"/><polygon class="cls-5" points="47.82 86.54 76.31 86.54 80.16 110.5 51.66 110.5 47.82 86.54"/><polygon class="cls-4" points="48.82 86.54 77.31 86.54 81.15 110.5 52.66 110.5 48.82 86.54"/><polygon class="cls-7" points="51.42 88.75 75.42 88.75 78.55 108.29 54.55 108.29 51.42 88.75"/><polygon class="cls-4" points="55.44 92.5 72.6 92.5 74.53 104.53 57.37 104.53 55.44 92.5"/><path class="cls-4" d="M101.69,102.24a8,8,0,0,1-4.27,7.06.37.37,0,0,1-.15.08,7.77,7.77,0,0,1-3.56.84,8,8,0,0,1-6.15-2.9c-.12-.14-.23-.28-.34-.43a7.91,7.91,0,0,1-1.5-4.65,8,8,0,0,1,6.69-7.88l.38-.06c.3,0,.6,0,.92,0a8,8,0,0,1,7.9,6.85,3.7,3.7,0,0,0,.06.48C101.68,101.74,101.69,102,101.69,102.24Z"/><path class="cls-3" d="M92.28,102.76a15,15,0,0,1-2.85,3.35,6.58,6.58,0,0,1-1.91,1.21,4.46,4.46,0,0,1-.33-.43,8.52,8.52,0,0,0,2.6-1.89,13.7,13.7,0,0,0,2.65-3.67,8.11,8.11,0,0,0,.76-4.65,6.48,6.48,0,0,0-.66-2,1.35,1.35,0,0,0-.15-.26l.38-.06c.09.15.17.3.24.44A8.35,8.35,0,0,1,92.28,102.76Z"/><path class="cls-3" d="M101.66,101.58a7.81,7.81,0,0,0-1,.83,11,11,0,0,0-3.27,6.89.37.37,0,0,1-.15.08,10.8,10.8,0,0,1,3.15-7.25,10.59,10.59,0,0,1,1.19-1C101.63,101.26,101.64,101.43,101.66,101.58Z"/><rect class="cls-4" x="97.08" y="117.38" width="5.31" height="12.89"/><rect class="cls-4" x="93.63" y="116.19" width="12.21" height="3.71"/><rect class="cls-4" x="44.16" y="117.38" width="5.31" height="12.89"/><rect class="cls-4" x="40.71" y="116.19" width="12.21" height="3.71"/><rect class="cls-3" x="31.6" y="109.84" width="83.35" height="6.97"/><ellipse class="cls-4" cx="390.97" cy="262.67" rx="19.85" ry="18.85"/><polygon class="cls-3" points="410.25 265.16 371.97 265.16 373.87 318.4 408.35 318.4 410.25 265.16"/><rect class="cls-4" x="369.83" y="261.88" width="43.41" height="6.83"/><path class="cls-3" d="M385.33,247.88a41,41,0,0,0-2.46,7.64,45.86,45.86,0,0,0-.82,6.41h28.74a18.83,18.83,0,0,0-11-16.13c-2.38.53-4.79,1-7.19,1.35A55.15,55.15,0,0,1,385.33,247.88Z"/><rect class="cls-8" x="187.88" width="129.25" height="85.51"/><path class="cls-8" d="M212.28,84.23c-.06.32.31,20.85.31,20.85l11.06-20.74Z"/><rect class="cls-7" x="191.18" y="3.74" width="122.68" height="78.03"/><path class="cls-9" d="M207.49,3.74H313.85V67.66H210a2.51,2.51,0,0,1-2.51-2.51V3.74Z"/><path class="cls-10" d="M214.54,3.74h99.31v58.8H216a1.43,1.43,0,0,1-1.42-1.42V3.74Z"/><g class="cls-11"><path class="cls-12" d="M306.35,20c-1.2-1.06-3.56-.71-5.17-.77-4.76-.1-9.53-.16-14.29-.13a.45.45,0,0,0-.5.4c-.05,3.4.07,6.8.35,10.18a46.5,46.5,0,0,0-6.59-6.79c-.14-.11-.42,0-.29.17,2.39,2.67,4.88,5.26,7,8.08.21.29.85.22.82-.16-.26-3.69-.38-7.38-.31-11.06,3.77,0,7.55.06,11.33.13,1.86,0,3.76,0,5.62.13,2.09.14,1.64,1.79,2.14,3a.34.34,0,0,0,.46.12.37.37,0,0,0,.13-.12A2.86,2.86,0,0,0,306.35,20Z"/><path class="cls-12" d="M305.6,27c-.58.55-1.31,1.8-2.43,1.52-.64-.16-.81-.92-1-1.36s-.46-1-.71-1.51a.45.45,0,0,0-.62-.16.31.31,0,0,0-.09.07A10.63,10.63,0,0,1,299.65,27c-.29.31-1,1.23-1.61,1s-.66-.92-.71-1.36a3.19,3.19,0,0,0,.36-2c0-.28-.62-.36-.76-.09a3.43,3.43,0,0,0-.45,2,4.13,4.13,0,0,1-.41.59,5,5,0,0,1-2.13,1.7,1.74,1.74,0,0,1-2.14-1.37c-.15-.44-.52-2.06.26-2.14.24,0,.17-.32-.05-.33h-.42a.22.22,0,0,0-.21.09,3.18,3.18,0,0,0-.14,3,2.51,2.51,0,0,0,2.51,1.51,4.84,4.84,0,0,0,2.85-1.84,1.33,1.33,0,0,0,.14-.19,1.91,1.91,0,0,0,.79,1c1.32.66,2.68-.94,3.44-2,.24.55.48,1.09.75,1.62a1.7,1.7,0,0,0,1.39,1A2.56,2.56,0,0,0,306,27.13a.21.21,0,0,0-.19-.22A.23.23,0,0,0,305.6,27Z"/><path class="cls-12" d="M312.47,17.79a1.11,1.11,0,0,0-.71-.2,2.83,2.83,0,0,1-.76-.14c-.34-.11-.71-.37-.71-.71s-.62-.33-.61,0v.07h0a2.76,2.76,0,0,1-.05,1.28,1.8,1.8,0,0,1-.33.59c-.12.15-.39.42-.62.42s-.27-.29-.29-.42a7.19,7.19,0,0,1-.1-.92,8.54,8.54,0,0,1,.13-1.82c0-.11-.22-.15-.25,0a8.26,8.26,0,0,0-.22,1.71v.86a1.69,1.69,0,0,0,.13.63.63.63,0,0,0,.45.34,1,1,0,0,0,.76-.23,2.13,2.13,0,0,0,.77-1,3.39,3.39,0,0,0,.13-.55,1.86,1.86,0,0,0,.35.22,3.58,3.58,0,0,0,1,.25,1.34,1.34,0,0,0,1-.12.15.15,0,0,0,.07-.19A.34.34,0,0,0,312.47,17.79Z"/><path class="cls-12" d="M278.49,45a1.11,1.11,0,0,1-1.22.12,2.08,2.08,0,0,1-.83-1.14.45.45,0,0,0-.61-.19.32.32,0,0,0-.13.1l-1.14,1.36c-.17.21-1,1.36-1.13.65a8.53,8.53,0,0,1,.33-3.33c.11-.39-.63-.57-.71-.18a6.31,6.31,0,0,1-1.42,2.63c-.53.6-1.73,1.83-2.78,1.62-.62-.13-.71-.77-.81-1.21a5.87,5.87,0,0,1-.11-1.62A6.63,6.63,0,0,1,269,40.72c.16-.26-.31-.5-.48-.24a7.21,7.21,0,0,0-1.23,3.65c0,.92-.07,2.63,1.2,3s2.61-.66,3.35-1.37a6.29,6.29,0,0,0,.79-.92h0c0,.53-.22,1.42.4,1.83a1.37,1.37,0,0,0,1.63-.37c.47-.49.88-1,1.3-1.54a2.09,2.09,0,0,0,1.27,1.06A1.37,1.37,0,0,0,279,45.2C279.06,45,278.66,44.84,278.49,45Z"/><path class="cls-12" d="M286,46.17a2.63,2.63,0,0,0-.56-.49l-.63-.52-.24-.19c.05-.14.13-.29.18-.43a7.36,7.36,0,0,0,.56-2.57c0-.22-.39-.23-.41,0a6.75,6.75,0,0,1-.82,2.46l-.05.1-.47-.37-2.55-2c-.24-.2-.61.09-.38.3l2.39,2.14c.2.19.42.37.64.55l-.21.37a10.19,10.19,0,0,0-.66,1.27c-.14.36.52.62.71.28a10.32,10.32,0,0,0,.66-1.28l.05-.13.56.48a1.91,1.91,0,0,0,.72.5C285.91,46.78,286.19,46.43,286,46.17Z"/><path class="cls-12" d="M307.7,42.5a.22.22,0,0,0-.3,0,.2.2,0,0,0-.08.12,2,2,0,0,1-1.49,1.7,1.58,1.58,0,0,1-1.89-1.16,2.51,2.51,0,0,1,0-.27c0-.44-.84-.57-1-.12-.22.75-.56,2-1.71,2.05-1.64.1-1.89-1.63-1.77-2.59,0-.4-.71-.5-.83-.11a3.85,3.85,0,0,1-2.42,2.65c-1.94.61-2.18-1.43-2.1-2.49,0-.37-.71-.47-.78-.1v.08h0a4.25,4.25,0,0,0-.06.71,2.08,2.08,0,0,1-.86,1.43c-.2.11-.56.22-.71.11s-.09-.49-.08-.66a2.66,2.66,0,0,1,.51-1.35c.12-.15-.17-.3-.3-.15-.46.54-1.55,2.77,0,2.89.67,0,1.26-.58,1.59-1a.58.58,0,0,1,.07-.11,2.08,2.08,0,0,0,2.2,1.44,4,4,0,0,0,3-1.79,2.43,2.43,0,0,0,2.25,1.79,2.48,2.48,0,0,0,2.46-1.42,2.74,2.74,0,0,0,2.52,1C307.33,45,308.5,43.61,307.7,42.5Z"/><path class="cls-12" d="M262.21,7.43a.38.38,0,0,0-.51-.18h0c-6.18,3-12.4,6-18.44,9.26a4.05,4.05,0,0,0-.71-.45.24.24,0,0,0-.29.06.36.36,0,0,0,0,.44c.07.09.22,0,.2-.06h0l.31.27-1.69.89c-.15.08,0,.28.14.21L243,17a7,7,0,0,1,.66.67,5.79,5.79,0,0,1,.94,1.56,5.26,5.26,0,0,1,.35,1.15c-2.55-.16-5.09-.4-7.65-.66a.27.27,0,0,0-.32.22.28.28,0,0,0,.22.31c2.56.39,5.16.64,7.78.8a1.48,1.48,0,0,1-.58,1.07.11.11,0,0,0,0,.16.1.1,0,0,0,.09,0c.71.14,1-.49,1.12-1v-.27a111.44,111.44,0,0,0,18.08-.61.35.35,0,0,0,.29-.3A53.24,53.24,0,0,0,262.21,7.43Zm-11.93,13.1c-1.56,0-3.11-.08-4.66-.17a5.68,5.68,0,0,0-.27-1,6.14,6.14,0,0,0-1.06-1.86,8.07,8.07,0,0,0-.75-.8c6-2.91,12-5.9,18.06-8.74a60.36,60.36,0,0,1,1.64,11.88A107.89,107.89,0,0,1,250.28,20.53Z"/><path class="cls-12" d="M271.24,11.39a4.86,4.86,0,0,0-1.17.33l-1.14.44a19.9,19.9,0,0,0-2.31.93.1.1,0,0,0-.05.13.1.1,0,0,0,.14,0,19.65,19.65,0,0,0,2.35-.79l1.14-.42a3.91,3.91,0,0,0,1.12-.51.09.09,0,0,0,0-.13A.09.09,0,0,0,271.24,11.39Z"/><path class="cls-12" d="M274.24,10.09a1.49,1.49,0,0,0-.91-.05l-1.16.12-1.16.12-.57.07a2,2,0,0,0-.6.14c-.13.07-.12.21,0,.26a1.19,1.19,0,0,0,.46,0h.5l1-.07,1-.07a7.3,7.3,0,0,1,.93-.08h0a1.4,1.4,0,0,1-.15.3c-.12.21-.26.42-.4.62a6.19,6.19,0,0,1-.47.55,3.32,3.32,0,0,0-.26.28,1.15,1.15,0,0,0-.21.33c-.09.17.18.29.35.22a2.12,2.12,0,0,0,.76-.57q.3-.35.57-.72a7,7,0,0,0,.44-.75.5.5,0,0,0-.11-.69Z"/><path class="cls-12" d="M291.22,8.85c-.29,0-.6-.07-.89-.13s-.58-.21-.89-.29a1.25,1.25,0,0,0-1,.12,5.74,5.74,0,0,0-.79.77c-.66.62-1.28-.09-1.59-.62a.37.37,0,0,0-.52-.06.41.41,0,0,0-.13.19c0,.47-.71.62-1.13.42a1,1,0,0,1-.59-.92c0-.27-.43-.39-.61-.15a7.48,7.48,0,0,1-1.5,1.42.71.71,0,0,1-1-.12.53.53,0,0,1-.11-.21,1.23,1.23,0,0,1,0-1.06c.11-.33-.47-.46-.62-.15a2.87,2.87,0,0,1-1.11,1.48c-.41.28-1.17.47-1.49,0A2.05,2.05,0,0,1,277,8.3s-.07-.05-.08,0c-.21.5-.5.93-.2,1.47a1.32,1.32,0,0,0,1.21.59,2.78,2.78,0,0,0,1.78-1,1.34,1.34,0,0,0,1.12,1c.91.16,1.76-.71,2.33-1.42a1.53,1.53,0,0,0,1.24.92,1.56,1.56,0,0,0,1.35-.48,1.53,1.53,0,0,0,2.22.41c.43-.35.65-1,1.34-.81a2.21,2.21,0,0,0,1.88.09.15.15,0,0,0,0-.21S291.24,8.86,291.22,8.85Z"/><path class="cls-12" d="M292.43,12.4c-.55-.13-1.15,0-1.72-.14a15.28,15.28,0,0,0-1.77-.32,3.11,3.11,0,0,0-1.62.27c-.31.15-1.52.94-1.69.27-.06-.22-.41-.28-.61-.14a3.13,3.13,0,0,1-2,.81c-.71-.05-1.35-.72-.64-1.2.27-.17-.09-.56-.37-.4a1.07,1.07,0,0,0,.19,1.95,3.09,3.09,0,0,0,3-.48,1.5,1.5,0,0,0,1.08.31c.82-.05,1.35-.71,2.14-.76a9.42,9.42,0,0,1,2.3.35c.61.11,1.42.22,1.84-.26C292.64,12.57,292.54,12.43,292.43,12.4Z"/></g><path class="cls-12" d="M274.35,81.77H214.88c.86-4.47,4.05-19.1,8.88-22.38a35,35,0,0,1,15.4-5.94c.44-.07.88-.11,1.33-.15s1.2-.12,1.85-.15h0a48.56,48.56,0,0,1,5.91.05h.08a10.7,10.7,0,0,1,1.27.12c.43.06.79.08,1.19.14,10.56,1.47,19.69,7.75,21.46,16.55.27,1.35.51,2.57.71,3.66h0C273.8,78,274.17,80.53,274.35,81.77Z"/><path class="cls-5" d="M254.61,81.77h-15c-.39-4-1.42-16.65-1.54-18.87-.26-4.64-.07-7.11.91-8.33a2.78,2.78,0,0,1,1.47-1,8.7,8.7,0,0,1,2.44-.2c.78,0,1.67.08,2.68.15.52,0,1,.08,1.42.14a15.85,15.85,0,0,1,2.57.43,5.68,5.68,0,0,1,1.8.79c1.2.85,1.48,2.2,1.81,4.32C253.75,62.74,254.56,77.58,254.61,81.77Z"/><rect class="cls-13" x="239.6" y="45.06" width="10.77" height="9.61"/><path class="cls-13" d="M275.54,46.76a18.28,18.28,0,0,1,2.1-10.18c.4-.71,1.31-1.42,1.89-.86a1.4,1.4,0,0,1,.29,1,33,33,0,0,1-.76,8,2.15,2.15,0,0,1,2.52-1.06A2.31,2.31,0,0,1,283.11,46c.25-1,1.8-1.13,2.54-.4a4,4,0,0,1,.87,2.9,1.09,1.09,0,0,1,1.55,0l.1.11a2.77,2.77,0,0,1,.44,1.81A10.57,10.57,0,0,1,287.19,56a6.53,6.53,0,0,1-4.68,3.11C276.39,59.79,275.78,50.93,275.54,46.76Z"/><path class="cls-13" d="M278.12,57.06S273,54.21,274.79,51s7-1.55,5.87.33-3.56,1.55-3.56,1.55Z"/><path class="cls-7" d="M239.25,52c.57-.06,3.36,2.07,6.35,1.92a7.18,7.18,0,0,0,5-2c.44-.46,2.9,4.44,2.53,5s-1.47,2.63-2.57,2.25-4.17-4.08-4.17-4.08-2.8,4.46-3.85,4.46-4.42-1.56-4.6-4S238.52,52.11,239.25,52Z"/><polygon class="cls-12" points="287.96 57.07 287.74 81.77 271.51 81.77 272.96 73.68 272.96 73.67 276 56.73 277.63 56.77 277.65 56.77 277.8 56.78 278.05 56.78 286.4 57.03 287.96 57.07"/><path class="cls-12" d="M257.31,19.3a.77.77,0,0,0-1,.17,3.44,3.44,0,0,0-.74,1.28,10,10,0,0,0,0,4.42,11.8,11.8,0,0,0,1.18,3.63l.07.15a6.64,6.64,0,0,0,1,1.39.74.74,0,0,0,.25.05,1.26,1.26,0,0,0,.77-.4c1.45-1.42,1.13-3.61.85-5.21a13.3,13.3,0,0,0-2.05-5.19A1.15,1.15,0,0,0,257.31,19.3Z"/><path class="cls-13" d="M259.23,31.76c0,9.25-1.46,17.14-11.13,17.75-12.47.8-17.55-8.54-17.55-17.75s6.41-16.7,14.34-16.7S259.23,22.54,259.23,31.76Z"/><path class="cls-7" d="M244,40.14c.36-.62,2.31-.47,4.58-.72,2.57-.28,4.36-.77,4.81-.52.85.47-.9,4.22-4.22,4.53C246.78,43.64,243.33,41.28,244,40.14Z"/><path class="cls-12" d="M241.58,19.93a60,60,0,0,0,8.11,4.4c3.24,1.32,6.78,1.76,9.81-.39.71-.49,1.56-1.54.5-2.1a6.67,6.67,0,0,0-2.38-.34,3.42,3.42,0,0,0,2.45-.65,2.21,2.21,0,0,0,.83-2.26,2.93,2.93,0,0,0-1.1-1.51A12.73,12.73,0,0,0,254.5,15c-.33-.07-.66-.12-1-.17a1.67,1.67,0,0,0,.43-1.21,1.7,1.7,0,0,0-.91-1c-3.22-2-7.28-2.09-11.13-2.09-2.72,0-5.54,0-8,1.25-1.13.56-2.29,1.5-2.41,2.71A7,7,0,0,0,225.76,19a10.49,10.49,0,0,0,.31,7.4c.91,2.37,2,5,2.85,5.54s.91-.08,2,.41,1.12,2,1.91,2,.77-2.07,1-3.06c.43-2,.41-4.05.92-6a12.78,12.78,0,0,1,3.4-5.79,3.25,3.25,0,0,1,.9-.71,6.89,6.89,0,0,1,1.1.21,6.19,6.19,0,0,1,1.43.72Z"/><path class="cls-13" d="M230.66,32.34c-1-1.89-2.59-3.16-4.1-1.86a2.82,2.82,0,0,0-.77,2,6.85,6.85,0,0,0,.43,2.37,7.36,7.36,0,0,0,3.3,4.27,1.41,1.41,0,0,0,1.66-.06,3.82,3.82,0,0,0,.71-2.78A9.79,9.79,0,0,0,230.66,32.34Z"/><path class="cls-14" d="M226.92,32.46a.73.73,0,0,1,.5-.37,1.37,1.37,0,0,1,1.27.61,8.14,8.14,0,0,1,.93,1.52,6.66,6.66,0,0,1,.62,1.84c0,.13-.14.18-.17,0a8,8,0,0,0-1.36-2.84,2.37,2.37,0,0,0-.29-.34,4,4,0,0,0,0,1.61A6.09,6.09,0,0,0,229,36.3c0,.06,0,.13-.05.08a4,4,0,0,1-.71-3.63,1.12,1.12,0,0,0-.57-.27.81.81,0,0,0-.79.67c0,.08-.13.05-.13,0A1.3,1.3,0,0,1,226.92,32.46Z"/><path d="M260.7,27.83a1.91,1.91,0,0,0-1.81-1.15c-.81,0-1.62.07-2.44.11-1.42.06-2.85.07-4.31.21-1,.11-1.88.59-1.94,1.78v0h0a1.9,1.9,0,0,0-1.42-.15,3,3,0,0,0-1.26.72h0a6.1,6.1,0,0,0-.08-.72c-.18-1.2-1.1-1.64-2.21-1.69-1.6-.07-3.23,0-4.87,0h-3a2.39,2.39,0,0,0-2.19,1.42A3.49,3.49,0,0,0,235,30H235l-.78.11-1.42.2c-.46.07-.93.16-1.38.24a2.94,2.94,0,0,0-.71.17c-.15.06-.32.25-.21.42.22.34.87.19,1.22.16s.89-.07,1.34-.13l1.35-.17.71-.09h.06a27.43,27.43,0,0,0,1.11,4.74,2.2,2.2,0,0,0,1.17,1.47,5.24,5.24,0,0,0,2,.15c.83,0,1.66-.06,2.48-.14a22,22,0,0,0,4.41-.75c1.33-.41,1.48-1.6,1.43-2.84,0-1.08,0-2.17-.12-3.26a4.33,4.33,0,0,1,1.25-.72,1.59,1.59,0,0,1,.48-.07h.32a.94.94,0,0,1,.18.12h0a.76.76,0,0,1,.09.09s.06.08,0,0,0,.07,0,.07,0,.07,0,0a1.39,1.39,0,0,0,.11.21s0,0,.06.06c0,1.11.12,2.23.2,3.32s.33,2.36,1.63,2.56a18.54,18.54,0,0,0,4,.1c.71,0,1.42-.11,2.08-.2a4.27,4.27,0,0,0,1.57-.39,2.13,2.13,0,0,0,.79-1.43,28.88,28.88,0,0,0,.5-4.63A3.94,3.94,0,0,0,260.7,27.83Z"/><path class="cls-7" d="M246.78,34.48a1.1,1.1,0,0,1-1,1.11,27.15,27.15,0,0,1-7.35.71c-.85,0-1.06-.43-1.34-1.17a14.59,14.59,0,0,1-.59-2,12.49,12.49,0,0,1-.53-3.27c.07-1.47.71-1.7,2.1-1.71h5.84a13.71,13.71,0,0,1,1.57,0c.6.07.85.28.93.9.16,1.24.23,2.51.28,3.76A10.13,10.13,0,0,1,246.78,34.48Z"/><path class="cls-7" d="M260,32a13.54,13.54,0,0,1-.31,1.8c-.15.71-.29,1.05-1,1.2a21.47,21.47,0,0,1-6.4.24,1,1,0,0,1-1-.91,10,10,0,0,1-.13-1.65c-.06-1.22-.11-2.46-.07-3.68,0-.61.23-.83.79-.93a9.82,9.82,0,0,1,1.43-.1c1.13-.05,2.25-.13,3.35-.19l1.64-.09c1.1-.07,1.62.1,1.79,1.42A12.73,12.73,0,0,1,260,32Z"/><path class="cls-15" d="M203.77,74.8A3.82,3.82,0,1,1,200,71h0A3.81,3.81,0,0,1,203.77,74.8Z"/><path class="cls-12" d="M163.77,245.06a2.39,2.39,0,0,1,2.36,1.1,4.4,4.4,0,0,1,.58,1.87c0,.54-.13,1.28.33,1.6a4.53,4.53,0,0,0,2.85.41c1.42-.2,2.13-.93,1.58-2.33a5.91,5.91,0,0,0-2.89-3,8.36,8.36,0,0,0-3.17-.93,1.69,1.69,0,0,0-1.23.44C164,244.35,163.48,244.84,163.77,245.06Z"/><path class="cls-12" d="M150.9,260.79c-2.32-.76-6.4,7.78-7.41,9.2a60.47,60.47,0,0,0-8.42,18.18c-2.51,8.7-5.11,17.46-4.09,26.62.65,5.92,4.39,10.24,10.78,9.56,3-.32,8.9-.8,11.39-2.54,1.14-.79,1.21-1.83.22-3.24s-1.73-1.13-3.45-.79c-3.26.65-6.07,1.52-8.88-1s-3-6.84-2.9-10.34a68.73,68.73,0,0,1,2.57-15.13c1.71-6.29,4.27-12,6.63-18,1-2.68,2.55-5.49,3.14-8.29.36-1.68,0-3,.57-4.57C150.78,260.41,150.43,260.37,150.9,260.79Z"/><path class="cls-16" d="M139,322.43a12.18,12.18,0,0,1-3.11-4.49c-1.6-3.81-1.83-8.12-1.7-12.2a102.31,102.31,0,0,1,1.55-13.52c.63-3.74,1.37-7.46,2.35-11.13.37-1.38.77-2.74,1.23-4.08a65.71,65.71,0,0,0-4.27,11.18c-2.51,8.7-5.1,17.47-4.09,26.62.65,5.92,4.4,10.24,10.78,9.57l.6-.07A10.11,10.11,0,0,1,139,322.43Z"/><path class="cls-8" d="M194.93,321.71c-1.56,1.51-13.23,3.36-24.05,3.9-2.26.11-4.46.17-6.54.16-5.13,0-11.51.16-13.29-1.28-4.27-3.43-14.65-62.07,3.32-72.37,4.11-2.36,13.88-3.72,17.66-3.56a9.67,9.67,0,0,1,1.33.11c11.88,1.42,18.56,14.72,21.45,34.2C198.71,309,197.62,319.09,194.93,321.71Z"/><path class="cls-17" d="M170.88,325.59c-2.25.1-4.46.16-6.54.15-5.12,0-11.51.17-13.29-1.28-4.27-3.44-14.65-62.06,3.32-72.37a28.9,28.9,0,0,1,7.78-2.51c1.49-.29,3-.54,4.44-.71a35.32,35.32,0,0,1,5.44-.33,11.55,11.55,0,0,1,1.33.1c-4.6.45-8.3,3.71-10,9.3C158.12,274.55,163.37,305.27,170.88,325.59Z"/><path class="cls-18" d="M166.56,248.87a17.76,17.76,0,0,0-4.57,3.56,31.43,31.43,0,0,0-6.17,11.39,52,52,0,0,0-2.27,12.68,104.73,104.73,0,0,0,.46,13.6c.32,5.11,1.23,10.06,1.74,15.14,0,.37-1.09.68-1.42.49-.39.09-.79.09-.84-.11a70.49,70.49,0,0,1-1.32-8.9c-.35-2.91-.62-5.83-.78-8.74-.49-9-.17-18.22,3.07-26.7,1.56-4.08,3.8-8.32,7.12-11.23l.56-.47C163.64,249.29,165.18,249,166.56,248.87Z"/><path class="cls-12" d="M187.68,270.11a3.08,3.08,0,0,0-.9-1.93,3.8,3.8,0,0,0-2.36-.47c-2.38,0-4.85.14-7.44.39a22.35,22.35,0,0,0-3.56.44c-.27.07-1.58,0-2,.79a10.65,10.65,0,0,0,0,3.17c.09,1.42.19,2.71.86,2.95.29,0,.55.11.82.13a5.52,5.52,0,0,0,1-.09l2-.2,3.74-.4q3.49-.4,6.72-.84a1.35,1.35,0,0,0,1.23-.79,2.79,2.79,0,0,0,.11-1.11A17.19,17.19,0,0,0,187.68,270.11Z"/><path class="cls-5" d="M158.73,251.25c-.86.05-.14-5,.62-6,1.23-1.66,3.42-2.13,5.38-2.37,2.25-.23,6.83,2.14,6.77,5-1.34-2.4-5.56-5-7.83-2.17-1,1.23,0,3.14-.64,4.15C162.15,251.19,159.61,251.19,158.73,251.25Z"/><path class="cls-5" d="M200.73,322.77c-1.37,1-13.26,3-21.12,3.16-2.85.06-5.13-.12-6.25-.66-2.48-1.16-4-12.21-3.7-23.53.24-8.36,2.91-15.66,8.08-18a16.83,16.83,0,0,1,6.79-1.58,13.88,13.88,0,0,1,2.73.26c7.72,1.47,13.47,9.34,14.7,19.54C203.61,316,202.56,321.38,200.73,322.77Z"/><path class="cls-19" d="M187.2,282.39a8.16,8.16,0,0,0-5.78,3.5c-2.85,5.18-3.63,11.65-3.8,17.66-.22,6.93,0,15.33,1.93,22.38-2.84.06-5.13-.12-6.25-.66-2.47-1.16-4-12.21-3.7-23.53.24-8.36,2.91-15.66,8.09-18a16.76,16.76,0,0,1,6.79-1.58A13.78,13.78,0,0,1,187.2,282.39Z"/><path class="cls-12" d="M154.58,304.69c1.42,0,2,4.47,1.66,4.9a3.14,3.14,0,0,1-2.56.27C153.26,309.54,153.18,304.71,154.58,304.69Z"/><polygon points="259.91 325.81 256.74 325.81 267.45 230.96 276.27 230.96 259.91 325.81"/><polygon points="365.44 325.81 368.61 325.81 357.9 230.96 349.08 230.96 365.44 325.81"/><polygon points="343.3 325.81 346.47 325.81 335.76 230.96 326.94 230.96 343.3 325.81"/><polygon points="280.88 325.81 277.72 325.81 288.43 230.96 297.25 230.96 280.88 325.81"/><polygon class="cls-12" points="375.28 123.06 358.54 220.19 319.34 220.19 336.08 123.06 375.28 123.06"/><polygon class="cls-20" points="370.5 123.06 353.75 220.19 319.34 220.19 336.08 123.06 370.5 123.06"/><rect class="cls-12" x="265.95" y="220.19" width="92.59" height="13.07"/><rect class="cls-20" x="265.95" y="220.19" width="33.24" height="13.07"/><path id="_Clipping_Path_4" data-name=" Clipping Path 4" class="cls-7" d="M240,266.15s-16.74,3.31-12.81,7.21,26.18,7.62,27.25,6.13S258.85,267,258.85,267l-15.46-7Z"/><g class="cls-21"><path class="cls-5" d="M249.92,276.62c2-1.47,4.05-2.91,6.47-3.2.45-.05,1,0,1.21.37a1.1,1.1,0,0,1,.09.67,7.5,7.5,0,0,1-1.57,3.52,12.33,12.33,0,0,1-2.69,2.89,5.89,5.89,0,0,1-3.7,1.23c-1-.06-3.32-.86-3.25-2.14S249.07,277.25,249.92,276.62Z"/><path class="cls-5" d="M234,274.89c.09,1.2,0,2.57-.95,3.33s-2.48.52-3.64,0a8,8,0,0,1-3.75-3.56,6.13,6.13,0,0,1-.17-5.11,8,8,0,0,1,1.08-1.68,6.07,6.07,0,0,1,2-1.76,2.36,2.36,0,0,1,2.53.09,9.17,9.17,0,0,1,1.36,2.59A18.38,18.38,0,0,1,234,274.89Z"/><path class="cls-22" d="M236.76,276.49a36.72,36.72,0,0,0,9.41.8c1.63-.05,3.56-.37,4-2,.36-1.24-.33-2.72-1.14-3.91a16.71,16.71,0,0,0-5.08-4.86,19.21,19.21,0,0,1-2.44-1.53,4,4,0,0,1-1.54-2.47,2.59,2.59,0,0,1,1.11-2.43,5.5,5.5,0,0,1,2.55-.8,16.24,16.24,0,0,1,12.06,3.17c3.56,2.85,5.95,7.89,4.9,12a10.09,10.09,0,0,1-3.64,5.26,17.81,17.81,0,0,1-14.51,3.39,23.85,23.85,0,0,1-10.36-5c-1.45-1.19-4.9-3.43-5.94-5.07-1.57-2.48,2.41.41,3.22.9A27.07,27.07,0,0,0,236.76,276.49Z"/></g><path id="_Clipping_Path_5" data-name=" Clipping Path 5" class="cls-7" d="M262.29,275.84s-14,9.75-8.87,11.75,27.05-3.51,27.43-5.3-1-13.24-1-13.24l-17-.2Z"/><g class="cls-23"><path class="cls-5" d="M275.54,281.47c1.2-2.13,2.56-4.27,4.65-5.52a1.2,1.2,0,0,1,1.26-.14,1.1,1.1,0,0,1,.35.57,7.61,7.61,0,0,1,0,3.85,12.23,12.23,0,0,1-1.33,3.76,5.9,5.9,0,0,1-2.89,2.6c-.94.35-3.39.55-3.85-.71C273.33,284.79,275,282.4,275.54,281.47Z"/><path class="cls-5" d="M260.31,286.25c.56,1.06,1,2.37.45,3.43s-2.05,1.48-3.33,1.43a7.94,7.94,0,0,1-4.87-1.78,6.08,6.08,0,0,1-2.21-4.62,7.71,7.71,0,0,1,.31-2,6,6,0,0,1,1.14-2.42,2.39,2.39,0,0,1,2.35-.93,9.82,9.82,0,0,1,2.29,1.82A18.62,18.62,0,0,1,260.31,286.25Z"/><path class="cls-22" d="M263.43,286.62a35.3,35.3,0,0,0,8.95-3c1.48-.71,3.1-1.75,2.85-3.43-.17-1.28-1.43-2.36-2.62-3.13a16.75,16.75,0,0,0-6.6-2.41,21.08,21.08,0,0,1-2.85-.43,4.07,4.07,0,0,1-2.4-1.63,2.61,2.61,0,0,1,.05-2.67,5.36,5.36,0,0,1,2-1.77,16.3,16.3,0,0,1,12.35-1.91c4.41,1.15,8.6,4.85,9.3,9a10,10,0,0,1-1.24,6.27,17.76,17.76,0,0,1-11.93,8.9,23.73,23.73,0,0,1-11.48-.41c-1.82-.5-5.87-1.17-7.48-2.26-2.43-1.65,2.37-.59,3.31-.47A26.2,26.2,0,0,0,263.43,286.62Z"/></g><path class="cls-15" d="M337.09,194.71s4.85,23-9.14,23.33-51.66,1.82-51.66,1.82l-17.85,52.07-21.35-7.76s15.34-57.43,21.13-62.17,42.52-7.66,49.61-7.48S337.09,194.71,337.09,194.71Z"/><path class="cls-24" d="M337.09,194.71s4.85,23-9.14,23.33-51.66,1.82-51.66,1.82l-17.85,52.07-21.35-7.76s15.34-57.43,21.13-62.17,42.52-7.66,49.61-7.48S337.09,194.71,337.09,194.71Z"/><polygon class="cls-25" points="236.31 265.28 258.07 272.96 261.73 266.33 237.79 257.53 236.31 265.28"/><polygon class="cls-26" points="236.31 265.28 258.07 272.96 261.73 266.33 237.79 257.53 236.31 265.28"/><path class="cls-27" d="M246.69,266.82a29.15,29.15,0,0,1-4.8-5.37,21.38,21.38,0,0,1-1.79-3.07l-2.31-.85-1.47,7.75,16.81,5.94A32.18,32.18,0,0,1,246.69,266.82Z"/><path class="cls-15" d="M349.41,195.62s5,24.38-9.48,24.78-53.61,1.93-53.61,1.93l-4.12,52.56-22-.77s1.3-65.73,7.3-70.76,44.13-8.13,51.49-7.93S349.41,195.62,349.41,195.62Z"/><path class="cls-28" d="M276.42,274.18a24.45,24.45,0,0,1-1.62-4.92c-.42-1.76-.83-3.52-1.2-5.28a102.25,102.25,0,0,1-1.7-12.67c-.31-3.7-.56-7.41-.89-11.11s-.59-7-.64-10.59c-.08-6.87.77-13.93,4.76-19.72a43.59,43.59,0,0,1,12.38-11.75c-9.22,1.33-17.44,3.1-20,5.22-6,5-7.3,70.76-7.3,70.76l16.47.57C276.61,274.52,276.51,274.35,276.42,274.18Z"/><path class="cls-28" d="M349.41,195.62h-5.17a7.31,7.31,0,0,1-.05,1,32.73,32.73,0,0,1-.61,4.52,16.66,16.66,0,0,1-1.27,4.12c-1.32,2.59-3.77,4.47-6.16,6a42.83,42.83,0,0,1-8.08,4,79.57,79.57,0,0,1-18.82,4.09c-4.27.48-8.54.71-12.86,1.06-2.09.17-4.19.39-6.26.76a16.82,16.82,0,0,0-2.33.56,2.45,2.45,0,0,0-1,.53c4.37-.17,39.57-1.55,53.17-1.92C354.47,220,349.41,195.62,349.41,195.62Z"/><path class="cls-25" d="M276.66,266.15h0a.21.21,0,0,1-.2-.22h0l.09-1.28a.19.19,0,0,1,.2-.19h0a.21.21,0,0,1,.2.23h0l-.09,1.26A.23.23,0,0,1,276.66,266.15Z"/><path class="cls-25" d="M276.94,262.3h0a.21.21,0,0,1-.2-.22h0l.2-2.6a.2.2,0,0,1,.2-.2h0a.21.21,0,0,1,.19.22l-.19,2.59A.21.21,0,0,1,276.94,262.3Zm.39-5.18h0a.23.23,0,0,1-.2-.23l.21-2.59a.19.19,0,0,1,.19-.19h0a.21.21,0,0,1,.19.22h0l-.2,2.58a.21.21,0,0,1-.23.2Zm.41-5.17h0a.21.21,0,0,1-.19-.22h0c.06-.84.13-1.7.2-2.58a.21.21,0,0,1,.2-.23.21.21,0,0,1,.23.19.15.15,0,0,1,0,.07c-.07.88-.13,1.75-.2,2.58a.21.21,0,0,1-.21.21h0Zm.41-5.18h0a.21.21,0,0,1-.19-.22h0l.21-2.59a.22.22,0,0,1,.22-.2h0a.23.23,0,0,1,.2.23l-.21,2.59a.22.22,0,0,1-.22.2Zm.43-5.17h0a.21.21,0,0,1-.19-.22h0l.22-2.58a.2.2,0,0,1,.2-.2h0a.23.23,0,0,1,.19.23l-.22,2.59a.22.22,0,0,1-.23.19Zm.45-5.18h0a.2.2,0,0,1-.19-.22l.22-2.59a.21.21,0,0,1,.22-.2h0a.24.24,0,0,1,.19.23l-.23,2.59a.22.22,0,0,1-.22.2h0Zm.46-5.17h0a.21.21,0,0,1-.19-.23h0c.07-.87.15-1.74.24-2.58a.2.2,0,0,1,.2-.2h0a.2.2,0,0,1,.2.21h0c-.08.85-.17,1.72-.24,2.59a.21.21,0,0,1-.22.19Zm.5-5.17h0a.2.2,0,0,1-.19-.22h0c.09-.89.17-1.75.26-2.59a.22.22,0,0,1,.23-.18.21.21,0,0,1,.19.23c-.09.84-.17,1.7-.26,2.58a.21.21,0,0,1-.22.19Zm.54-5.16h0a.21.21,0,0,1-.19-.23h0q.15-1.38.3-2.58a.21.21,0,0,1,.24-.18.2.2,0,0,1,.18.22h0q-.15,1.2-.3,2.58A.21.21,0,0,1,280.53,220.92Zm.65-5.15h0a.22.22,0,0,1-.19-.24h0c.17-1.12.32-2,.46-2.58a.21.21,0,0,1,.41.1c-.13.58-.28,1.42-.45,2.54a.21.21,0,0,1-.24.18h0Zm2.37-3.78a.21.21,0,0,1-.2-.19.21.21,0,0,1,.18-.24c.66-.08,1.51-.17,2.59-.26a.21.21,0,0,1,.08.42h-.08c-1.07.1-1.92.18-2.57.27Zm5.19-.48a.21.21,0,0,1-.21-.19.22.22,0,0,1,.18-.23h0l2.6-.18a.19.19,0,0,1,.22.17v0a.21.21,0,0,1-.19.22h0l-2.6.18Zm5.18-.35a.22.22,0,0,1-.17-.25.21.21,0,0,1,.17-.17l2.6-.17a.2.2,0,0,1,.22.19h0a.21.21,0,0,1-.2.23h0l-2.59.16Zm5.19-.32a.21.21,0,0,1,0-.42l2.59-.15a.21.21,0,0,1,.25.17.21.21,0,0,1-.17.25h-.08l-2.59.15Zm5.18-.3a.22.22,0,0,1-.17-.25.21.21,0,0,1,.17-.17l2.6-.15a.21.21,0,0,1,.22.2h0a.22.22,0,0,1-.2.22l-2.59.15Zm5.19-.29a.23.23,0,0,1-.21-.21.21.21,0,0,1,.19-.22h0l2.59-.15a.21.21,0,0,1,.23.18v0a.23.23,0,0,1-.2.22l-2.6.16Zm5.19-.32a.22.22,0,0,1-.18-.25.24.24,0,0,1,.18-.17l2.59-.15a.19.19,0,0,1,.22.16v0a.21.21,0,0,1-.19.23h0l-2.59.15Zm5.18-.32a.22.22,0,0,1-.21-.2.22.22,0,0,1,.2-.23h0l2.59-.17a.21.21,0,0,1,.23.19h0a.21.21,0,0,1-.2.22h0l-2.59.18Zm5.19-.37a.21.21,0,0,1-.21-.19.21.21,0,0,1,.18-.23h0l2.59-.21a.2.2,0,0,1,.23.17v0a.21.21,0,0,1-.19.23l-2.59.21Zm5.18-.48a.22.22,0,0,1-.22-.19.23.23,0,0,1,.19-.24A6.39,6.39,0,0,0,332,208c.17-.09.35-.21.53-.33a.2.2,0,0,1,.28,0v0a.19.19,0,0,1,0,.28h0l-.56.35a6.1,6.1,0,0,1-2,.42Zm4.45-2.37a.21.21,0,0,1-.2-.23.2.2,0,0,1,.06-.14,14.48,14.48,0,0,0,1.66-1.92.2.2,0,0,1,.28-.07h0a.21.21,0,0,1,0,.3h0a13.51,13.51,0,0,1-1.71,2,.22.22,0,0,1-.15.08Z"/><path class="cls-25" d="M337.47,202.39h-.08a.22.22,0,0,1-.12-.28,8,8,0,0,0,.36-1.18.21.21,0,1,1,.41.08h0a7.94,7.94,0,0,1-.38,1.26A.21.21,0,0,1,337.47,202.39Z"/><polygon class="cls-25" points="259.79 274.79 282.84 275.48 284.31 268.05 258.83 266.96 259.79 274.79"/><path class="cls-27" d="M270.13,273.09a29.23,29.23,0,0,1-6.2-3.64,20.64,20.64,0,0,1-2.64-2.39l-2.46-.1,1,7.83,17.79.53A31.35,31.35,0,0,1,270.13,273.09Z"/><path class="cls-29" d="M300.83,147.07S285.88,164,283.68,164.69s-25.4,4.64-25.4,4.64L257,176.76s28.13,2.75,31.35.83,22.25-18,22.25-18Z"/><path class="cls-5" d="M290.45,155.75s12.4-19.51,17.84-20.92,15.77,2.76,10,13.59A94.39,94.39,0,0,1,305.07,167S294,165.61,290.45,155.75Z"/><path class="cls-16" d="M310.34,134.57a50.65,50.65,0,0,0-3.95,6.29c-1.45,2.69-2.76,5.48-4,8.27s-2.43,5.75-3.43,8.7a56.13,56.13,0,0,0-1.71,6.22,21.54,21.54,0,0,0,7.83,2.93,94.39,94.39,0,0,0,13.18-18.56C323.38,138.86,315.92,134.52,310.34,134.57Z"/><path class="cls-7" d="M351,168.55c-1.54-22.7-2.58-28.36-5.24-31.67s-12.34-4.74-19.18-5-16.82,1.66-19.66,3.6-4.55,10.23-4.11,20.52c.38,8.92,2.25,18.4,2.18,22.52-.14,7.66-1.64,10.62-2.74,16.32,8.54,5.95,41.63,9.14,48.73,7.71A264.65,264.65,0,0,0,351,168.55Z"/><g class="cls-30"><path class="cls-5" d="M314.69,137.15a3.44,3.44,0,0,0,.92,2.9,5.72,5.72,0,0,0,2.77,1.43c1.95.53,6.35,0,8.32-2.27,3.3,7.83,7.12,16.15,14.79,20.35A19.69,19.69,0,0,0,348.3,162a8.28,8.28,0,0,0,10-8.92,24.3,24.3,0,0,0-1.88-8.29c-1.72-4.59-3.93-9.14-7.51-12.47-5.39-5-13-6.49-20.1-6.72a47.14,47.14,0,0,0-17.29,2.24,26.81,26.81,0,0,0-13.49,10,25,25,0,0,0-2.64,21.78,2.49,2.49,0,0,0,1.43-.07c3.79-2.4,5.69-7,8.08-11A44.63,44.63,0,0,1,314.69,137.15Z"/><path class="cls-22" d="M338.27,188.27c-1,3.09-2.14,6.29-4.46,8.54-3.91,3.79-10.08,4-14.62,7,1.18,3.3,5.09,4.6,8.51,5.37,6.75,1.54,13.95,2.72,20.47.42a10.77,10.77,0,0,0,5.63-4,13,13,0,0,0,1.68-5.23c1.42-9.13,1-18.44.5-27.67q-.83-14.52-2.05-29.05c-.23-2.75-.52-5.64-2.06-7.93a8.21,8.21,0,0,0-3.91-3.09c-2.45-.9-2,.91-1.86,2.8a102.84,102.84,0,0,1,.12,13,137.41,137.41,0,0,1-3.9,25.5C341.16,178.81,339.78,183.56,338.27,188.27Z"/><path class="cls-22" d="M321.21,200.94a78.18,78.18,0,0,1-10.43-4.27c-1.58-.83-3.2-1.81-3.94-3.3a24.72,24.72,0,0,1,5.7.18l9.13,1a53,53,0,0,1-9.12-4.51c-1.46-.83-5.56-2.53-4.38-4.87.4-.8,1.31-1.16,2-1.64a1.68,1.68,0,0,0,.59-2.3l-.1-.14a9.29,9.29,0,0,0-3.2-2.8,22.08,22.08,0,0,1-3.56-2.84,20,20,0,0,1-1.76-1.93c-.24,1.88.18,3.84.1,5.74a31.6,31.6,0,0,1-1.13,5.7,33.25,33.25,0,0,0-.43,12.88,5,5,0,0,0,.79,2.23,5.8,5.8,0,0,0,2.41,1.61c4.73,2,10.09,2.62,15.35,3C322.38,204.94,324.74,202.22,321.21,200.94Z"/></g><path class="cls-31" d="M267,166.64a12.77,12.77,0,0,1,4.75-5.51,7.59,7.59,0,0,1,2.08-1.07,9.55,9.55,0,0,1,4.72.09,40.51,40.51,0,0,1,5.23,1.83l4.79,1.84a5.26,5.26,0,0,0,1.21.48c3.25.43,23.55,3,27.2,3.16,3.73-4,9.4-14.5,9.4-14.5s10.1,1.23,13.14,7.06c0-.16-12.27,17.44-14.11,18.4s-10.14-.41-20.17-3c-7.6-2-14.17-4-16.91-4.89a7.89,7.89,0,0,1-1.35.21c-5.31.37-4.51-2.65-4.77-2.85l.14-.17c-1,.36-2.06.71-3.1,1-.42.13-1,.2-1.16-.13s.06-.58.27-.84a20.7,20.7,0,0,1,2.25-2.43l-5.15,3.43c-.34.23-.81.47-1.12.25s-.18-.65,0-1a12.69,12.69,0,0,1,3.74-4.27l-3.48,2.61c-.79.6-1.58,1.2-2.43,1.73a3,3,0,0,1-2.51.65.32.32,0,0,1-.24-.18.37.37,0,0,1,.06-.29,18.14,18.14,0,0,1,4.47-5l-4.6,3.56a2.63,2.63,0,0,1-2,.77.7.7,0,0,1-.38-.22A.78.78,0,0,1,267,166.64Z"/><path class="cls-31" d="M323.15,167a13.71,13.71,0,0,1-2.53-4.42c3-4.47,5.75-9.66,5.75-9.66s10.1,1.23,13.14,7.06c0-.1-5.14,7.25-9.25,12.7C327.36,171.75,324.77,169,323.15,167Z"/><path class="cls-32" d="M282.1,166.91a31.07,31.07,0,0,1,3.52,1c1.14.28,2.35.37,3.56.59a66.94,66.94,0,0,1,9.12,2.63,168,168,0,0,0,17.2,4.67c3.56.77,7.31,1.78,11.08,1.55a5.86,5.86,0,0,1-1.17,1.11c-1.83,1-10.14-.41-20.18-3-7.6-2-14.17-4-16.91-4.89a7.59,7.59,0,0,1-1.35.21c-5.31.37-4.5-2.65-4.76-2.85l.13-.17c-1,.36-2,.71-3.1,1a1.85,1.85,0,0,1-.84.09A41.51,41.51,0,0,1,282.1,166.91Z"/><path class="cls-5" d="M319.21,161.06c.94-1.3,8.49-13.12,11.09-17.52a21.43,21.43,0,0,1,5.18-6.41c1.61-1.23,6.16-4,9.44-.24.17.21.34.41.49.63a6.71,6.71,0,0,1,.47.71c2.18,3.77,1.54,8.94.25,13.3a21,21,0,0,1-.92,2.51,81.12,81.12,0,0,1-9.86,16.67C330.32,170.38,321.73,165.84,319.21,161.06Z"/><path class="cls-16" d="M345.53,151.85c-.95,1.3-2,2.56-3,3.8-1.77,2.08-3.67,4-5.6,6s-3.83,3.72-5.86,5.46c-.71.61-1.42,1.2-2.18,1.78a20.08,20.08,0,0,0,6.47,1.89,81.46,81.46,0,0,0,9.86-16.68,19.79,19.79,0,0,0,.92-2.51c.09-.29.17-.58.25-.88Z"/><path id="_Clipping_Path_6" data-name=" Clipping Path 6" class="cls-31" d="M315.87,125.53l11.64-1.68,1.28,9.6a2.46,2.46,0,0,1-.57,1.93,9.93,9.93,0,0,1-6.59,3.56c-3.56.42-4-1.22-4-2.24a11.86,11.86,0,0,0-.25-2.85Z"/><g class="cls-33"><path class="cls-31" d="M313.78,132.12c9.61.36,13.73-8.88,13.45-9.26s-1.26-.45-2-.33c-5.26.9-12.58,3.28-13.41,5.24S312.42,132.07,313.78,132.12Z"/></g><path d="M336,114.89a2.85,2.85,0,0,1-1.81-.5,5.25,5.25,0,0,1-.79-1.61,3,3,0,0,0-4.48-1.38c-4.22,2.88-2.24,7.77-1.85,8.54a5.17,5.17,0,0,0,2.92,2.51c.4.13,1.15.28,1.26-.3.07-.33-.32-.65-.37-1a7,7,0,0,0,2.41.71c1,0,2.77-.26,3.3-1.26s-.5-1.51-1.29-1.94c1.34,0,2.67-1.75,3.14-2.78C339,114.59,336.82,114.93,336,114.89Z"/><path d="M298.16,93.39a6,6,0,0,0-.75,2.21,18.67,18.67,0,0,0-.13,5.92,6.33,6.33,0,0,0,.78,2.47,6.69,6.69,0,0,0,2.9,2.25,3,3,0,0,0,2.23.35,2.18,2.18,0,0,0,1.06-1.06c.84-1.54.59-3.39.32-5.12a19.23,19.23,0,0,0-1.23-4.84,7.37,7.37,0,0,0-2.31-3C299.9,91.75,298.89,92.24,298.16,93.39Z"/><path class="cls-31" d="M316.38,129.18c-7,1.68-10.73,0-12.78-2.35-.15-.17-.29-.36-.43-.54-1.91-2.63-3.48-8.5-3.94-10.74a3,3,0,0,0-.1-.59.09.09,0,0,0,0-.07,50,50,0,0,1-.66-10.37C299,89,312.07,82.29,323.16,87.44A21.15,21.15,0,0,1,333,97.35c.17.34.32.68.47,1C340.11,113.93,329.61,126,316.38,129.18Z"/><g class="cls-34"><path class="cls-15" d="M304.93,126a2.66,2.66,0,0,1-1.33.87l-.43-.54c-1.91-2.64-3.48-8.51-3.94-10.75a3.07,3.07,0,0,0-.1-.58,4.45,4.45,0,0,1,2.37,1.25,12,12,0,0,1,3.86,7.47A3.11,3.11,0,0,1,304.93,126Z"/><path class="cls-15" d="M325.54,123.39,326,123c2.47-2.13,5.27-6.54,2.76-9.85a4.74,4.74,0,0,0-5.39-1.36,8,8,0,0,0-4.1,4.12,8.67,8.67,0,0,0-1,4.41,5.11,5.11,0,0,0,2.13,3.9C322.09,125.3,324.09,124.49,325.54,123.39Z"/></g><path d="M340.23,101.78a37.08,37.08,0,0,1-.84,3.9c-.13.49-.71,3.5-1.12,3.64a1.5,1.5,0,0,1-.55.08,1.7,1.7,0,0,1-1.05-.54c-.59-.56-1.14-1.29-2.09-1.15-1.37.18-2.39,3.27-3.79,3.32-1.69.06-2.36-1.57-2.84-3.16a44,44,0,0,1,.39-6.07,1.12,1.12,0,0,1,0-.31,3,3,0,0,0-.24-.38c-1.05-1.46-2.81-2-4.36-2.79a13.55,13.55,0,0,1-2.7-2.07,9,9,0,0,1-2.39-3,29.05,29.05,0,0,1-1.16-3.64,22.91,22.91,0,0,1-7.7,5.93,36.84,36.84,0,0,1-6.51,2.4c-1.72.42-4.4.87-5.87-.38s-1.29-2.84-1-4.42c.51-2.41,2.18-4,4-5.56a31.67,31.67,0,0,1,18.29-7.31,25,25,0,0,1,4.41.16,22.32,22.32,0,0,1,5.62,1.43,15.53,15.53,0,0,1,1.82.81c.46.24.92.49,1.38.77a19.28,19.28,0,0,1,4.2,3.44,15.71,15.71,0,0,1,3.85,6.92v.11A20.84,20.84,0,0,1,340.23,101.78Z"/><path class="cls-12" d="M336.2,86.83c-1.12.43-2.93-.78-3.87-1-2.63-.47.21,3.28-.06,4.22s-1.64,1.07-2.55,1c-1.52-.14-2.29-1.16-3.56-1.74a1.51,1.51,0,0,0-2,.65,1.47,1.47,0,0,0-.14.4c-.2.72.71,2.6.18,3.1-.81.71-3-.45-3.53-1-1.07-1-1.9-2.8-1.31-4.21.16-.45,1.36-.58,1.85-.85,1-.51,1.91-1.17,2.9-1.69a46.62,46.62,0,0,1,4.27-2.35,20.69,20.69,0,0,1,2.3-.77c.46.24.93.49,1.38.77A19.45,19.45,0,0,1,336.2,86.83Z"/><path class="cls-12" d="M328.8,81.8a19.8,19.8,0,0,1-2.21,1,36.88,36.88,0,0,0-4.81,2.14,23.19,23.19,0,0,0-3.89,2.46c-.71.59-1.54,2-2.14,2-1.38,2-4.27,2-6.3,1-1.19-.52-1.5-1.38-.15-2.08s3.27-.71,4.8-1.42c1.19-.55,2.28-1.51,1.82-2.85-.29-.84-1.28-2.13.2-2.44,1.13-.23,2.43.86,3.56,1.06a1.81,1.81,0,0,0,2.14-.84,4.2,4.2,0,0,1,1.38-1.43A22.56,22.56,0,0,1,328.8,81.8Z"/><path d="M304.64,113c.18,1.11-.24,2.1-.94,2.21s-1.42-.72-1.6-1.83.24-2.1.95-2.21S304.44,111.85,304.64,113Z"/><path d="M319.16,111.08c.18,1.15-.32,2.18-1.14,2.31s-1.61-.71-1.8-1.87.32-2.19,1.13-2.31S319,109.92,319.16,111.08Z"/><path class="cls-14" d="M308.27,120.05a13.53,13.53,0,0,0,4.67-1.16,16.32,16.32,0,0,0,3.86-2.67c.1-.09.28,0,.2.14a10.57,10.57,0,0,1-8.73,4,.15.15,0,0,1-.18-.13.16.16,0,0,1,.13-.19Z"/><path class="cls-14" d="M308.37,117.37c-.93-.22-1.88-.92-1.85-1.93a1.39,1.39,0,0,1,.6-1.15c.31-.2.71-.27,1-.44.81-.47.42-1.3.2-2a12.31,12.31,0,0,0-1.16-3c-.08-.12-.33-.09-.31.08a7,7,0,0,0,.46,1.61l.58,1.71c.1.29.36.75.18,1a1.11,1.11,0,0,1-.52.33,2.37,2.37,0,0,0-1,.6,1.91,1.91,0,0,0-.27,2.08,2.6,2.6,0,0,0,2.07,1.28A.09.09,0,0,0,308.37,117.37Z"/><path d="M304.32,103.92c.25.63-.67.55-2.05.94s-1.48,1.6-1.89,1.55-.36-2.14,1.42-2.9C303.17,103,304.15,103.51,304.32,103.92Z"/><path d="M312.94,102.41c-.13.57,1.58.34,3.48.21s3.24,1.23,3.46.71-1.14-2.08-3.44-2.13S313,102,312.94,102.41Z"/><path class="cls-31" d="M331.16,108.9c1-2.56,3.07-4.61,6-3.69a3.28,3.28,0,0,1,2,2.05,5.94,5.94,0,0,1,.18,2.9,8.92,8.92,0,0,1-3.82,6.18,3.3,3.3,0,0,1-2.75.57,3.93,3.93,0,0,1-2.19-2.94A8.87,8.87,0,0,1,331.16,108.9Z"/><path class="cls-32" d="M334.49,106.51c-.71.71-1.13,1.74-1.82,2.45-.5.5-.81,1.24-1.65.39h0c.05-.15.1-.3.16-.45.93-2.4,2.84-4.36,5.5-3.83A6.28,6.28,0,0,0,334.49,106.51Z"/><path class="cls-14" d="M337.38,107.6a1.48,1.48,0,0,0-1-.25,2.54,2.54,0,0,0-1.86,1.19,8.73,8.73,0,0,0-1,2.13,6.51,6.51,0,0,0-.32,2.36c0,.15.29.15.29,0a8.12,8.12,0,0,1,1.19-3.77,5.5,5.5,0,0,1,.34-.5,3.51,3.51,0,0,1,.66,1.85,5.69,5.69,0,0,1-.39,2.27.07.07,0,0,0,0,.1.07.07,0,0,0,.09,0,3.62,3.62,0,0,0-.17-4.45,2.08,2.08,0,0,1,.83-.53,1.47,1.47,0,0,1,1.54.47c.06.09.22,0,.2-.08A1.3,1.3,0,0,0,337.38,107.6Z"/><polygon points="99.43 325.81 95.41 325.81 109.01 188.74 120.21 188.74 99.43 325.81"/><polygon points="324.69 325.81 328.72 325.81 315.12 188.74 303.93 188.74 324.69 325.81"/><rect class="cls-12" x="102.65" y="176.83" width="218.84" height="14.99"/><rect class="cls-20" x="102.65" y="176.82" width="218.84" height="5.86"/><rect class="cls-12" x="97.89" y="172.51" width="228.36" height="7.41"/><path class="cls-4" d="M172.63,123.85h59.56a2.85,2.85,0,0,1,2.63,1.81l16,42.71H186.66l-15.76-42A1.86,1.86,0,0,1,172,124,1.62,1.62,0,0,1,172.63,123.85Z"/><rect class="cls-4" x="184.49" y="168.39" width="94.77" height="4.44"/><path class="cls-5" d="M268,172.24c2.4-.47,7.06-1.65,9.71-3.83h1.57v4.44H264.51Z"/><rect class="cls-5" x="184.49" y="168.39" width="64.16" height="4.44"/><rect class="cls-35" x="223.35" y="169.74" width="18.46" height="1.91"/><rect class="cls-35" x="186.56" y="169.74" width="4.26" height="1.91"/><rect class="cls-35" x="192.23" y="169.74" width="4.26" height="1.91"/><path class="cls-5" d="M170.46,123.85H230a2.79,2.79,0,0,1,2.62,1.81l16,42.71H184.48l-15.78-42a1.84,1.84,0,0,1,1.09-2.38A1.72,1.72,0,0,1,170.46,123.85Z"/><path class="cls-36" d="M170.46,123.85h50.2c-24.4.61-37.44,1.35-42.46,2.1s-8.4,1.84-7.52,5.54l-2-5.15a1.84,1.84,0,0,1,1.09-2.38A1.72,1.72,0,0,1,170.46,123.85Z"/><path class="cls-37" d="M184.16,164.84c13.14,3.56,30,2.68,40.45-6.94,5.57-5.11,8.28-12.9,8.17-20.35a35.84,35.84,0,0,0-2.79-13.7h0a2.79,2.79,0,0,1,2.63,1.81l16,42.71H184.48l-1.43-3.87Z"/><path class="cls-38" d="M243.56,170.61a1.23,1.23,0,1,0,1.24-1.21h0A1.22,1.22,0,0,0,243.56,170.61Z"/><path class="cls-35" d="M244,170.61a.82.82,0,1,0,.82-.82h0A.82.82,0,0,0,244,170.61Z"/><path class="cls-39" d="M215.67,154l-4.51-3.62a1.71,1.71,0,0,0-1.42-.4l-4.7,1a1.91,1.91,0,0,1-2.13-1.67,1.85,1.85,0,0,1,0-.47l1.06-4.68a1.7,1.7,0,0,0-.38-1.42L200,138.22c-.86-1.09-.31-2.41.93-2.24l5.18.71a1.14,1.14,0,0,0,1.16-.47l2.47-3.84c.6-.92,2.2-.47,2.71.76l2.13,5.13a2.08,2.08,0,0,0,1.11,1.11l5.11,2.14c1.24.52,1.67,2.13.72,2.7l-3.87,2.44a1.17,1.17,0,0,0-.48,1.16l.72,5.19C218,154.32,216.72,154.86,215.67,154Z"/><path class="cls-8" d="M215.62,152.16l-4.88-3.92a.59.59,0,0,0-.48-.12l-5.07,1.11a.65.65,0,0,1-.71-.58.33.33,0,0,1,0-.14l1.15-5.06a.58.58,0,0,0-.13-.47l-3.88-4.9c-.29-.37-.11-.82.31-.76l5.59.79a.41.41,0,0,0,.4-.16l2.68-4.15c.2-.31.71-.16.91.26l2.31,5.54a.69.69,0,0,0,.37.38l5.53,2.34c.42.18.57.71.25.92l-4.17,2.64a.36.36,0,0,0-.16.39l.71,5.6C216.44,152.27,216,152.46,215.62,152.16Z"/><path class="cls-7" d="M212.43,145.65l-1.7-1.36a.28.28,0,0,0-.16,0l-1.76.4a.24.24,0,0,1-.25-.21v-.05l.4-1.75a.21.21,0,0,0,0-.17l-1.35-1.7c-.1-.12,0-.28.11-.26l1.94.27a.11.11,0,0,0,.14-.05l.92-1.42c.08-.11.26-.06.33.08l.79,1.92a.29.29,0,0,0,.13.14l1.92.81c.14.06.19.25.09.31l-1.43.92a.15.15,0,0,0,0,.14l.26,1.93C212.71,145.69,212.56,145.75,212.43,145.65Z"/><path class="cls-7" d="M197.46,154.38c1.33,4.66,5.69,8.26,9.79,8.05s6.29-4.18,5-8.84-5.69-8.27-9.79-8.05S196.13,149.71,197.46,154.38Z"/><path class="cls-15" d="M198.81,154.3c1.08,3.82,4.66,6.76,8,6.59s5.14-3.41,4.05-7.23-4.67-6.76-8-6.58S197.72,150.49,198.81,154.3Z"/><path class="cls-8" d="M209.38,153.4a.27.27,0,0,0-.33-.18.24.24,0,0,0-.11.06c-.57.47-1.22-.71-1.49-1l-1.73-2.14a.51.51,0,0,0-.72,0,.5.5,0,0,0-.13.22,5.26,5.26,0,0,0,0,1.43c-.08-.12-.15-.25-.24-.37a1.24,1.24,0,0,0-1.42-.63c-.61.23-.63.94-.63,1.49a14.1,14.1,0,0,0,.76,4l.32,1a9.15,9.15,0,0,0,.29.93h-.07a2.6,2.6,0,0,1-.32-.26,7.25,7.25,0,0,1-.62-.62,6.83,6.83,0,0,1-1.08-1.77c-.2-.5-.58-1.42-.17-1.88a.25.25,0,0,0,0-.35.24.24,0,0,0-.32,0c-.88.77-.3,2.23.1,3.1a7.2,7.2,0,0,0,1,1.57,3.43,3.43,0,0,0,1.28,1.08.79.79,0,0,0,1.07-.35.75.75,0,0,0,.08-.24,2.69,2.69,0,0,0-.17-.93c-.1-.38-.21-.75-.31-1.13a14,14,0,0,1-.8-4.21,1.31,1.31,0,0,1,0-.28h0l.14.16a7.38,7.38,0,0,1,.62,1,9.73,9.73,0,0,1,.88,2.2.51.51,0,0,0,1-.13,11.7,11.7,0,0,0-.41-3.11c.51.64,1,1.27,1.57,1.85a1.42,1.42,0,0,0,1.3.52.71.71,0,0,0,.67-.75A.68.68,0,0,0,209.38,153.4Z"/><path class="cls-4" d="M152.89,136.47c-2.59-2.13-2.8-6.09-1.89-9.07a29.48,29.48,0,0,0,1.14-4.74,8.58,8.58,0,0,0-.17-4c.35.57.76,1,1.11,1.53a12.22,12.22,0,0,1,1.22,2.77,14.47,14.47,0,0,1,.89,4.64,29.13,29.13,0,0,1-.63,4.55,18.11,18.11,0,0,1-.64,3C153.82,135.4,153.32,136.82,152.89,136.47Z"/><path class="cls-4" d="M150.56,136.74a10.78,10.78,0,0,1-6.4-6.2,21.42,21.42,0,0,1-1-3.85,14.57,14.57,0,0,1-.31-2,1.52,1.52,0,0,0,.57.94,19.28,19.28,0,0,0,1.71,1.55,24.64,24.64,0,0,0,2,1.57,22.69,22.69,0,0,1,2.27,1.61,9.38,9.38,0,0,1,2.91,4.52,2.09,2.09,0,0,1-.17,1.71A1.58,1.58,0,0,1,150.56,136.74Z"/><path class="cls-4" d="M152.8,136.38c-.48-.71.28-2.08.71-2.63a11.68,11.68,0,0,1,3.94-3.28,37.22,37.22,0,0,1,5.17-2.08,9.08,9.08,0,0,0,2.19-.95c.35-.24.88-.58,1-1,0,1.93-1.42,3.61-2.59,5a12.3,12.3,0,0,1-4.32,3.35,32.71,32.71,0,0,1-3.14,1.27,6.71,6.71,0,0,1-1.88.45C153.45,136.51,153,136.66,152.8,136.38Z"/><path class="cls-12" d="M164.56,114.38a30.39,30.39,0,0,0-3.86,5.1,60.33,60.33,0,0,0-3.33,5.85A49.6,49.6,0,0,0,153,137.69a.14.14,0,0,0,.09.17.13.13,0,0,0,.17-.09A78.21,78.21,0,0,1,158,125.56a60.85,60.85,0,0,1,3.13-5.5c1.19-1.85,2.56-3.56,3.74-5.42C165,114.43,164.73,114.22,164.56,114.38Z"/><path class="cls-12" d="M150.61,126.29c-1-3.47-2.45-7.12-5.07-9.73a.11.11,0,0,0-.17.13,29.46,29.46,0,0,1,4.6,9.92,70,70,0,0,1,1.77,11.52.19.19,0,0,0,.22.15.21.21,0,0,0,.15-.15A31.13,31.13,0,0,0,150.61,126.29Z"/><path class="cls-15" d="M144.64,119.61a3.66,3.66,0,0,1-2-.6,2.36,2.36,0,0,1-.85-1.42,3.09,3.09,0,0,0-1.09-1.52,4.33,4.33,0,0,0-2.34-1.13c-.17,0-.65,0-.71-.19s.67-.71.86-.79a4.62,4.62,0,0,1,2-.45,11.46,11.46,0,0,0,1.43.21,2.76,2.76,0,0,1-.93-1.82c0-.61.17-1.86.86-2.1.5-.18.49.61.54.93a3.81,3.81,0,0,0,.83,1.93,2.71,2.71,0,0,1,1.42-2.52c.05.57-.39,1.24-.17,1.81a2.74,2.74,0,0,1,.71-.91c.2-.16.5-.53.78-.51a4,4,0,0,0-.21,1.37c0,.92.72,1.28,1.29,1.88a4.13,4.13,0,0,1,.91,1,3.82,3.82,0,0,1,.2,2.09C148.06,118,147.06,119.53,144.64,119.61Z"/><path class="cls-15" d="M169.49,111.75c.11,0,.34,0,.37-.18.09-.39-1.14-.58-1.34-.62a3.36,3.36,0,0,0-1.34,0c-.15,0-.4.17-.46,0s.24-.61.3-.71a1.41,1.41,0,0,0,.25-.72,1.9,1.9,0,0,0-1.72,1c-.31-.44-.42-1-.77-1.43a1.91,1.91,0,0,0-.65-.58c-.14-.06-.49-.14-.63,0s-.08.38-.08.52a4.84,4.84,0,0,1,0,1.52c-.15.63-.61.77-1.11,1.06a3.62,3.62,0,0,0-.89.76,2.62,2.62,0,0,0-.64,1.53,3.48,3.48,0,0,0,1.43,2.78,4.22,4.22,0,0,0,.71.48c1.6.85,4,1.24,4.93-.71a5,5,0,0,0,.32-2.62.93.93,0,0,1,0-.44,1,1,0,0,1,.72-.42c.2-.05.59-.15.25-.35s-.67,0-1-.07a3.46,3.46,0,0,1,.71-.55A2.55,2.55,0,0,1,169.49,111.75Z"/><path class="cls-8" d="M165.36,156.27a8.84,8.84,0,0,0-4.93-8.32,6,6,0,0,1-3.3-5.24v-6.4h-8.3v6.4a6,6,0,0,1-3.31,5.24,8.84,8.84,0,0,0-4.93,8.32,16.25,16.25,0,0,0,2.3,8c1.31,2.25,4.44,4.81,4.44,7.42h11.28c0-2.61,3.14-5.17,4.45-7.42A16.25,16.25,0,0,0,165.36,156.27Z"/><rect class="cls-25" x="147.94" y="135.85" width="10.08" height="1.52" rx="0.53" ry="0.53"/><rect class="cls-25" x="146.51" y="171.15" width="12.93" height="1.49" rx="0.52" ry="0.52"/></g></g></g></g></svg>