<svg xmlns="http://www.w3.org/2000/svg" viewBox="0 0 92.27 74.59"><defs><style>.cls-1{isolation:isolate;}.cls-2{fill:#3797db;}.cls-3{fill:#d1eaf2;}.cls-4{fill:#55769f;}.cls-5{fill:#e1f9ff;}.cls-6{fill:#7772d6;}.cls-7{fill:#62bdf3;}.cls-8{fill:#9ed16f;}.cls-13,.cls-9{fill:#96a65f;}.cls-10{fill:#45258f;}.cls-11{fill:#daeef7;}.cls-11,.cls-22,.cls-23{mix-blend-mode:multiply;}.cls-12{fill:#2d185d;}.cls-13{opacity:0.5;}.cls-14{fill:#3b77be;}.cls-15{fill:#ff5b7e;}.cls-16{fill:#efac7f;}.cls-17,.cls-20{fill:#d19369;}.cls-17{opacity:0.6;}.cls-18{fill:#06bfad;}.cls-19{fill:#5e2e0d;}.cls-21{fill:#333;}.cls-22{fill:#cdd6e0;}.cls-23{fill:#d9d9d9;}</style></defs><title>winner</title><g class="cls-1"><g id="Layer_2" data-name="Layer 2"><g id="Layer_1-2" data-name="Layer 1"><path class="cls-2" d="M49.63,60.25,59,64,70.58,35.16,62.67,32a1.55,1.55,0,0,0-2,.86Z"/><rect class="cls-3" x="50.62" y="35.37" width="18.2" height="25.59" transform="translate(110.12 106.03) rotate(-169.95)"/><rect class="cls-4" x="57.45" y="38.07" width="8.13" height="0.18" transform="translate(115.41 86.48) rotate(-169.95)"/><rect class="cls-4" x="55.82" y="37.62" width="11.54" height="0.18" transform="translate(115.65 85.59) rotate(-169.95)"/><rect class="cls-4" x="54.17" y="39.96" width="14" height="0.18" transform="translate(114.42 90.16) rotate(-169.95)"/><rect class="cls-4" x="54.02" y="40.82" width="14" height="0.18" transform="translate(113.97 91.85) rotate(-169.95)"/><rect class="cls-4" x="53.71" y="42.55" width="14" height="0.18" transform="translate(113.06 95.23) rotate(-169.95)"/><rect class="cls-4" x="53.56" y="43.42" width="14" height="0.18" transform="translate(112.6 96.92) rotate(-169.95)"/><rect class="cls-4" x="53.41" y="44.28" width="14" height="0.18" transform="translate(112.15 98.61) rotate(-169.95)"/><rect class="cls-4" x="52.73" y="48.08" width="14" height="0.18" transform="translate(110.15 106.03) rotate(-169.95)"/><rect class="cls-4" x="52.57" y="48.98" width="14" height="0.18" transform="translate(109.67 107.78) rotate(-169.95)"/><rect class="cls-4" x="52.42" y="49.87" width="14" height="0.18" transform="translate(109.2 109.53) rotate(-169.95)"/><rect class="cls-4" x="52.26" y="50.77" width="14" height="0.18" transform="translate(108.73 111.28) rotate(-169.95)"/><rect class="cls-4" x="52.1" y="51.66" width="14" height="0.18" transform="translate(108.26 113.03) rotate(-169.95)"/><rect class="cls-4" x="51.94" y="52.56" width="14" height="0.18" transform="matrix(-0.98, -0.17, 0.17, -0.98, 107.79, 114.78)"/><rect class="cls-4" x="51.78" y="53.46" width="14" height="0.18" transform="translate(107.32 116.54) rotate(-169.95)"/><rect class="cls-5" x="52.02" y="35.25" width="18.2" height="25.59" transform="translate(108.01 110.06) rotate(-165.26)"/><rect class="cls-6" x="59.66" y="38.13" width="8.13" height="0.18" transform="translate(115.62 91.39) rotate(-165.26)"/><rect class="cls-6" x="58.07" y="37.68" width="11.54" height="0.18" transform="matrix(-0.97, -0.25, 0.25, -0.97, 115.97, 90.54)"/><rect class="cls-6" x="56.23" y="39.98" width="14" height="0.18" transform="translate(114.19 94.91) rotate(-165.26)"/><rect class="cls-6" x="56.01" y="40.83" width="14" height="0.18" transform="translate(113.53 96.53) rotate(-165.26)"/><rect class="cls-6" x="55.56" y="42.52" width="14" height="0.18" transform="translate(112.22 99.75) rotate(-165.26)"/><rect class="cls-6" x="55.34" y="43.37" width="14" height="0.18" transform="matrix(-0.97, -0.25, 0.25, -0.97, 111.57, 101.36)"/><rect class="cls-6" x="55.12" y="44.22" width="14" height="0.18" transform="translate(110.91 102.98) rotate(-165.26)"/><rect class="cls-6" x="54.13" y="47.95" width="14" height="0.18" transform="translate(108.03 110.07) rotate(-165.26)"/><rect class="cls-6" x="53.9" y="48.83" width="14" height="0.18" transform="translate(107.35 111.74) rotate(-165.26)"/><rect class="cls-6" x="53.67" y="49.72" width="14" height="0.18" transform="translate(106.67 113.41) rotate(-165.26)"/><rect class="cls-4" x="53.44" y="50.6" width="14" height="0.18" transform="translate(105.99 115.09) rotate(-165.26)"/><rect class="cls-4" x="53.21" y="51.48" width="14" height="0.18" transform="translate(105.31 116.76) rotate(-165.26)"/><rect class="cls-4" x="52.98" y="52.36" width="14" height="0.18" transform="translate(104.63 118.43) rotate(-165.26)"/><rect class="cls-4" x="52.74" y="53.24" width="14" height="0.18" transform="translate(103.95 120.1) rotate(-165.26)"/><path class="cls-7" d="M53.18,61.68,72,69.25,83,41.88,67.18,32.11a1.69,1.69,0,0,0-2.45.81Z"/><path class="cls-8" d="M75.86,58.81l3.42-1c.6-2.49,1-4.6,1-4.6a17.09,17.09,0,0,0-9.73,3.22l-.5,4-1.09-2.72c-5.76,5.49-6.43,14-6.43,14s11.58-4.54,13.79-6.4c.86-.72,1.64-2.7,2.28-4.84C77.41,59.87,75.86,58.81,75.86,58.81Z"/><path class="cls-9" d="M80.24,53.21S66.68,63.84,62.49,71.73c0,0,11.58-4.54,13.79-6.4.86-.72,1.64-2.7,2.28-4.84-1.15-.62-2.7-1.68-2.7-1.68l3.42-1C79.88,55.32,80.24,53.21,80.24,53.21Z"/><path class="cls-6" d="M82.57,63.65a16.23,16.23,0,0,0-6.76-.52c-.39.9-.88,2-.88,2l-.55-1.7c-7.82,1.76-12.81,8.69-12.81,8.69,5.25,1.6,9.28,1.33,12.34.22,0-.65,0-1.62,0-1.62l.93,1.23a13.8,13.8,0,0,0,3.62-2.35c-.49-.64-1-1.38-1-1.38l1.93.49A15.22,15.22,0,0,0,82.57,63.65Z"/><path class="cls-10" d="M73.91,72.3c0-.65,0-1.62,0-1.62l.93,1.23a13.8,13.8,0,0,0,3.62-2.35c-.49-.64-1-1.38-1-1.38l1.93.49a15.22,15.22,0,0,0,3.17-5c-9.29,1.42-21,8.43-21,8.43C66.82,73.68,70.85,73.41,73.91,72.3Z"/><path class="cls-6" d="M23.37,42.89H22.08a1.37,1.37,0,0,1,.76-.23H55.12a2.91,2.91,0,0,1,3.06,2.71v1.72a2.91,2.91,0,0,1-3.06,2.72H23.2Z"/><path class="cls-3" d="M55.47,47.09V45.37a2.91,2.91,0,0,0-3.06-2.71h.7a2.91,2.91,0,0,1,3.06,2.71v1.72a2.91,2.91,0,0,1-3.06,2.72h-.69A2.89,2.89,0,0,0,55.47,47.09Z"/><path class="cls-3" d="M47.91,47.09V45.37a2.91,2.91,0,0,0-3.06-2.71h.7a2.91,2.91,0,0,1,3.06,2.71v1.72a2.91,2.91,0,0,1-3.06,2.72h-.69A2.89,2.89,0,0,0,47.91,47.09Z"/><path class="cls-10" d="M41.7,42.67a2.77,2.77,0,0,1,2.92,2.59v2A2.77,2.77,0,0,1,41.7,49.8H21.6v-.44h.08l5.11-.43,1-3.59s-2-2-2.12-2-4-.21-4-.21H21.6v-.43Z"/><path class="cls-3" d="M22.9,46.22a4.16,4.16,0,0,0-1.22-3.12h19.6A2.55,2.55,0,0,1,44,45.48V47a2.54,2.54,0,0,1-2.69,2.38H21.68S22.9,48.86,22.9,46.22Z"/><path class="cls-11" d="M44,45.48V47a2.12,2.12,0,0,1-.08.57,5.64,5.64,0,0,0-4.34-3.26c-5.63-1-17.87-1.19-17.87-1.19h19.6A2.55,2.55,0,0,1,44,45.48Z"/><path class="cls-10" d="M23.9,57.17H22.44a1.44,1.44,0,0,1,.86-.29H59.84a3.43,3.43,0,0,1,3.46,3.39v2.16a3.43,3.43,0,0,1-3.46,3.39H23.71Z"/><path class="cls-12" d="M44.64,56.89A3.27,3.27,0,0,1,48,60.13v2.44a3.28,3.28,0,0,1-3.31,3.25H21.9v-.55H22l5.78-.54,1.17-4.49s-2.25-2.48-2.4-2.55S22,57.43,22,57.43H21.9v-.54Z"/><path class="cls-3" d="M23.37,61.34A5.47,5.47,0,0,0,22,57.43H44.18a3,3,0,0,1,3,3v1.87a3,3,0,0,1-3,3H22S23.37,64.65,23.37,61.34Z"/><path class="cls-11" d="M47.22,60.42v1.87a2.71,2.71,0,0,1-.09.71,6.52,6.52,0,0,0-4.92-4.08C35.84,57.63,22,57.43,22,57.43H44.18A3,3,0,0,1,47.22,60.42Z"/><path class="cls-8" d="M64.5,50H66a1.58,1.58,0,0,0-.86-.23H28.55c-1.91,0-3.46,1.2-3.46,2.69v1.71c0,1.49,1.55,2.69,3.46,2.69H64.69Z"/><path class="cls-9" d="M43.75,49.79c-1.82,0-3.31,1.16-3.31,2.58V54.3c0,1.42,1.49,2.58,3.31,2.58H66.51v-.44h-.1L60.63,56l-1.17-3.57s2.26-2,2.4-2,4.55-.21,4.55-.21h.1v-.43Z"/><path class="cls-3" d="M65,53.32a3.92,3.92,0,0,1,1.39-3.09H44.22c-1.68,0-3,1.05-3,2.36v1.49c0,1.3,1.36,2.36,3,2.36h22.2S65,56,65,53.32Z"/><path class="cls-11" d="M41.18,52.59v1.49a1.88,1.88,0,0,0,.09.57,6.27,6.27,0,0,1,4.91-3.24c6.38-1,20.24-1.18,20.24-1.18H44.22C42.54,50.23,41.18,51.28,41.18,52.59Z"/><path class="cls-13" d="M31.78,54.19V52.48c0-1.49,1.55-2.69,3.47-2.69H31.78c-1.92,0-3.47,1.2-3.47,2.69v1.71c0,1.49,1.55,2.69,3.47,2.69H35.2C33.31,56.86,31.78,55.66,31.78,54.19Z"/><path class="cls-2" d="M66.91,66.1h1.83a2.3,2.3,0,0,0-1.08-.26H21.84c-2.4,0-4.34,1.35-4.34,3v1.91c0,1.66,1.94,3,4.34,3H67.15Z"/><path class="cls-14" d="M40.9,65.85c-2.29,0-4.15,1.29-4.15,2.88v2.15c0,1.59,1.86,2.88,4.15,2.88H69.42v-.48h-.11l-7.26-.48-1.46-4s2.83-2.2,3-2.26,5.71-.23,5.71-.23h.11v-.48Z"/><path class="cls-3" d="M67.57,69.79a4.27,4.27,0,0,1,1.74-3.46H41.48c-2.1,0-3.81,1.18-3.81,2.64v1.67c0,1.46,1.71,2.64,3.81,2.64H69.31S67.57,72.72,67.57,69.79Z"/><path class="cls-11" d="M37.67,69v1.67a1.94,1.94,0,0,0,.11.63c.94-1.59,2.74-3.12,6.16-3.62,8-1.15,25.37-1.32,25.37-1.32H41.48C39.38,66.33,37.67,67.51,37.67,69Z"/><rect class="cls-7" x="12.11" y="73.71" width="67.17" height="0.87" rx="0.36" ry="0.36" transform="translate(91.38 148.3) rotate(180)"/><polygon class="cls-2" points="79.68 44.9 66.85 37.56 65.11 41 78.24 47.95 79.68 44.9"/><path class="cls-6" d="M77.5,11.06s.1,1,.89,1.07c-.79.07-.89,1.07-.89,1.07s-.1-1-.89-1.07C77.4,12.06,77.5,11.06,77.5,11.06Z"/><path class="cls-15" d="M83,47.47s.15,1.49,1.33,1.6c-1.18.1-1.33,1.6-1.33,1.6s-.15-1.5-1.34-1.6C82.87,49,83,47.47,83,47.47Z"/><path class="cls-8" d="M91.09,19.42s.13,1.33,1.18,1.42c-1,.09-1.18,1.42-1.18,1.42s-.14-1.33-1.18-1.42C91,20.75,91.09,19.42,91.09,19.42Z"/><path class="cls-8" d="M16.89,53.36s.09.9.79,1c-.7.06-.79,1-.79,1s-.09-.89-.8-1C16.8,54.26,16.89,53.36,16.89,53.36Z"/><path class="cls-2" d="M74.6,28.22s.09.9.8,1c-.71.06-.8.95-.8.95s-.09-.89-.79-.95C74.51,29.12,74.6,28.22,74.6,28.22Z"/><path class="cls-2" d="M62.34,4.8s.09.89.8,1c-.71.06-.8,1-.8,1s-.09-.9-.79-1C62.25,5.69,62.34,4.8,62.34,4.8Z"/><path class="cls-2" d="M19.18,19.59s.12,1.17,1,1.25c-.92.08-1,1.25-1,1.25s-.12-1.17-1-1.25C19.06,20.76,19.18,19.59,19.18,19.59Z"/><path class="cls-2" d="M13.7,37.71s.18,1.71,1.53,1.83c-1.35.12-1.53,1.83-1.53,1.83s-.17-1.71-1.52-1.83C13.53,39.42,13.7,37.71,13.7,37.71Z"/><path class="cls-2" d="M59.42,18s.13,1.33,1.18,1.42c-1.05.09-1.18,1.42-1.18,1.42s-.14-1.33-1.19-1.42C59.28,19.33,59.42,18,59.42,18Z"/><path class="cls-6" d="M89.91,36.7S90,38,91.09,38.12c-1,.09-1.18,1.42-1.18,1.42s-.14-1.33-1.19-1.42C89.77,38,89.91,36.7,89.91,36.7Z"/><path class="cls-6" d="M32.82,13.86s.1,1,.85,1c-.75.06-.85,1-.85,1s-.09-1-.84-1C32.73,14.81,32.82,13.86,32.82,13.86Z"/><path class="cls-6" d="M28.31,31.32s.16,1.52,1.35,1.62c-1.19.11-1.35,1.62-1.35,1.62s-.15-1.51-1.35-1.62C28.16,32.84,28.31,31.32,28.31,31.32Z"/><path class="cls-8" d="M.92,25.67S1,26.87,1.84,27C1,27,.92,28.24.92,28.24S.82,27,0,27C.82,26.87.92,25.67.92,25.67Z"/><path class="cls-8" d="M34.6,2.22s.11,1.21.93,1.29c-.82.08-.93,1.29-.93,1.29s-.1-1.21-.92-1.29C34.5,3.43,34.6,2.22,34.6,2.22Z"/><path class="cls-11" d="M47.56,26.43l2.07.17L49,28.27l-1-.08-.44,1.39-.2-.09s-.14-.72-.24-1.37Z"/><path class="cls-10" d="M48.74,41.83v.73a.11.11,0,0,0,.11.11h1.71a.12.12,0,0,0,.06-.23l-.95-.61A.93.93,0,0,1,48.74,41.83Z"/><path class="cls-16" d="M45.4,10.9s0,0,0,0a3.42,3.42,0,0,0,.13-.86c-.06,0-.19.54-.25.54s.08-.54,0-.56-.17.49-.21.49,0-.49,0-.53-.16.49-.2.5-.07-.37-.1-.37-.06,0-.23.89a1.15,1.15,0,0,1-.07.4l.13.27H45a11.36,11.36,0,0,0,.87-.84S45.78,10.75,45.4,10.9Z"/><path class="cls-16" d="M49.54,11.1s.05,0,.05,0a3.69,3.69,0,0,1,.29-.82c.06,0-.08.57,0,.6s.17-.52.24-.51-.06.52,0,.53.21-.45.25-.46-.08.5,0,.53.23-.3.26-.29.06,0-.2.9a1.2,1.2,0,0,0-.12.39l-.24.18L49.59,12a11.71,11.71,0,0,1-.39-1.14S49.26,10.79,49.54,11.1Z"/><polygon class="cls-16" points="46.34 18.29 46.35 19.83 44.86 19.6 45.1 17.87 46.34 18.29"/><path class="cls-17" d="M45,18.67l.12-.8,1.23.57v.3A2.28,2.28,0,0,1,45,18.67Z"/><path class="cls-10" d="M43.65,41.75v.8a.13.13,0,0,1-.12.12H41.65a.14.14,0,0,1-.07-.25l1.05-.67A1,1,0,0,0,43.65,41.75Z"/><path class="cls-10" d="M41.93,28.15c0-.17-.44.33-.43.2.18-2.85,5.73-.46,5.73-.46l1.35,1,1.53,13.17a2.78,2.78,0,0,1-1.37.05L45.35,30.81l-.42-.16A23.67,23.67,0,0,1,41.93,28.15Z"/><path class="cls-18" d="M41.49,28.46v0Z"/><path class="cls-18" d="M41.49,28.57v0Z"/><path class="cls-18" d="M41.49,28.69v0Z"/><path class="cls-18" d="M41.5,28.35v0Z"/><path class="cls-12" d="M41.5,27.7a37.68,37.68,0,0,0,3.43,2.95l.42.16-.42-.16-1.29,11.4a2.62,2.62,0,0,1-1.44-.11S41.43,31.09,41.5,27.7Z"/><path class="cls-18" d="M50.11,42.05a3.07,3.07,0,0,1-.75.12,3.07,3.07,0,0,0,.75-.12Z"/><path class="cls-18" d="M48.9,42.14l.11,0Z"/><path class="cls-18" d="M49.36,42.17h0Z"/><path class="cls-12" d="M48.58,28.88l.22,1.88c-.58.23-2,.47-3-1.86a2.89,2.89,0,0,1-.35-1.63,15.23,15.23,0,0,1,1.83.62Z"/><path class="cls-3" d="M43.49,21.21c.06,0,1-2.18,1-2.18a2.35,2.35,0,0,0,1.94.18s4.5,8.22,1.48,9.5a7.25,7.25,0,0,1-5.85-.28s-.64-1.66-.64-1.73S43.42,21.21,43.49,21.21Z"/><path class="cls-8" d="M49.34,12s.2,3.9-.17,4.61C48,19,46.45,19.21,46.45,19.21s-.51,8.29-.09,10.28A5.26,5.26,0,0,0,49.88,29s-1.6-6.44-1.52-7.25c0,0,2.57-2.29,2.65-5a17.94,17.94,0,0,0-.62-5.08Z"/><path class="cls-8" d="M42.43,29.19a37.4,37.4,0,0,1,.87-6A30.64,30.64,0,0,1,44.51,19c-.94-1-.78-2-.7-3.21a17.27,17.27,0,0,1,1.47-4.23L44.35,11c-4.45,5.36-2,9.62-2,9.62s-1.67,5.9-1.89,7.69A12.58,12.58,0,0,0,42.43,29.19Z"/><path class="cls-9" d="M48.32,21.69a.7.7,0,0,1-.18-.17,1.82,1.82,0,0,1-.36-.77,2.55,2.55,0,0,0,.39.75.77.77,0,0,0,.2.19h0v0a.55.55,0,0,1-.34-.08,1.46,1.46,0,0,1-.28-.21,2.09,2.09,0,0,0,.29.19A.59.59,0,0,0,48.32,21.69Z"/><path class="cls-9" d="M42.4,20.58a.9.9,0,0,0,.2-.19,2.15,2.15,0,0,0,.39-.75,1.86,1.86,0,0,1-.36.78.94.94,0,0,1-.18.17l.13,0a.52.52,0,0,0,.16-.06,1.6,1.6,0,0,0,.29-.18,1.55,1.55,0,0,1-.28.2l-.16.07a.31.31,0,0,1-.19,0h0Z"/><polygon class="cls-19" points="44.2 15.16 44.11 16.21 44.28 16.32 44.59 15.03 44.2 15.16"/><path class="cls-20" d="M44.43,16.1a.36.36,0,1,1-.43-.36A.4.4,0,0,1,44.43,16.1Z"/><path class="cls-16" d="M44.15,17.08a3.33,3.33,0,0,1,0-.89c0-.06,0-.11,0-.17a1.85,1.85,0,0,1,.15-.71,1.88,1.88,0,0,1,3.57,1.12.4.4,0,0,1,.37.05.5.5,0,0,1,0,.7.51.51,0,0,1-.68.2.27.27,0,0,1-.08-.07,1.76,1.76,0,0,1-2,1.24A1.73,1.73,0,0,1,44.15,17.08Z"/><path class="cls-21" d="M46.19,16.23a.17.17,0,0,0,.16.23.18.18,0,0,0,.15-.1.17.17,0,0,0-.16-.23A.18.18,0,0,0,46.19,16.23Z"/><path class="cls-21" d="M44.79,16a.17.17,0,0,0,.16.22.18.18,0,0,0,.15-.1.17.17,0,0,0-.16-.23A.17.17,0,0,0,44.79,16Z"/><path class="cls-20" d="M46,17.38a.67.67,0,0,1-.26.09.62.62,0,0,1-.27,0,.58.58,0,0,1-.26-.09.87.87,0,0,1-.22-.17,1.26,1.26,0,0,0,.2.2.79.79,0,0,0,.27.1,1,1,0,0,0,.29,0A.72.72,0,0,0,46,17.38Z"/><path class="cls-19" d="M46.06,15.9l.24,0a.85.85,0,0,1,.23,0,.67.67,0,0,1,.21.09,1.45,1.45,0,0,1,.2.15.46.46,0,0,0-.14-.22.51.51,0,0,0-.24-.13.5.5,0,0,0-.27,0A.51.51,0,0,0,46.06,15.9Z"/><path class="cls-19" d="M45.41,15.79a.47.47,0,0,0-.19-.18.54.54,0,0,0-.25-.09.59.59,0,0,0-.27.05.65.65,0,0,0-.21.16l.24-.07a.9.9,0,0,1,.23,0,.87.87,0,0,1,.22,0Z"/><path class="cls-20" d="M45.69,16a1.51,1.51,0,0,0-.21.23,2.48,2.48,0,0,0-.19.26.77.77,0,0,0-.08.19.15.15,0,0,0,.06.13l.12.1.14.08a1.52,1.52,0,0,1-.22-.22l0-.05a.13.13,0,0,1,0-.06.91.91,0,0,1,.07-.14l.17-.26C45.58,16.18,45.63,16.09,45.69,16Z"/><path class="cls-19" d="M44.4,14s-.56-.1.13-.44a3.45,3.45,0,0,1,3.22.22s.3-.38.56-.21S48,14,48,14s.37.07.44.27-.18.11-.3.08c.2.08.79.64,0,2.16a12.29,12.29,0,0,1-1-1.32s-1.77.58-1.45.1c0,0-2,.52-1.55-.41C44.2,14.83,43.44,14.72,44.4,14Z"/><path class="cls-19" d="M48.21,16.46a.38.38,0,0,0-.34,0c-.2.08-.33.53-.33.53s-.67.55-.34-1.83.76.39.76.39Z"/><path class="cls-2" d="M49.18,9.16l-3-.22a.27.27,0,0,1-.26-.3h0a.27.27,0,0,1,.3-.25l3,.21a.29.29,0,0,1,.26.3h0A.29.29,0,0,1,49.18,9.16Z"/><polygon class="cls-2" points="48.3 0 49.37 2.61 52.11 3.21 49.97 5.02 50.24 7.82 47.85 6.34 45.27 7.47 45.95 4.74 44.07 2.63 46.88 2.43 48.3 0"/><polygon class="cls-14" points="48.3 0 48.03 3.82 49.37 2.61 48.3 0"/><polygon class="cls-14" points="52.11 3.21 48.03 3.82 49.97 5.02 52.11 3.21"/><polygon class="cls-14" points="48.03 3.82 46.88 2.43 44.07 2.63 48.03 3.82"/><polygon class="cls-14" points="45.27 7.47 48.03 3.82 45.95 4.74 45.27 7.47"/><polygon class="cls-14" points="50.24 7.82 48.03 3.82 47.85 6.34 50.24 7.82"/><rect class="cls-6" x="45.28" y="9.11" width="4.63" height="1.63" transform="translate(0.83 -3.36) rotate(4.08)"/><rect class="cls-22" x="47.46" y="8.33" width="0.18" height="4.63" transform="translate(33.54 57.31) rotate(-85.92)"/><rect class="cls-22" x="47.56" y="6.84" width="0.18" height="4.63" transform="translate(35.13 56.03) rotate(-85.92)"/><path class="cls-14" d="M49.92,9.35,45.37,9a.21.21,0,0,1-.19-.23h0a.21.21,0,0,1,.22-.19L50,8.93a.21.21,0,0,1,.2.23h0A.21.21,0,0,1,49.92,9.35Z"/><path class="cls-6" d="M49.91,11.28l-4.86-.35a.06.06,0,0,1,0-.06l0-.3a.05.05,0,0,1,.06-.05l4.86.34a.06.06,0,0,1,.05.06l0,.31A.06.06,0,0,1,49.91,11.28Z"/><path class="cls-2" d="M48.43,10.37l-1.76-.13a.39.39,0,0,1-.37-.42h0a.4.4,0,0,1,.43-.37l1.75.13a.39.39,0,0,1,.37.42h0A.39.39,0,0,1,48.43,10.37Z"/><path class="cls-23" d="M46.68,10.11a.27.27,0,0,1-.24-.32.27.27,0,0,1,.29-.21l1.73.13a.27.27,0,0,1,.26.25.25.25,0,0,1-.28.27Z"/><path class="cls-2" d="M48.17,8.7l-1-.07V8.54a5,5,0,0,1,.65-2.2h0a4.74,4.74,0,0,1,.33,2.27Z"/></g></g></g></svg>